<svg width="990" height="922" viewBox="0 0 990 922" fill="none" xmlns="http://www.w3.org/2000/svg">
<g id="woman-on-bike">
<g id="background">
<path id="Ellipse 2" d="M944.98 384.347C971.422 411.124 983.857 449.78 972.487 485.653C823.816 954.715 431.955 1018.3 421.421 803.415C409.591 562.089 -111.393 722.699 22.1035 502.686C155.6 282.672 397.306 222.463 459.587 65.2025C541.683 -142.094 764.26 201.341 944.98 384.347Z" fill="url(#paint0_linear_9_361)"/>
</g>
<g id="buildings">
<path id="Vector" d="M669.721 464.541C667.363 462.174 664.559 460.297 661.472 459.019C658.384 457.74 655.074 457.085 651.733 457.091V442.275C651.735 438.884 651.069 435.525 649.772 432.392C648.476 429.259 646.574 426.412 644.176 424.014C641.778 421.616 638.931 419.714 635.798 418.418C632.664 417.121 629.306 416.455 625.915 416.457V405.29H632.06C634.688 405.29 637.209 404.246 639.068 402.388C640.927 400.529 641.971 398.008 641.971 395.38C641.971 392.751 640.927 390.23 639.068 388.372C637.209 386.513 634.688 385.469 632.06 385.469H625.915V377.722H622.876V385.469H615.542C612.913 385.469 610.392 386.513 608.534 388.372C606.675 390.23 605.631 392.751 605.631 395.38C605.631 398.008 606.675 400.529 608.534 402.388C610.392 404.246 612.913 405.29 615.542 405.29H622.876V416.457H603.946C602.145 416.457 600.363 416.811 598.699 417.5C597.035 418.189 595.524 419.199 594.251 420.472C592.978 421.745 591.968 423.256 591.279 424.92C590.59 426.583 590.236 428.366 590.236 430.167V457.091H585.859C579.104 457.091 572.415 458.421 566.174 461.006C559.933 463.591 554.262 467.379 549.486 472.156C544.709 476.933 540.92 482.603 538.336 488.844C535.751 495.085 534.421 501.774 534.421 508.529V544.512C525.074 547.205 516.616 552.348 509.923 559.407C503.231 566.467 498.546 575.186 496.355 584.664H473.808V561.882H460.139V552.302H468.53C471.159 552.302 473.679 551.258 475.538 549.399C477.397 547.541 478.441 545.02 478.441 542.391C478.441 539.763 477.397 537.242 475.538 535.383C473.679 533.524 471.159 532.48 468.53 532.48H460.139V526.191H457.102V532.48H452.012C449.383 532.48 446.863 533.524 445.004 535.383C443.145 537.242 442.101 539.763 442.101 542.391C442.101 545.02 443.145 547.541 445.004 549.399C446.863 551.258 449.383 552.302 452.012 552.302H457.102V561.923C453.612 562.125 450.331 563.654 447.931 566.196C445.531 568.737 444.194 572.1 444.192 575.596V584.746C431.061 585.473 418.707 591.201 409.668 600.753C400.629 610.306 395.591 622.957 395.591 636.109V846.654H534.421V846.656H677.171V482.529C677.177 479.188 676.523 475.878 675.244 472.791C673.965 469.703 672.088 466.9 669.721 464.541V464.541Z" fill="#A3A3A3"/>
<path id="Vector_2" d="M382.621 457.086V442.278C382.621 438.887 381.953 435.53 380.656 432.397C379.358 429.265 377.456 426.419 375.059 424.021C372.661 421.623 369.815 419.722 366.682 418.424C363.55 417.127 360.192 416.459 356.802 416.459V416.459V401.987H362.814C365.442 401.987 367.963 400.943 369.822 399.084C371.68 397.225 372.725 394.704 372.725 392.076C372.725 389.447 371.68 386.927 369.822 385.068C367.963 383.209 365.442 382.165 362.814 382.165H356.802V377.73H353.764V382.165H346.296C343.667 382.165 341.146 383.209 339.288 385.068C337.429 386.927 336.385 389.447 336.385 392.076C336.385 394.704 337.429 397.225 339.288 399.084C341.146 400.943 343.667 401.987 346.296 401.987H353.764V416.459H334.824C333.023 416.459 331.24 416.813 329.576 417.503C327.912 418.192 326.401 419.202 325.127 420.475C323.854 421.749 322.843 423.261 322.154 424.925C321.465 426.588 321.11 428.372 321.11 430.173V457.086H316.739C303.096 457.086 290.01 462.506 280.363 472.154C270.715 481.802 265.295 494.887 265.295 508.53V541.863C256.649 545.588 249.113 551.488 243.422 558.988C237.732 566.489 234.079 575.334 232.819 584.664H204.69V561.882H191.021V548.999H195.98C198.609 548.999 201.13 547.954 202.988 546.096C204.847 544.237 205.891 541.716 205.891 539.088C205.891 536.459 204.847 533.938 202.988 532.08C201.13 530.221 198.609 529.177 195.98 529.177H191.021V526.191H187.983V529.177H179.462C176.834 529.177 174.313 530.221 172.454 532.08C170.596 533.938 169.551 536.459 169.551 539.088C169.551 541.716 170.596 544.237 172.454 546.096C174.313 547.954 176.834 548.999 179.462 548.999H187.983V561.923C184.494 562.125 181.213 563.654 178.813 566.196C176.413 568.737 175.075 572.1 175.074 575.596V584.746C161.943 585.473 149.588 591.201 140.55 600.753C131.511 610.306 126.473 622.957 126.473 636.109V846.654H408.061V482.526C408.061 479.185 407.403 475.877 406.124 472.79C404.846 469.704 402.972 466.899 400.61 464.537C398.247 462.175 395.443 460.301 392.356 459.023C389.27 457.744 385.962 457.086 382.621 457.086V457.086Z" fill="#A3A3A3"/>
<path id="Vector_3" d="M892.132 846.078C892.132 846.234 892.102 846.389 892.042 846.534C891.983 846.678 891.895 846.81 891.784 846.92C891.674 847.031 891.542 847.119 891.398 847.178C891.253 847.238 891.098 847.268 890.942 847.268H98.6519C98.3363 847.268 98.0336 847.142 97.8105 846.919C97.5873 846.696 97.4619 846.393 97.4619 846.078C97.4619 845.762 97.5873 845.46 97.8105 845.236C98.0336 845.013 98.3363 844.888 98.6519 844.888H890.942C891.098 844.887 891.253 844.918 891.398 844.977C891.542 845.037 891.674 845.125 891.784 845.235C891.895 845.346 891.983 845.477 892.042 845.622C892.102 845.766 892.132 845.921 892.132 846.078V846.078Z" fill="#837E7E"/>
<path id="Vector_4" d="M195.577 675.791H214.562V660.603H195.577V675.791Z" fill="white"/>
<path id="Vector_5" d="M164.442 675.791H183.427V660.603H164.442V675.791Z" fill="white"/>
<path id="Vector_6" d="M195.577 714.52H214.562V699.332H195.577V714.52Z" fill="white"/>
<path id="Vector_7" d="M164.442 714.52H183.427V699.332H164.442V714.52Z" fill="white"/>
<path id="Vector_8" d="M195.577 753.249H214.562V738.061H195.577V753.249Z" fill="white"/>
<path id="Vector_9" d="M164.442 753.249H183.427V738.061H164.442V753.249Z" fill="white"/>
<path id="Vector_10" d="M164.442 791.978H183.427V776.79H164.442V791.978Z" fill="white"/>
<path id="Vector_11" d="M164.442 830.707H183.427V815.519H164.442V830.707Z" fill="white"/>
<path id="Vector_12" d="M305.922 632.885H367.433V628.329H305.922V632.885Z" fill="white"/>
<path id="Vector_13" d="M305.922 660.983H367.433V656.427H305.922V660.983Z" fill="white"/>
<path id="Vector_14" d="M305.922 689.081H367.433V684.524H305.922V689.081Z" fill="white"/>
<path id="Vector_15" d="M342.373 440H361.358V424.812H342.373V440Z" fill="white"/>
<path id="Vector_16" d="M464.695 714.52H483.68V699.332H464.695V714.52Z" fill="white"/>
<path id="Vector_17" d="M433.56 714.52H452.545V699.332H433.56V714.52Z" fill="white"/>
<path id="Vector_18" d="M464.695 753.249H483.68V738.061H464.695V753.249Z" fill="white"/>
<path id="Vector_19" d="M433.56 753.249H452.545V738.061H433.56V753.249Z" fill="white"/>
<path id="Vector_20" d="M464.695 791.978H483.68V776.79H464.695V791.978Z" fill="white"/>
<path id="Vector_21" d="M433.56 791.978H452.545V776.79H433.56V791.978Z" fill="white"/>
<path id="Vector_22" d="M464.695 830.707H483.68V815.519H464.695V830.707Z" fill="white"/>
<path id="Vector_23" d="M433.56 830.707H452.545V815.519H433.56V830.707Z" fill="white"/>
<path id="Vector_24" d="M611.491 440H630.476V424.812H611.491V440Z" fill="white"/>
<path id="Vector_25" d="M677.171 489.533H630.408V499.444H677.171V489.533Z" fill="white"/>
<path id="Vector_26" d="M677.171 519.266H630.408V529.177H677.171V519.266Z" fill="white"/>
<path id="Vector_27" d="M677.171 548.999H630.408V558.909H677.171V548.999Z" fill="white"/>
<path id="Vector_28" d="M677.171 578.731H630.408V588.642H677.171V578.731Z" fill="white"/>
<path id="Vector_29" d="M677.171 608.464H630.408V618.375H677.171V608.464Z" fill="white"/>
<path id="Vector_30" d="M677.171 638.197H630.408V648.107H677.171V638.197Z" fill="white"/>
</g>
<g id="right-wheel">
<path id="Vector_31" d="M718.639 845.524C696.096 845.524 674.059 838.839 655.315 826.315C636.571 813.79 621.962 795.989 613.335 775.162C604.709 754.335 602.451 731.418 606.849 709.308C611.247 687.198 622.103 666.889 638.043 650.948C653.983 635.008 674.293 624.152 696.403 619.754C718.512 615.357 741.43 617.614 762.257 626.241C783.084 634.867 800.885 649.476 813.41 668.22C825.934 686.964 832.619 709.001 832.619 731.544C832.584 761.763 820.565 790.734 799.197 812.102C777.829 833.47 748.858 845.49 718.639 845.524ZM718.639 628.118C698.183 628.118 678.187 634.184 661.178 645.548C644.17 656.913 630.914 673.066 623.086 691.965C615.258 710.863 613.209 731.659 617.2 751.722C621.191 771.784 631.041 790.213 645.506 804.677C659.97 819.142 678.399 828.992 698.461 832.983C718.524 836.974 739.32 834.925 758.218 827.097C777.117 819.269 793.27 806.013 804.634 789.004C815.999 771.996 822.065 752 822.065 731.544C822.034 704.123 811.127 677.835 791.738 658.445C772.348 639.056 746.06 628.149 718.639 628.118V628.118Z" fill="#3F3D56"/>
<path id="Vector_32" d="M825.503 730.544H611.774V732.544H825.503V730.544Z" fill="#3F3D56"/>
<path id="Vector_33" d="M717.639 624.68V838.408H719.639V624.68H717.639Z" fill="#3F3D56"/>
<path id="Vector_34" d="M786.564 649.038L649.182 812.764L650.714 814.05L788.096 650.324L786.564 649.038Z" fill="#3F3D56"/>
<path id="Vector_35" d="M786.564 814.05L649.182 650.324L650.714 649.038L788.096 812.764L786.564 814.05Z" fill="#3F3D56"/>
</g>
<g id="left-wheel">
<path id="Vector_36" d="M249.639 844.888C227.95 844.888 206.748 838.456 188.714 826.407C170.68 814.357 156.625 797.23 148.325 777.192C140.025 757.154 137.853 735.105 142.084 713.832C146.316 692.56 156.76 673.02 172.096 657.684C187.433 642.347 206.973 631.903 228.245 627.672C249.517 623.44 271.567 625.612 291.605 633.912C311.643 642.212 328.769 656.268 340.819 674.301C352.869 692.335 359.301 713.537 359.301 735.226C359.268 764.3 347.704 792.174 327.145 812.732C306.587 833.291 278.713 844.855 249.639 844.888ZM249.639 635.718C229.958 635.718 210.719 641.554 194.355 652.488C177.991 663.422 165.237 678.963 157.706 697.146C150.174 715.329 148.203 735.337 152.043 754.639C155.883 773.942 165.36 791.672 179.276 805.589C193.193 819.505 210.923 828.983 230.226 832.822C249.528 836.662 269.536 834.691 287.719 827.159C305.902 819.628 321.443 806.874 332.377 790.51C343.311 774.146 349.147 754.907 349.147 735.226C349.117 708.844 338.623 683.551 319.969 664.896C301.314 646.242 276.021 635.748 249.639 635.718V635.718Z" fill="#3F3D56"/>
<path id="Vector_37" d="M352.455 734.264H146.823V736.188H352.455V734.264Z" fill="#3F3D56"/>
<path id="Vector_38" d="M248.677 632.41V838.042H250.601V632.41H248.677Z" fill="#3F3D56"/>
<path id="Vector_39" d="M314.991 655.846L182.813 813.369L184.287 814.606L316.465 657.083L314.991 655.846Z" fill="#3F3D56"/>
<path id="Vector_40" d="M314.991 814.606L182.813 657.083L184.287 655.846L316.465 813.369L314.991 814.606Z" fill="#3F3D56"/>
</g>
<g id="clouds">
<path id="Vector_41" d="M809.618 331.084C824.364 331.084 836.319 319.13 836.319 304.383C836.319 289.637 824.364 277.682 809.618 277.682C794.872 277.682 782.917 289.637 782.917 304.383C782.917 319.13 794.872 331.084 809.618 331.084Z" fill="#EFC8D0"/>
<path id="Vector_42" d="M869.38 291.742C868.625 289.272 867.165 287.077 865.179 285.426C863.193 283.775 860.767 282.741 858.201 282.451C858.143 282.443 858.088 282.453 858.03 282.45C857.956 282.427 857.88 282.409 857.802 282.397C845.592 280.819 831.497 286.659 826.408 298.235C825.166 296.542 823.531 295.177 821.643 294.257C819.756 293.337 817.673 292.891 815.574 292.956C812.868 293.137 810.284 294.146 808.172 295.848C806.061 297.55 804.525 299.862 803.774 302.468C803.694 302.787 803.718 303.123 803.842 303.427C803.966 303.732 804.183 303.989 804.463 304.162C805.27 304.845 806.225 305.33 807.253 305.578C809.47 306.047 811.696 306.478 813.929 306.869C818.287 307.631 822.668 308.248 827.071 308.718C836.01 309.676 845.004 310.016 853.989 309.736C856.982 309.643 859.868 309.543 862.61 308.222C864.605 307.237 866.309 305.75 867.555 303.907C868.729 302.135 869.501 300.128 869.817 298.027C870.132 295.925 869.983 293.78 869.38 291.742V291.742Z" fill="#F0F0F0"/>
<path id="Vector_43" d="M813.885 327.342C813.13 324.873 811.669 322.678 809.683 321.027C807.697 319.376 805.272 318.342 802.706 318.052C802.647 318.044 802.592 318.054 802.535 318.051C802.46 318.028 802.384 318.01 802.307 317.998C790.096 316.42 776.001 322.26 770.912 333.836C769.67 332.143 768.035 330.778 766.148 329.858C764.26 328.938 762.177 328.492 760.079 328.557C757.373 328.738 754.788 329.747 752.676 331.449C750.565 333.151 749.029 335.463 748.278 338.069C748.198 338.388 748.222 338.724 748.346 339.028C748.47 339.333 748.688 339.59 748.968 339.763C749.774 340.446 750.73 340.931 751.757 341.179C753.975 341.648 756.2 342.079 758.434 342.47C762.791 343.232 767.172 343.849 771.576 344.319C780.514 345.277 789.508 345.617 798.494 345.337C801.486 345.244 804.372 345.144 807.114 343.823C809.109 342.838 810.813 341.351 812.06 339.508C813.234 337.736 814.006 335.729 814.321 333.627C814.636 331.526 814.487 329.38 813.885 327.342V327.342Z" fill="#F0F0F0"/>
</g>
<g id="woman-bike">
<path id="Vector_44" d="M406.704 694.532L417.448 703.523L458.012 665.437L442.155 652.168L406.704 694.532Z" fill="#FFB6B6"/>
<path id="Vector_45" d="M438.49 691.491L415.737 675.786L475.645 580.805C432.225 555.567 402.365 524.78 378 490.962C369.72 479.549 364.673 466.267 376.224 457.705C376.764 457.304 377.318 456.925 377.887 456.567C391.059 448.359 386.783 460.66 404.838 454.619L421.152 472.022L456.399 506.318L516.521 544.696C528.611 552.414 531.966 568.648 524.014 580.956C523.594 581.606 523.147 582.237 522.672 582.85L438.49 691.491Z" fill="#2F2E41"/>
<path id="Vector_46" d="M408.065 687.209L426.903 701.153L420.47 708.84L427.669 734.897C428.024 736.183 427.959 737.55 427.483 738.798C427.007 740.045 426.145 741.108 425.022 741.83C423.899 742.553 422.575 742.897 421.242 742.814C419.91 742.73 418.639 742.223 417.615 741.366L396.254 723.49L398.936 712.805L391.135 719.206L383.081 712.466L408.065 687.209Z" fill="#2F2E41"/>
<g id="Group 1">
<path id="Vector_47" d="M408.947 753.042L378.671 726.9C376.564 725.08 375.267 722.498 375.064 719.721C374.861 716.944 375.769 714.201 377.589 712.093C379.408 709.986 381.99 708.688 384.767 708.484C387.543 708.28 390.287 709.187 392.395 711.006L422.671 737.147C423.715 738.048 424.572 739.146 425.192 740.378C425.812 741.61 426.183 742.952 426.284 744.328C426.385 745.703 426.214 747.085 425.781 748.395C425.348 749.704 424.661 750.915 423.759 751.959C422.858 753.003 421.76 753.859 420.527 754.479C419.295 755.098 417.953 755.469 416.577 755.569C415.202 755.67 413.82 755.498 412.511 755.065C411.201 754.631 409.99 753.944 408.947 753.042V753.042Z" fill="#3F3D56"/>
</g>
<path id="Vector_48" d="M580.932 451.024C579.018 451.684 576.984 451.917 574.971 451.705C572.958 451.494 571.016 450.843 569.281 449.8C567.547 448.757 566.062 447.346 564.932 445.667C563.802 443.988 563.054 442.082 562.74 440.082L454.586 412.232L472.224 393.725L575.235 423.973C578.629 423.668 582.017 424.62 584.756 426.646C587.496 428.673 589.397 431.634 590.099 434.968C590.801 438.303 590.256 441.779 588.566 444.738C586.876 447.697 584.16 449.934 580.932 451.024H580.932Z" fill="#FFB6B6"/>
<path id="Vector_49" d="M416.63 321.716C416.63 321.716 399.044 323.754 399.36 344.019C399.676 364.285 442.785 410.449 449.51 418.098C456.236 425.747 523.354 429.655 523.354 429.655L544.321 411.219L482.153 390.273L416.63 321.716Z" fill="#843C5A"/>
<path id="Vector_50" d="M380.958 416.834L376.991 435.442C376.991 435.442 369.77 450.929 371.172 455.067C372.56 459.182 435.054 481.552 435.054 481.552C435.054 481.552 440.409 453.649 449.343 434.827L380.958 416.834Z" fill="#FFB6B6"/>
<path id="Vector_51" d="M581.244 707.876L545.151 725.12C542.639 726.32 539.752 726.473 537.126 725.545C534.501 724.618 532.351 722.685 531.151 720.172C529.95 717.659 529.797 714.772 530.725 712.147C531.653 709.521 533.586 707.372 536.099 706.171L572.191 688.928C574.704 687.727 577.59 687.574 580.216 688.502C582.842 689.43 584.991 691.363 586.192 693.876C587.392 696.388 587.545 699.275 586.617 701.901C585.689 704.526 583.757 706.676 581.244 707.876V707.876Z" fill="#3F3D56"/>
<path id="Vector_52" d="M723.171 755.524C732.008 755.524 739.171 748.36 739.171 739.524C739.171 730.687 732.008 723.524 723.171 723.524C714.335 723.524 707.171 730.687 707.171 739.524C707.171 748.36 714.335 755.524 723.171 755.524Z" fill="#3F3D56"/>
<path id="Vector_53" d="M249.71 755.077C258.547 755.077 265.71 747.914 265.71 739.077C265.71 730.241 258.547 723.077 249.71 723.077C240.874 723.077 233.71 730.241 233.71 739.077C233.71 747.914 240.874 755.077 249.71 755.077Z" fill="#3F3D56"/>
<path id="Vector_54" d="M466.71 755.63C476.957 755.63 485.264 747.324 485.264 737.077C485.264 726.83 476.957 718.524 466.71 718.524C456.464 718.524 448.157 726.83 448.157 737.077C448.157 747.324 456.464 755.63 466.71 755.63Z" fill="#3F3D56"/>
<path id="Vector_55" d="M450.954 731.635H352.681V741.635H450.954V731.635Z" fill="#3F3D56"/>
<path id="Vector_56" d="M445.27 306.832C461.369 304.095 472.201 288.826 469.464 272.727C466.727 256.628 451.457 245.796 435.358 248.533C419.259 251.27 408.428 266.539 411.165 282.638C413.901 298.737 429.171 309.569 445.27 306.832Z" fill="#FFB6B6"/>
<path id="Vector_57" d="M521.253 572.94C517.049 572.929 512.96 571.561 509.595 569.04C506.231 566.52 503.769 562.981 502.577 558.949L502.435 558.469L577.247 536.396L577.388 536.875C578.113 539.331 578.347 541.906 578.077 544.453C577.806 546.999 577.037 549.467 575.813 551.717C574.588 553.966 572.933 555.952 570.941 557.561C568.949 559.171 566.66 560.372 564.204 561.096L526.798 572.133C524.998 572.666 523.13 572.938 521.253 572.94V572.94Z" fill="#3F3D56"/>
<path id="Vector_58" d="M530.868 694.421L544.481 691.063L538.188 635.766L518.096 640.724L530.868 694.421Z" fill="#FFB6B6"/>
<path id="Vector_59" d="M524.421 678.553L545.666 668.655L549.35 677.977L575.683 684.087C576.984 684.389 578.154 685.098 579.023 686.112C579.891 687.126 580.414 688.391 580.513 689.722C580.612 691.054 580.282 692.382 579.573 693.513C578.864 694.644 577.811 695.519 576.57 696.01L550.666 706.248L542.556 698.792L544.458 708.702L534.691 712.562L524.421 678.553Z" fill="#2F2E41"/>
<path id="Vector_60" d="M545.244 644.594L516.218 662.001L485.26 552.669C435.04 552.241 388.605 546.617 350.692 529.299C337.848 523.483 332.134 508.102 337.93 494.944C338.201 494.328 338.495 493.725 338.812 493.132C346.192 479.479 360.5 471.461 373.195 457.273L436.171 480.524L431.659 497.482L502.895 501.058C517.221 501.777 528.174 514.221 527.359 528.852C527.316 529.624 527.24 530.394 527.131 531.161L545.244 644.594Z" fill="#2F2E41"/>
<path id="Vector_61" d="M422.103 306.547L441.456 316.666C442.525 317.092 443.434 317.842 444.057 318.81C444.68 319.778 444.985 320.917 444.931 322.066L449.972 342.238L467.709 379.782C467.709 379.782 472.331 399.763 463.511 418.629C454.691 437.494 435.171 484.524 435.171 484.524C422.44 515.018 317.939 491.469 345.171 465.524C348.411 462.437 366.624 436.36 373.288 434.862L389.638 341.296C390.462 336.356 392.37 331.66 395.223 327.544C398.076 323.428 401.805 319.994 406.141 317.489C408.761 316.008 411.189 315.131 412.854 315.579C416.647 316.463 418.44 307.872 422.103 306.547Z" fill="#843C5A"/>
<g id="frame">
<path id="Vector_62" d="M381.772 592.305L276.943 629.553L280.31 638.97L385.14 601.721L381.772 592.305Z" fill="#3F3D56"/>
<path id="Vector_63" d="M253.819 737.943L246.523 731.104L376.758 592.171L609.17 522.614L724.515 725.048L715.827 729.999L604.419 534.475L382.21 600.978L253.819 737.943Z" fill="#3F3D56"/>
<path id="Vector_64" d="M384.484 544.291H374.484V596.574H384.484V544.291Z" fill="#3F3D56"/>
<path id="Vector_65" d="M578.929 425.987L569.413 429.06L602.036 530.081L611.552 527.008L578.929 425.987Z" fill="#3F3D56"/>
<path id="Vector_66" d="M383.486 589.997L374.856 595.051L456.856 735.051L465.486 729.997L383.486 589.997Z" fill="#3F3D56"/>
<path id="Vector_67" d="M653.35 610.387L477.358 730.399L482.992 738.66L658.984 618.649L653.35 610.387Z" fill="#3F3D56"/>
<path id="Vector_68" d="M398.671 550.524H358.671C355.886 550.524 353.215 549.417 351.246 547.448C349.277 545.479 348.171 542.808 348.171 540.024C348.171 537.239 349.277 534.568 351.246 532.599C353.215 530.63 355.886 529.524 358.671 529.524H398.671C401.456 529.524 404.126 530.63 406.096 532.599C408.065 534.568 409.171 537.239 409.171 540.024C409.171 542.808 408.065 545.479 406.096 547.448C404.126 549.417 401.456 550.524 398.671 550.524V550.524Z" fill="#3F3D56"/>
<path id="Vector_69" d="M593.671 437.524H553.671C550.886 437.524 548.215 436.417 546.246 434.448C544.277 432.479 543.171 429.809 543.171 427.024C543.171 424.239 544.277 421.568 546.246 419.599C548.215 417.63 550.886 416.524 553.671 416.524H593.671C596.456 416.524 599.126 417.63 601.096 419.599C603.065 421.568 604.171 424.239 604.171 427.024C604.171 429.809 603.065 432.479 601.096 434.448C599.126 436.417 596.456 437.524 593.671 437.524Z" fill="#3F3D56"/>
<path id="Vector_70" d="M623.331 560.55L589.937 490.06L590.389 489.846C592.703 488.75 595.211 488.12 597.768 487.992C600.326 487.865 602.884 488.243 605.295 489.104C607.707 489.965 609.925 491.293 611.823 493.011C613.722 494.73 615.263 496.806 616.359 499.12L633.056 534.366C634.153 536.68 634.783 539.187 634.91 541.745C635.037 544.302 634.659 546.86 633.798 549.272C632.937 551.683 631.609 553.901 629.891 555.8C628.172 557.698 626.096 559.24 623.782 560.336L623.331 560.55Z" fill="#3F3D56"/>
<path id="Vector_71" d="M631.829 535.479C637.786 533.277 639.899 524.142 636.548 515.077C633.196 506.012 625.65 500.448 619.693 502.65C613.736 504.852 611.623 513.987 614.974 523.052C618.326 532.117 625.872 537.681 631.829 535.479Z" fill="#3F3D56"/>
</g>
<g id="right-arm">
<path id="Vector_72" d="M590.182 430.523C588.422 431.523 586.465 432.125 584.447 432.286C582.43 432.447 580.401 432.164 578.505 431.457C576.609 430.75 574.891 429.635 573.472 428.192C572.053 426.749 570.967 425.012 570.292 423.104L458.864 415.568L472.808 394.14L579.619 404.976C582.9 404.054 586.405 404.367 589.469 405.857C592.534 407.347 594.946 409.909 596.248 413.058C597.55 416.207 597.652 419.724 596.534 422.943C595.416 426.162 593.156 428.859 590.182 430.523V430.523Z" fill="#FFB6B6"/>
<path id="Vector_73" d="M404.946 333.552C404.946 333.552 388.033 338.781 392.061 358.644C396.09 378.508 446.936 415.981 454.951 422.266C462.965 428.551 529.662 420.079 529.662 420.079L546.89 398.11L481.934 388.925L404.946 333.552Z" fill="#843C5A"/>
</g>
</g>
<g id="hair">
<path id="Vector_74" d="M471.853 267.901C467.388 270.1 462.332 266.913 458.426 263.742L459.824 264.925C453.046 271.656 449.944 281.272 448.477 290.722C447.008 300.161 446.933 309.8 445.058 319.177C443.182 328.544 439.186 337.977 431.602 343.781C421.441 351.554 407.313 351.207 394.722 348.986C394.554 348.953 394.398 348.929 394.23 348.897C397.511 339.099 398.779 328.74 397.958 318.441C394.696 328.804 389.059 338.262 381.495 346.061C373.14 343.854 364.977 340.975 357.086 337.45C351.981 335.164 346.476 332.022 345.01 326.621C343.541 321.262 346.767 315.591 351.122 312.152C355.477 308.714 360.847 306.888 365.824 304.419C370.792 301.961 375.698 298.48 377.644 293.28C382.133 281.319 368.856 267.782 373.855 256.018C376.32 250.233 382.471 247.037 388.258 244.562C397.093 240.793 406.172 237.627 415.434 235.083C423.565 232.849 432.06 231.09 440.38 232.414C448.699 233.738 456.888 238.706 459.958 246.563C464.963 248.197 470.277 250.042 473.521 254.208C476.764 258.363 476.58 265.576 471.853 267.901Z" fill="#2F2E41"/>
</g>
</g>
<defs>
<linearGradient id="paint0_linear_9_361" x1="459.587" y1="65.2027" x2="459.587" y2="940.169" gradientUnits="userSpaceOnUse">
<stop stop-color="#B5DCF9"/>
<stop offset="1" stop-color="#EFC8D0"/>
</linearGradient>
</defs>
</svg>
