<svg width="713" height="439" viewBox="0 0 713 439" fill="none" xmlns="http://www.w3.org/2000/svg">
<path d="M591.584 0.437866H147.108C116.188 0.437866 94.6341 0.458973 77.8538 1.82675C61.3911 3.16865 51.9329 5.67022 44.7687 9.31199C29.4127 17.1179 16.9277 29.5734 9.10345 44.8933C5.45313 52.0407 2.94574 61.4768 1.60065 77.9008C0.229662 94.6417 0.208496 116.145 0.208496 146.992V150.112C0.208496 175.763 0.223823 243.616 1.2005 257.609C2.15856 271.335 3.94836 279.374 6.55505 285.577C14.3296 304.078 28.6771 319.064 46.8455 327.661C52.9371 330.544 60.9046 332.696 74.6037 334.281C88.57 335.896 106.446 336.731 132.131 337.908L456.6 339.58C491.71 341.189 524.206 358.559 544.996 386.831C549.444 392.881 579.486 440.659 584.975 438.357C586.254 437.821 586.501 437.252 586.292 435.982L585.041 428.391C577.551 382.928 614.521 344.665 656.659 337.144C687.824 331.582 712.552 308.362 712.552 276.777V121.122C712.552 82.6942 712.277 69.2746 709.281 59.0373C701.473 32.3554 680.56 11.4915 653.815 3.70107C643.553 0.712057 630.102 0.437866 591.584 0.437866Z" fill="#A5DFD5"/>
</svg>
