<svg width="551" height="359" viewBox="0 0 551 359" fill="none" xmlns="http://www.w3.org/2000/svg">
<path d="M121.267 0.556152H403.984C434.951 0.556152 456.538 0.577291 473.344 1.94716C489.831 3.2911 499.304 5.7965 506.479 9.44383C521.859 17.2617 534.363 29.7362 542.199 45.0795C545.855 52.2378 548.366 61.6883 549.713 78.1374C550.114 122.741 550.114 134.033 550.114 177.685C549.154 191.431 547.362 199.483 544.751 205.695C536.965 224.225 522.595 239.234 504.399 247.844C498.298 250.731 490.319 252.887 476.599 254.474C462.611 256.092 444.708 256.927 418.984 258.106L256.457 259.781C221.293 261.393 188.748 278.789 167.926 307.105C163.471 313.163 133.384 361.015 127.886 358.709C126.605 358.172 126.358 357.602 126.567 356.33L127.82 348.728C135.321 303.195 98.2951 264.873 56.0925 257.341C24.8802 251.771 0.113953 228.516 0.113953 196.882V121.425C0.113953 82.9381 0.389207 69.498 3.38984 59.2451C11.2105 32.5225 32.1555 11.6266 58.9411 3.82434C69.2182 0.830761 82.6899 0.556152 121.267 0.556152Z" fill="#F9EAB5"/>
</svg>
