<svg width="713" height="389" viewBox="0 0 713 389" fill="none" xmlns="http://www.w3.org/2000/svg">
<path d="M591.447 0.421448H146.971C116.052 0.421448 94.4978 0.442554 77.7175 1.81034C61.2548 3.15223 51.7965 5.65381 44.6323 9.29558C29.2763 17.1015 16.7914 29.557 8.9671 44.8769C5.31677 52.0243 2.80936 61.4604 1.46427 77.8844C0.0932876 94.6253 0.0721436 116.128 0.0721436 146.975V150.095C0.0721436 175.747 0.0874585 193.6 1.06414 207.593C2.02219 221.318 3.81204 229.357 6.41873 235.56C14.1933 254.062 28.5408 269.048 46.7092 277.645C52.8007 280.527 60.7683 282.68 74.4674 284.264C88.4337 285.88 106.309 286.714 131.994 287.891L456.464 289.564C491.574 291.173 524.069 308.543 544.859 336.815C549.308 342.864 579.349 390.643 584.839 388.341C586.118 387.805 586.364 387.235 586.155 385.966L584.905 378.374C577.415 332.911 614.384 294.648 656.523 287.128C687.687 281.566 712.416 258.346 712.416 226.761V121.106C712.416 82.6778 712.141 69.2582 709.145 59.0209C701.336 32.339 680.423 11.4751 653.678 3.68465C643.417 0.695638 629.966 0.421448 591.447 0.421448Z" fill="#A5DFD5"/>
</svg>
