<svg xmlns="http://www.w3.org/2000/svg" width="950" height="636" fill="none"><path fill="#000" d="m748.8 168-.2-1.1v-.5l-.5-.8-.9-1.3-1.3-1.5c-.7-.8-1.4-1.6-2-2.6a9.2 9.2 0 0 1-1.7-2.1l-1.4-1.5-.5-.7v-.3l.4-.6.2-.3.5-.3s.3-1.8.6-2.6l.3-1.2v-.5a44.6 44.6 0 0 1-.5-2c-.3-.4-.8-1.8-.8-1.8l-.2-.6-1.6-2-1-1.2-.9-1.1c-.2-.5-1.8-1.5-2-2l-1-.7-.4-.1-2.7-.7-1.4-.8c-.3-.2-1-.3-1.2-.3l-.9-.1v-1l-.5-.3-.4.2c-1.4.2-2 .7-3.6 1l-.8.3v-2.7l.1-.7c-.2-1-.3-1.4-.3-2.4v-.6l-.6-.8-.8-.2c-.8-.2-.4-.2-1.4-.6H717.5l-2.4-1-2-.6-.7-.8-.5-.6a41.4 41.4 0 0 1-3.2-3.5l-.4-.2c-1-.9-1.8-1.3-2.5-2-.8-1-1.2-1.7-1.6-3l-.5-1.2-.2-.4c-.5-1.2-.8-2-.8-3v-.1c-.4-1.1-.5-2.3-.7-3.5l-.5-2.5-.3-.4v-2.7l.2-1.5.8-3.5c0-.8.2-1.5.3-2.3v-.2l-.1-.3-.4-.9-.2-.6-.1-.1-1.6-2.4a4 4 0 0 0-.3-.4c-.6-.3-1-.4-1.6-.5-1.6-.3-3-.9-4.5-1.7l-3.5-.7c-.5 0-1-.2-1.2-.8l-.5-2.1v-.1c-.7-.9-1.2-2-1.7-3.1l-1.9-2.4-1.6-1.4-1-.2a52.2 52.2 0 0 1-9-3.5h-.1l-4.2-1.2-1.3-.3-.1.2v-.2l-7-1-3.7-.7c-1 0-1.8 0-2.6.2a53.8 53.8 0 0 1-6.5 1.9h-.1l-1.8 1.5a238 238 0 0 1-4 3.3l-.4.2c-1 1-2.1 1.8-3.3 2.3l-1.8 1.8-.7.7a31.9 31.9 0 0 1-7.6 10.3l-.2.4-.7 1.4a54 54 0 0 1-2.3 3.7l-3.7 2.7-4.7 3.4-8.5 8.4H607.7l-.1.1a712.3 712.3 0 0 1-15.3 8.4l-9.2 4.9-1.7.8c-5.6 4.1-12 7.1-18.4 10l-2 1h-.1l-1.2 1.5-3.7 4.6a118 118 0 0 1-3.2 3.6c-2.2 2.8-1.6 2.1-3.4 4.8l-1.3 1.5-.2-.2s-1 1.6-1.5 2l-1.2 1.4-1.2 2.7c-.3.4-.2 1.3-1 1.8l-2.1 1.7-2.1 1.4-2.8 4-.7 1.8c-1.4 2.4-1.4 3-3.1 5.2-.7.9-2 3.4-2.7 4.4-1.5 3.4-3.2 6.7-4.6 9.6v.1c0 1.5-1 4.3-1 5.5-.2 2.8-1 5.7-2.5 8.6v.1a45 45 0 0 1-.5 2.3l-.2 2.4c0 .6 0 1.1-.2 1.7v.2h.1l.1.3.1 4.4c.1 2.3.2 4.8.1 7.1v.1a60.4 60.4 0 0 1 2 11.8l-.3.1v.2l.9 7-.1 1.3v.3c0 .5-.3.4-.2.8.6 2.9-.6 4.9-1 7.4-.1 1.7-.3 2.4-1.2 4.5-.2.3-.1 1.7-.5 2.1l-.4.5-.1 1.5-1 2.1c-.5 1.7-.8 3.5-1 5.2l-.7 3.6-.2.3c0 2.7-.7 5-1.8 7.4l-1 2.3c-.8 1.7-.9 2.7-1.9 4.2v.6l-.1.7c0 .4-.7 1.8-.8 2-.4.6-.3 1.2-1 1.7l-.8 1.7c-.2 0 0 0-.1 1-.2 1 0 1.3-1 1.9l-.6.9c-.5.7-.7 1-1.2 2.2-.8 1.9-1.2 3.4-2.5 5.8-.1 1.4-.8 2.9-1.7 3.4l-.3.3h.1c-1.3 1.5-1.6 2.9-2.8 4.4-.2.4-1.3 1.3-1.4 1.6-.4 1-1.4 2.3-1.9 3.4-.1 1.2-1 2-1.3 2.8l-1.8 3-1.2 1.6v.1l-.2.9c-.4 2-1.1 1.4-2.2 3l-.6 1.2c-.3.6-.3 1.7-.8 2.1v.1c-.5 1-1.3 1.8-2.2 2.7l-1 1.2-2.3 2.6s.2 0-.2.7a102 102 0 0 0-3.3 6.2l-.2.4c-.6 2-1.6 3-2.4 4.3-.4.6-.8 1.7-1.3 2.2 0 0-.5 1.8-1.2 3.4l-.7 1-1.1 3.4v2.4l.7 2.5v1.6l.1 1c.5.8-.8 4.1-.7 4.7v.9l.6 1.1.7.8c1 1 1.6 1.3 2.4 2.8.5.5 1.1 1.2 1.6 2l.9 1.3c.6.6.6 1.8.9 2.4.5.9 0 4.3 0 5.2l-.2 1.1v.1l.2.4.2.4v.3l-.2.2h-.2v2.3c.1 2.1.2 4.3-.2 6.4l-.9 3.5c-.2 1.3-.2 1.5-1 3.1l-.6 2.1c0 2.2-.1 2.7-.2 4.2v.8l.3 1.4c1 2.3 1 4.5 1.4 6.6v.2l-.1.1v.2c.2.6.2 1.3.3 2l.8 3.8.2 1.5v.1l.4.8v.1l.3.3.5 1.2.3.4.5.8c.3 1.1.7 1.7 1.2 3 .3.7.8 1.4.8 2.2 0 .3.8 1.6.5 1.7l-.2.6c.5 1.4.6 2.6.7 4.2.5 2 1.2 4 2 6 1.3.6 2.5 2 3.5 3.4 1.3.6 2.6 1 3.7 2 .3.3-.7 1.1-.9 1.4 0 .5-.3 1-.3 1.6.3.4 1.9 1.4 2 1.8 1.8.5 3 .6 4.8 1.5 2.6 0 5.7-.3 8.3 0 1.3-.7 2.9-.8 4-1.2 2.3.1 4.1.3 6.2.8 2.2-.5 4.4-1 6.6-1 1.6 0 2.7.9 3.7 1.9a17 17 0 0 1 5.1 2.3h9.4c2.5-.6 5-1 7.6-1.4l3.4-2.4.7-.8c1.2-1.6 2.5-3.1 3.8-4.5H558.5a28 28 0 0 0 2.7-1.5c1.4-1.2 2.9-2 4.4-2.9l.4-.3.6-.4c.1-.1.1 0 .2 0h.3v-.2c.2-.3.6-.7 1.2-.8.3 0 8-3.2 10-4l.6-.2c1.1-1.4 2.2-2.7 3.5-3.9v-.2c1.1-2.4 2.2-4.9 3.9-7h.2v-.2l.9-1.3.2-.2.4-.6 1.1-1.5.3-.1h.3v-.3l.1-.2a36 36 0 0 1 3.4-1.5l2-.8.2-.1a18 18 0 0 0 5-3.3c5.3-3 11-6.3 15-9.6v-.1l.4-.5 1-1.3c1.3-1.8 2.6-3.7 4.2-5.3 1.4-1.3 3-2 4.8-2.8l3.2-1.6.3-.1.2-.1a74.6 74.6 0 0 1 4-4.9 75 75 0 0 1 3-3.7l.3-.3.7-.8-.2-.2.3.2.4-.6c.6-1 1.2-2 1.9-2.6l2.2-.8v-.2.2h.2a23.1 23.1 0 0 0 4-2.8 25.8 25.8 0 0 1 5.8-3.4l.8-.8 1-1 .1-.1a18.4 18.4 0 0 1 2-3.4l.2-.7.5-1 1.4-.6c.3 0 .6-.2.8-.3l.9-.6.3-.3.4-1.8c2-.7 1.3-.5 2.2-1.1l2-4.7.4-.5c1.7-2.2 3.7-4.2 5.2-5.7l5.2-6.9c.5-1.7 1.1-3.1 1.7-4.4v-.1l.1-.1v-.2l.2-.2h.2a272.4 272.4 0 0 0 11.8-12.7l3.7-7a40 40 0 0 1 3.7-8l.1-.9c.5-2.7 1-5.2 2.5-7.4.5-3 1-5.1 1.7-7.1V300s-.2-.3 0-.4c1.2-1.7 1.8-3.7 2.4-5.6.4-1.2.8-2.5 1.4-3.6v-.4l.2-1.3c0-.3.2-.6.3-.8l.2-.2v-.3l.1-.3.2-.2-.1-.3.1-.8v-.1c.1-3.1.9-6.5 1.6-9.3.6-2.3 1.3-3 3-4.5l.4-.4c1.2-1.1 2.2-2.5 3.2-3.8l1.2-1.5v-.1l.7-4c.5-.9 1.3-1.7 2-2.4l1.3-1.4 2.5-3.7.1-.3 1-.7.3-.2.1-.2c1.3-2.4 4.3-4.1 6.9-5.6l1.3-.8 2.8-1.5.7-.4 2.7-1.5h.1l1.5-2.4.2-.3 1.1-1.7 1-1.5 1.4-2.9v-8.1c-.2-1.9-.5-2.9-1-4.7l-2.1-4.2-.1-.1c-1.3-.7-2.7-1.4-4-1.9h-.2l-2.1.4c-1.4.3-3.6 2.3-5 2.5-.2 0-.5-.2-.7-.5v-.2h-2.5l-.3-.3c-.9-1.2-1.9-2.3-2.7-4l-1.6-3c-.7-1.2-1-1.6-2-4.6a150.5 150.5 0 0 0 1.5-8.6v-.2l-.2-.7-.3-1.1c.6-1.1 1.6-2.5 2.5-3.8 1.2-1.6 2.3-3.2 3-4.5l.4-1 .5-1.5.1-.2c.5-.6.8-1 1.5-1.6l4.6-1.3h.1v-.2l.6-3.3c.2-1.6.4-3.1.9-4.8v-1.6c0-.4.1-.6.3-1v-.1a9 9 0 0 1 .7-2.5c.4-.1.5-.3.8-.5l1.2-.9h.4l.8-.4h1.1l1 .3 1.4 1s-.1.2 0 .2l.1.5.3.8v1l.2.8.8 1 2.4 1c1-.3 2-.6 2.5-1.6.3-.6.4-1.4.6-2v-.3l.2-.8Zm-21.5-29.7.7-.9 1 .6 1 .7 1 .4 2.4.7 2.4 1.5.8.8 1.4 2 1.3 1.3c.4.6.6.7.9 1.4l.4 1.7-.1 1-.3.8-.4-.7h-.2v.6c.1.2 0 0 0 .1v.5l-.4.5-1.1.3-1.6-.3-1.6-1.4c0-.1-.6-.2-.8-.5l-1.1-.7-1-1.5-.6-.5c-.1 0-.4 0-1.4-.4-.4-.8-.6-1.8-.9-2.8l-1.6-3-.3-1.2.1-1Zm-.7 2.7 2.3 4.5.3 1.4c.2.4 1.2 1 1.3 1.5l.2.6.8 1.2.6.5c0 .1 0 .2.2.3 0 .3.4.7.4 1 0 .2.2 3.5 0 3.7l-.2.8s-.7-.3-1-.2c-.1 0-.3-.2-.5-.1l-.6-.2c-.2-.1-.2 0-.3-.2h-.6l-.8.3-1-.5c-.1-1-.6-2.1-.7-2.5l-.2-.4-.2-1 .3-.4.3-1.3.1-.5V148l.1-.4-.8-1.7v-.6l.2-.6-.1-.4-.5-2.2s.3-1.7.4-1.2Zm-.8 22.8.1.3c-1.3 2.3-1.7 3.6-2.8 5.7l-1.3 1.4c-.3.5-.7 1-1.2 1.3v.1c-.7 1.5-1.8 3.4-2.8 5-1 1.7-1.8 3-2 3.9l-1 1.2c-.5.9-1.2 1.7-2 2.6l-.9.3-.5.1c1-2.5 1-3.5 1.4-5.7v-1.2c-1-.9-2.8-1.9-4.5-3-1-.2-2.1-1-3.1-1.7-.7-.5-1.3-.9-1.7-1l-1.9-.7-2.8-1.1h-.2c-4.4 0-9.1 0-14 .3-1.5 0-3.3-.2-4.7 0-2 .3-4 .5-6 .4-1.7.8-3.3.2-5 .8l-6.2 1.7c-1.5.5-4.8 2.3-6.3 2.8-2.2.8-4 1.2-6.3 1.8l-.1.2c-1 1.4-4.5 2.9-6 3.8l.4-.7v-.1c0-1.5 1.2-3.4 2-4.7l.6-1c1.4-2.7 3.6-4.6 5.6-6.3l.1-.4.3-.8.5-.2.4-.1c1.3-1.7 2.9-3.1 5.3-5l2-3.5.6-.8c1.7-3 3-5 6-6.7l2.6-1.6c2.6-1.8 5.6-3.7 8.4-3.9l.6-.3c3.1-1.6 6-3 9.6-2.9 1.9 0 3.8.4 5.6.7a74.4 74.4 0 0 0 5.5.8c3-.2 5.7 0 8.2.2 1.6.2 4 .7 5.8 1.6h.1l2.2.2 3.4 2 2.3 1.2h.1c.6.9.7 1 1.3 1.4l1 .6.9 1.8a27 27 0 0 0 .6 3.8l.3 1.5v1.5c0 .6-.2 1.2-.5 1.8v.5ZM632.2 183l-.2-1.4v-.2c-1-2.3-1.8-4.6-1.6-7v-.1l-.1-.1v-.1c-.2-.6-.3-.7-.3-1.3l.1-.2h.2v-.3c.4-1.6 1.3-3.3 2.5-4.6l.1-.2c.2-.7.5-2.3.8-2.6 1-1.4 3-3 5-3.6.7-.6 1.4-1.1 2.2-1.4 1-.5 2.3-.5 3.5-.6 1.2 0 2.4 0 3.6-.5l.5-.3 1.3-1 .4-.3 1-.8v-.1l.4-.3.6-.7c.5-.7 1.3-1.6 1.9-1.6h.2c.5.2 1.2 1.2 1.9 2.5.7 1.4.4 2.9 0 4.4l-.2.2h-.2v.1l-.4.3-.4.4-2.2 1.7c-1 1.2-2.2 2.3-3.4 3.4l-2.4 2.4-.2.3-.1.3-1.5 2.8v.1c0 .2 0 .3-.2.3l-.2.2-.1.2a31.2 31.2 0 0 1-4 7.3l-.1.1c-.7 1.8-1.3 3.1-2.2 4.2-.4 1.4-1 .8-1.5 1.5l-.1.1-.1.6c-.5 1.2-2.7 2.1-4 2.5h-.2l-.1-.2c-.2-.8-.3-1.6-.3-2.7v-.4a11 11 0 0 0 0-3.3Zm-13 6-1-2.8v-.1a8 8 0 0 1-1.6-1.9c-1-1.6-1.6-3.6-2.1-5.5l-.2-.9h-.1l-.1-.2-.1-.8v-.2l-.2-.1-.2-.2v-.2c-.3-.7-.4-1.2-.4-1.7V173.9h.1v-.1l.2-.2v-.6h-.3v-.4c1.6-3 3.3-5.4 5.1-7.4l.2-.4.7-1.4.1-.1h.2v-.1c.6-1.4 1.4-2.6 2.3-4l.3-.4c.6-1.3 1.5-3 3-4.3l8.6-5.7c3.5-1.1 12.1-3.2 17.2 3.3l.1.1.2.4-.2.2c-1.3.1-2 .8-2.9 1.5a8 8 0 0 1-1.5 1.2c-1 .5-2.3.6-3.5.7h-.4c-1.4.2-2.9.4-4.3.4h-1.1l-3.7 3.4-.4.5v.1l-.1.3-.3.1v.1a52.2 52.2 0 0 0-4.8 7.7l-.4.8-.8 1.7v.1c0 1.4.2 2.7.4 4l.2 2.4c.3 2.2.4 4.5 0 6.6v.1l.6 3.3.3 1.4c.9 1.3 1.8 2.3 2.7 3.8l.5.5-2.8.4c-.4.3-1 .8-2.8 1.6l-.3.2c-.5.4-1.4 1.1-2 1.2-.6 0-1.4-.2-2.2-.5l-1-.3c-.2 0-.2-.2-.2-.3 0-.9-.3-1.9-.5-2.8-.3-1.3-.5-2.6-.4-3.8v-.1Zm-6.3 8.6v.1l-.1 1.4c0 .1-.1.3-.3.3-1.7 0-3.6.5-4.9 1h-.1a15.2 15.2 0 0 0-2.8 7.8c-.2 2.2-.6 4.5-1.4 7.4v1.5c-.1 2-.2 4.2-.6 6a18 18 0 0 1-4.8 7.8l-1 1.4c-.5.4-1 .6-1.6.8h-.3l-.5.2-1 .3c-1.3.6-1.7 1.1-2.2 2l-.5.8c-1.4 2-3.2 4-5.4 6l-1 1c-1 1-1.4 2-2.4 3l-1.5 1.8-.5.7v.3l-.2.2-.2 2.3a12 12 0 0 1-1.6 4.5v1l-.1.2-.2.1c-1 .5-1.8 1-2.9 1.3h-.4a24.6 24.6 0 0 1-6.5-7.2l-1.5-4.7-3.5-10.2-.8-2.6a95.7 95.7 0 0 1-4-18.1v-.1c-.8-1.5-1.6-3.3-2.4-5.3a11 11 0 0 1-.8-5v-.2l-.2-.2.2-2c0-1.5.1-2.8.5-4 0-1 .2-2.3.5-3.5v-.5c.3-1.1.6-2.4 1.5-3.2l1-1 2.6-2.4 5.5-2.6 6.9.2 1 .7 1 .7.8.8c3 1.6 7.2.9 12.6 2.6h.1c3-.4 5.7-1.3 8.4-2.8h.1v-.2c1.6-2.7 2.7-2.4 4-3.6l3.6-1c1.3-.7 2-.9 3.2-1.8.2 0 .4-.2.5 0l.2.2h.1c.7 0 1.2.6 1.7 1.1v.2c.1 2 1 3.1 1.3 5v.1c.6.7 1 1.6 1.2 2.4l.3.6c.3.9.7 1.8.6 2.6-.2.7 0 1.2-.5 2l-.5.8-.1.3c-.2.2.1.6 0 .8h-.1Zm-16.2 41.7c-.3 2.1-1.4 3.6-2.2 6.1A25.5 25.5 0 0 1 585 258l-1.2 1-.6-.2c-.2-.1.8-3.9.8-4 0-1 2.5-4.7 3-5.9l4.8-5.9c1.5-1.6 2.7-2.9 4.2-4h1l-.2.5ZM721.1 142l.4-.6c.2-.2.6-1.7.8-1.9.2 0 .2-.7.4-.7l.5-.4a44.2 44.2 0 0 1 1.2-.6l1.5-.8c.2 0 .2.2.4.4-.1 1-.6 1.8-.8 2.6l-.3 1.9v1l.3 1V146.3c0 1 .5 2 .4 2.3l-.6 1.8-2.6-2.4-1.7-1.4-1.8-.6.2-.9c0-.3.8-1.2.8-1.5l.4-.8.5-.8Zm-243.9 224-1 1.8h-.2v-.5h-.1v-.4l-.1-.2v-.5c.1-.7 0-1.1.2-1.9V363l.3-1.2c.1-1 .4-1.2.7-2.1 1-2.5 1.4-3 2.5-6l.4-.8.5-1.2c.6-1.5 1-2.5 2.1-4.1.5-1.2.8-2.3 1.1-3.5.3-.7 1.5-2.2 1.8-3 1.2-3.5 1.7-3.1 4.3-5.6.3-.3.4-1.2.7-1.5h.1v-.1l1.4-1.6.2-.3v-.2l1.2-3.1v-.2l.1-.5.2-.2h.1l.1-.1c1-2 2.4-3.4 3.6-5.3l.5-.7v-.1c.3-1.3 1.3-2.3 1.9-3.6l.2-.7v-.5l.3-.9c.2-.8.4-1.6.9-2.2 1-1.4 1.8-3.2 3-4.4l.3-.4 1.8-3 .8-2 .7-2.2c.3-1.3 1-2 1.6-3.2 1-1.8 1.7-4.1 3-5.7 1-1.1 1.1-2.2 2-3.2l.1-.2c.5-1 .3-1.7.8-2.7V286l-.1-.4c0-1.1.7-2.4 1.4-3.4l.4-.7c1.4-2.4 2.2-5 3.8-9 0-1.4.5-4.3.7-5.5v-.4c0-3.1 1.4-6 2.7-8.6l1.2-3.4.2-.5v-1.3l-.1-.4V250l1.5-6.1-.2-1.4-.5-3.9c-.2-2 .3-4.1.7-6.2l.2-.9v-.3a76.7 76.7 0 0 1-2.6-11.7c.2-2.4.3-3.6.6-5.2l-.1-.8-.5-1.8c-.2-.7-.5-1.5-.5-2.1 0-1 .5-2.1 1-3.2l.5-1 1.2-2.6v-.1a29.7 29.7 0 0 1 0-7.4h.4v-.3c.2-.6.5-1.3 1-2.1l1.5-2.8.3-.5 1-3.6 2.8-5.2.3-.6c.7-2.7 4.3-7.6 4.3-7.6l.1-.1a42.6 42.6 0 0 0 3.9-4.6c-.5 1.7-1.8 5.3-2.9 7.5a67.2 67.2 0 0 1-4 12c-1 4.8-2.5 11.6-3.3 16.2v.1c.7 3.8 1.2 7.3.7 10.7 0 .7-.3 1.4-.6 2.4.1 3.5.1 7.6-.7 11.5v.5c.3 2.4.4 4.9.4 7.6 0 2.4-.3 4.2-1 6.3l-.6 1.4a40.2 40.2 0 0 0-2.2 6.3 138.7 138.7 0 0 1-3.4 14.3 156 156 0 0 0-2.3 8.1c-.4 2.7-.9 5.6-2.2 8.1v.1a28 28 0 0 1-1.6 6c-.1.5-.4 1-.8 1.4l-.1.2v.4l-2.6 4-.3.6c-.6 1-1.1 2.1-1.8 3-.6 1 0 1.1-.6 2l-2 2.9c-.5 2.3-5.4 13-8.9 16.5l-3.2 5.3c-1 1.8-1.8 3.7-2.7 5.6l-1 2.1-.1.1v.2l-1.3 1.2-.2.1.3.1c-1 2.2-2.4 3-3.4 4.5l-3.1 3.9-1 1.1v.5c-.9 3.2-2.4 6-3.9 8.9l-1.3 2.6c-.4 1.3-.9 4-1.5 5.5h-.1v.2c-.4 2-.7 2.5-1.1 3.7l-.2 1.5v.3l-.3.2-.3.3Zm7.3 71.5-.6-1.4-.4-2.2-.1-.3-.1-.8v-.3a7 7 0 0 1-.2-1.3l-.4-1.2a9 9 0 0 1-1.3-2.7c-.2-1-.3-2.1-.3-3.3v-2l-.1-1.2c-.5-2-.2-4.5-.5-6.4.4-2 .8-2.9 1.3-4.7l1-11.4v-5.3c.2-.3.4-1 .8-2.6l.3-1.5.1.3.6 2.1.8 2.7.5 1.4v.2l.4 2.8c.1.8.3 1.7.3 2.6.4 1.5.3 1.7.4 3v1.2l-.2 2c0 .5-.2 1-.5 1.8l-.5 1.3c0 .4-.2.6-.4 1.2 0 .4-.3.7-.5 1l-.3.8v.7l1.4-.4.5-.6c.4-1 .4-.8.9-1.4.5-.8 1-2.1 1.7-3.8l.4-3.5c-.1-2.6 0-4.2-.3-7.8v-.2l-.2-.4c0-.5-.1-.7-.2-.7V394.2l-.2-1.3a25 25 0 0 1-1.5-5.7l-1.6-2.2a33 33 0 0 1-2.4-3v-.2h-.1l-3-2.1c-.7-1.1-1.4-2-1.8-3l-.6-1.2v-.8l.6-1.4.4-1 .2-.6 1.6-4.5c.3-1.8.8-3.6 1.6-5.4l-.3-1.7.4-2.1a7 7 0 0 1 1.5-2.8l.6-.7 1.4-2a187 187 0 0 0 3.8-8.7l.1-.1.3-.6.2-.5c1-2.1 2.7-4.1 4.2-5.9l.7-.8 2.4-2.8.5-1c1.2-4.4 2.6-5.6 5.2-10.5.5-1 1.3-2 2.2-2.7l.4-.3.6-1c1.5-2.6 2.9-5.1 4.1-7.6.4-1.6 1-2 1.4-3.6.3-1.1 1.5-2.5 1.8-3.6l-.3-.1h.3v-.2c0-.3.1-.5.4-.8 1.8-2.3 2-3.8 3.2-5.5.7-1.4 1.4-2.4 2.2-3.3l.4-.7 4.2-9.5c.1-2 .6-3.9 1-5.5l.4-1.1.6-2.4v-1.1c.1-.5.1-1.1.3-1.5l.7-1h.1v-.1l.2-1.2c.2-1.2.7-2.2 1-3.4l.3-.6a163 163 0 0 0 3.3-9.1l.3-1v-.8c0-1.4 0-2.8.4-4l.6-1.3.8-6.4c.5-4 1-8 1.7-12 .4-1.9 1.4-3.6 2.4-5.2v-1.7l-.1-.2c-1-2-2-4-2-5.9 0-1.2.1-2.6.3-3.8a41 41 0 0 0 .4-6V204c.2-3 1.2-5.1 2.5-7.6l.2-.3c.4-1.3.9-2.6 1.6-4.1a87.4 87.4 0 0 1 2.4-9.9v-1.3l1.7-5.4.5-1v-.1c.7-3.7 2-7.5 3-10.8 1-3 3-5 5.2-7.2l1-1 .1-.1.7-1.8a29 29 0 0 1 1.6-3.8l.3-.2H557.7c1.5-1 2.8-2.2 4.2-3.3 1.8-1.6 3.7-3.2 6-4.3a56.7 56.7 0 0 1 9.4-5.4c2.3-1.3 4.6-2.6 7-3.3l1.8-.4.2-.1.3-.1h.1c1.6-1.1 3.7-2 6-2.6l1.3-.5c1.4-.4 3-.7 4.8-.8h.2l.4-.3 1.5-.2 1-.1 3-1.2 1-.5 3.3-1.2 4.8-1.3h.1c3-2 5.9-4.7 8.9-6.3l2.2-1.2 1.5-1 .6-.3c.8-.8 1.8-3.7 2.6-4.4l1-2-2 1.4c-.8.6-1.6 2.6-2.6 2.8-.1.2-.7.5-1 .7l-2.3 1-1.8 1c-1.6.9-3.8 2.5-5.3 2.9h-.2L612 120a69 69 0 0 1-12.2 3.6v.3-.3c-.3 0-.8.2-1.7.7l-1.5.7-3.4.5 1.6-.7.8-.4 4.2-2c2.9-1.2 5.3-2.3 8.5-4.2l1-.7.6-.4 1-.9 4.1-3.9 2.7-2.5v-.1l.1-.1v-.2l.2-.1.3-.2.2-.2.3-.3 1.2-1.2.2-.2a12 12 0 0 0 2-1l.2-.1.3-.5a447 447 0 0 1 4-4.2l.5-.7c2.3-3.2 4.6-6.5 7.6-9.2 1-1 2-2.4 3-3.7 1.1-1.8 2.4-3.5 4-4.6l.7-.5.3-.2.2-.3.4-.7h.2c.3 0 .6-.3 2.1-1.6l1.2-1a34.4 34.4 0 0 1 4-1.8l1-.7c.7-.5 1.5-1 2-1 1-.1 2.6 0 3.9.2h.4l.4.1h2.5c2.5-.1 5.2.8 7.3 1.5h1.6c2.7.7 5 1.2 7.4 2.2l1.6 1c1 .4 1.8.9 2.8 1.6l1.8 1.3.8.6.6 1.6c.3 1 .8 2.2 1 3.2v.1a43 43 0 0 1 2.4 2.9h.1a26.5 26.5 0 0 0 8.3 2l.2.1c.4.1.7.4 1 .7 1 1.4 1.4 2.6 1 4l-.4 1.3-.5 1.8v.2c.5 2.5.8 4.7 1 6.7l-.1 2.2-.1 1.4.9 1.8c.5 1 .8 2.2.7 3.3v.2h.1l.2.2c.2.6.8 1.2 1 1.7v.3l.7.7 3.4 2.3 1.4 1.4 1.6 2.8.6.8 3.8 2.3c1.5.4 3.8.7 5.4.9l.4.5 1 .3.7 2.3c0 1.6-.1 1.8-.4 3.2l.2 3.2-.7 1-.7 1-.6 1-.3 1.6-.2.4-.4-.2-5.7-2.7h-.1c-2-.2-4.4-.7-6.7-1.2l-2.2-.6-2.2-.5-5.2-1c-3.5.3-8.1.7-13.2 2l-3.3.7c-3 .6-5.1 2.8-7.8 4.1l-3.7 2-1.8 1v.1c-1.7 1.8-3.4 3.7-4.9 4.9-.2.1-.6 1.6-.8 1.6h-.1l-.1.1-1 1.2-1.2-3-1-2c-2-1.8-4.1-3.6-6.4-5.2a17.8 17.8 0 0 0-9.4-3h-.1c-3.4 1.1-5.6 2-8.9 2h-.2a69.3 69.3 0 0 1-5.8 4.3c-1.6 1-3.3 1.4-4.8 2.6v.2c-.8 2-1.8 3.8-2.7 5.5l-.3.6c-1.4 2.7-3.1 5.6-5.1 8.8-.8 1.2-2.5 2.4-3.2 3.6l-.5.5v.2l-.4 2.5c-.1.2.4 1.6.2 1.9 0 0-.1.2-.3.2l-.7.2h-.1a18.2 18.2 0 0 1-4.8 3.6c-1.4.3-2.2.2-3.1.6l-.3.1-.3.2a4.5 4.5 0 0 0-1.5.5c-.2.2-.8 0-1.3.2l-.7.6c-.5.8-1.8 1.1-2.3 1.6l-.9.6-3.3.8H588l-.6-.1c-1-1-2.1.4-3-.4l-.3-.5c-1-.9-1.8-1.8-3-2.3l-.2-.3-.2-.1-.7-.3-.2-.3v-.2l-.3-.1-.3-.1-1.5-1h-.2c-1.6.2-3 .4-4.4.4l-3.3-.3-1 .1h-.3l-.8.4c-1.8.7-3.6 1.4-5.4 1.9l-1 .9-.8.7-.8.8c-1.1 1-2.5 2.4-3.9 2.7h-.2l-2 2.2-.2.3v.1l-.8 1.6-.7 1.5c-.3 2.2-.8 4.2-1.4 6.1v.2l-.2 3.7c0 2.2-.2 4.5-.4 7.3 1.3 4.7 2 7.8 2.4 11.8.2 3 1.1 4.4 1.1 7a116 116 0 0 0 3 9.9l.3 1.3a162.4 162.4 0 0 0 2.5 7.8l.1.7.2.3c0 .3.2.5.3.8l.2.4.2.2c.3.4 1.3 3.2 1.5 3.4 1.4 1.7 1.4 2.5 3 4l.7.9a28 28 0 0 1 1.8 1.8l1 1.3.6 1h.1c1.5.4 3 1.2 4.4 2l.8.5c1.3.8 2.7 1.3 3.9 1.8h.2c1.3-.4 2.5-.5 4-.5l1.7-.1c.8 0 1.5-.2 2.2-.5h.1c2-2.3 4.5-4 7-5.8l1.7-1.2 1.3-.9.2-.1 1-1.5.2-.2c1.2-2.9 2.4-5.8 3.3-9 .1-1 .3-.8.4-1.8l.1-.8.7-5.6v-1.6c0-1-.1-2 .1-2.7.4-1.1 1.2-2.3 1.9-3.4l.9-1.4v-.1c.1-1.3.6-2.6 1-3.8l.5-1.6.8-2.7 1.4-5.3a35.9 35.9 0 0 1 .3-6.6l.4-3.6c.2-1.1 1-1.7 2-2.4l.3-.2.2-.1 2-.6c1.3-.5 2.7-1 4-.9h.1l1.4-1.3h.3l.2.1h.1c1-.4 2.7-1 4.4-.8h.1l7.1-3.2h.1l.6-.6c.9-.8 2-1.7 3.4-2.5l2.9-2 .2-.2 2.9-4c.9-1 1.7-1.7 2.7-2.5.3-.3.9-1.1 1.2-1.2 2.6-.2 4.8-3 7.2-3.6h.1c3.1-1.8 14.8-4.9 19-6.4.3-.2.5-.3.8-.3l5.1.4c3 0 3.7.4 6.6.1l1.6-.3c.8-.2 2.2.3 2.9 0 1-.3 2-.7 3-.8l1.4-.2c1-.1 3.6.8 5.2 1l1.7.1c3.8 1 5.5 1.8 7.3 2.7l1.6.8c0 .2 2.3 1.6 2.3 1.8l-.1 1.1c-.3.9-.1 1.2-.3 2.1v.1c0 .6-.9 2.3-.7 2.7-.2.2-1.1-.2-1.5-.3l-1-.1-3 .6c-.7-.1-1-.1-1.7-.5l-1.2-1-2-1.7-.4-.1-.7-.6c-.7-.6-1.5-1.2-2.4-1.7h-.2l-1.9.3c-1.4.3-3 .6-4.6 1.2-3 1-6 1.2-9.1.7h-.2c-1.2.5-2.4 1.2-3.5 2l-2.8 1.6-2 1.1c-.9.5-1.7 1-2.7 1.4v.1c-3.3 3-6 7.2-11.4 8-2.2 1.7-5 4-7.3 7-1.1 1.2-2.7 2-3.9 3.4-3 3.7-6.8 7-10.1 10.1l-.1.2-.6 1.8c-.7 2.2-1.4 4.3-2.5 6.4v.1c-.2.8-1.3 2.5-2.6 4.2-.5.5-1.9 4.1-1.9 4.1l-1.2 7c-.6 7.3-1.7 5.9-1.7 15.6v.2c.9 3.2.8 6.5.6 10.4a87.6 87.6 0 0 1 1.6 5.6c1.6 2.6 2.6 5.1 3 7.6v.1l.8 2c.6 1.7 1.5 3.1 2.3 4.6l1 1.5.7 1.2v.3l-.1.1-.1.1h-.1v.2c-.1.9-.7 1.9-1.1 2.6l-.3.5-1.2 2.1v.2c0 .6.7 2.4.7 3.1v.6l1 2.4.8 2.1v.1c.7.7 1.5 1.6 2.1 2.8v.4l-.4.5-.1.1v.1c.6 1.7.2 3.8-.3 5.7l-.3 3s0 .2-.2.2-1.6.6-2.2 1l-.5.9-2 3.4-1.2 2v.2c-.3 1-.4 1.8-.3 2.6 0 .2-.1.2-.2.2h-.2c-.1.2-.3.2-.4.1l-1.3-.3h-.2l-2.4.3h-2c-1.7 0-3.3.1-4.9 1l-1.7 1v.1a12 12 0 0 1-3.7 4.1v.1a50 50 0 0 1-1.4 2V335.8l-.5.6-.2.3v.1l-.2 1.4-.1.3h-.2l-2.8-.1-1.4-.1H606c-1 .3-2 .3-3 .3h-.6a.8.8 0 0 0-.6-.3c-1.6.2-3.1.4-4.6.8-.4 0-.6.3-.7.8 0 .4-.1 1-.3 1.4h-.1l-.3.4-1 1v.2c0 .2-.1.2-.3.2-2.7 0-5.3-.7-7.3-1.4h-.2l-2.2.6-2.2.9c-1.4.5-2.8 1-4 1.8l-3.5 2.3c-2 1.4-4.2 2.8-6.4 4l-.2.1-.2.1-2 2.2-2 2.3-.4.5a74.6 74.6 0 0 0-3.8 8.3v.2l-.3 1c0 .2-.1.3-.2.3l-3.5.4h-.2c-.8 1-1.8 1.6-3 2l-.1.1v.1l-1.3 1.9v.1c0 .8 0 1.6-.2 2.5v.1s.1.2 0 .4v.1c0 .2-.2.2-.3.2h-.2l-1.4.7-1.3.6h-.5v.2h-.2v.3-.2h-.1l-.4.5c-.2 1.1-.6 2-1 2.8v3.2l-2.3 3a85.6 85.6 0 0 0-3.6 1.5l-.2.3c-.2.2-.4.4-.4.6l-1.4 2.1c-1 .5-2 .9-3 1-.4 0-.7-.1-1.1-.3l-2.5 1.3-.1.1-.2.2a13 13 0 0 1-1.1 2.1l-1 2.7v.1c.2 1.5.3 3.8-.1 6V404.6s0 .2-.2.3l-1.8.4-2.5 1.3c-1.1.6-2.2 1.2-3.5 1.5a18.7 18.7 0 0 1-5.4 2.8l-.7.6-2.2 4v.1l-.2 1.2-.1.6a22 22 0 0 0-.3 2.5h-.3a28 28 0 0 0-4.5-.3l-.3.1-.4.3-.6.6-1.1 1.2-.6.9-.3.4a29 29 0 0 0-2.4-.7l-.5-.5h-2.5l-1.2 1.3a29 29 0 0 0 .8 10.3c-.6.6-.8.6-1.3.8l-1.6.5h-3.1c-1.5.4-2 .4-3.6.4-.6 1-.5.6-.8 1.6v2.4l.3 2.5a19.4 19.4 0 0 1-1-1.3l-.2-.1-.1-.1h-.2l-.4-.3-.2-.2h-.1l-.2-.2-.4-.7c-.2-.5-.5-1-.7-1.1v-.1h-.1Zm199.8-242.7 1.4-.5c1.7-.9 5.5-2.9 8.2-2.4h.1l4-1c.2 0 .6 0 1 .3l.1.1h.2a9 9 0 0 1 1.2-.8c1.8-.8 3.5-1 5.4-.9v.2c.2.4-1.5 2.4-1.9 2.5l-.1.2c-.1.2-.3.3-.5.3l-2.5.9c-1.2.4-2.4.8-3.7 1l-.8.6a24 24 0 0 1-5 2.5c-.9.2-1.6.3-2.4.2-1.8-.1-3.5-1-5-2.7l-.1-.2.4-.3Zm-3.7-.7-.2.2-.2.3-1.2-.4-1-.9-1.6-.4-1.3-.8a17 17 0 0 1 4.2-3.4c1.6-.9 3.5-1.4 5.6-1.6l1.6.1 2-.2c1.8-.5 1.8-.3 3.1-.6a8 8 0 0 1 3.3 1.3c-.4.6-1.5 1.2-2.4 1.7l-1 .1a20.1 20.1 0 0 0-3.8 1c-2.2.7-4.4 1.8-7.1 3.6ZM644 254.4l.2.8.4.7c.9 2 1.8 3.9 2.4 5.9 1 1.3 1.7 2.6 1.9 3.4.2.8 0 1.6-.2 2.4 0 .3-1.7 2.6-1.7 3l-.1.5v.4c.1.2.2.4.1.6l-.6 4.4v1h-.1l-.2 1.7c.3 2 .2 4.2.2 6.3v1.6l-.1 3.2h-.5c-.6-.2-2.6-.5-3.2-1v-.2h-.7l-1.1-.3c-.5 0-.7-.3-1-.7l.7 1c-.3-.3-.7-.6-.8-1v-.1h-.2l-.2-.2-.1-.2v-.7c-.4-.5-.5-1.4-.6-2v-.4c-.6-3.7-2.4-7-3.4-10.7l-.3-.8.1-.3.2-.1v-.2c-.1-.6-1.5-3.4-1.5-4-.2-2.2-.2-4.8.1-7.6V260.5l-.1-.1c0-.6 0-1 .2-1.4v-2.1c0-2.1.2-4.2.4-6.3l.2-2.9.1-.2-.5-1.8 1-3.7.1-.2.1-.1v-.2a15 15 0 0 1-.2-1.7c.2-.2 0-.2.2-.2l.3.1 1.7 1.5.2.3.6.2 1.6 1.7.8 1a25 25 0 0 1 3.2 5.1 9 9 0 0 1 .2 4.6v.2h.2Zm-1 67-.1.1v2.5l.6 2.1v.2h.2l.2.3.3 2.4c.5 2.7 1 5.8-1.4 7-1.6.8-4.7-.6-6.8-3.4H635.8l-.3-.2-.4-.7c-1.1-.9-1.9-2.1-2.5-3.8V327.3l.1-.1v-.2c.6-1.9 1.8-6 3.3-6.6h.2l.1.2s2.1-.4 2.5-1.1c.1-.2-.1-.8-.1-1l-.2-.3-.2-.1v-.1l.1-.3h.1v-.2c.3-1.1.8-2.1 1.6-3.3v-.1l.7-2.1.1-.5c-.1-.2-.1-.3 0-.4l.2-.2.2-.5.2-.8.2-.2a5.4 5.4 0 0 1 5.2 2.5c1 1.5 1 3 0 4.4a5.6 5.6 0 0 1-2 1.8c-.7.6-.9.8-1.7 1.2h-.1v.1c-.3.4.1 1.6-.1 2Zm-6.8 17.3v.6l-.1.1H635.5v.1l-.3.1c-.8.1-1.7 0-2.6-.2h-.7c-.9.1-1.8.3-2.6.2h-1.1l-.6.5-.8.5-.2.1.1.3c.7 1.8 1 3.2 1 4v.3h.1l.4 1 .4 1 .3.7v.1c.2 1.3.3 2.6.2 4v.7l-.1 2.5-1 .2H625.4l-1.5-.3-2.4-.2h-1.1l-2.7-.2-1.6-.4-4-.9c-1.6-.3-2.7-1-4-2l-.6-.3c-1-.8-2.4-1.2-3.7-1.6l-1.8-.6c-1.7-.7-3.1-1.5-3.7-3.4 0-.2-.2-.4-.5-.5l.2-1c.2-1 1.2-2 2-2.5h.3l.4.5.3-.3h.8l1.3-.2a19 19 0 0 1 6.9.6c1.1 0 2.3-.2 3.6-.6h.2v-.3l.7-2.2.2-.4.1-2.1c0-.9.5-1.2 1.2-1.6l.3-.2v-.1c.8-1.8 2.4-3.2 4.8-4.2 2-.7 4.2-.6 6-.4H627.4l2.5-.2c.1 0 .2 0 .3.2l1 2.3.3.2c1.3.9 2.6 2.2 3.7 3.2l1.4 1.3v.3c0 .3 0 1-.2 1l-.1.2v.1ZM601.5 371c.2.2 0 .3 0 .4l-.1.2-.1.1v.1c0 .2-.2.3-.3.3h-.1l-1 .7-.1.2a5 5 0 0 1-1.1 1c-1.3.8-2.9 1.6-4.2 1.9-.8.2-1.5 0-2.6-.7-.5-.2-.9-.4-1.1-.8H590.5l-.1-.2-.1-.3V373.6c-.3-1 0-1.8.5-3 0-.8.1-1.5.3-2.1.2-1.2.4-2.4.3-3.7-.2-1.6-.6-3.1-.9-4.6 0-.6-.2-1.2-.3-1.7.2-1.1.4-2.1.8-3l.1-.3h-.2v-.4l.2-.1c1.7.1 4 1 6 2 2 .3 4 .8 6.2 1.7l.8-.2h.2c.7 0 1.5-.2 2.1-.4l.9-.2h.3l.3-.1c.1 0 .5.4 1.6 1.8l-.5.5-.3.3v.1c-.3.7-.4 1.4-.5 2.1v.4l-.2.1v.2l-.2.7c-.2.3-.8.5-1.2.7l-.2.1c-1.1.6-2.3 1.1-3.5 1.4l-.3.2-.7 1-.2.3v.1l-.3 3.2V371Zm-27 18-.2-2-.4-.9c-.3-.8-.5-1.6-.5-2.3h-.3l.3-.1.1-.4h.5c1.1.1 2.3.4 3.5.8h.6l3.1.6c1.5.4 2.6.8 3.6 1.3h.2c1.6-.6 2.2-.5 2.5-.2l.2.2 1.7 1.5h.3l-.2.1.1.1h.1a38.4 38.4 0 0 1 .6 5.5c0 .1-.1.2-.2.1h-.1l-.8.4a8 8 0 0 1-2.4.3l-1 .1h-.6c-.6.4-1.3.6-2 .8l-.4.4c-1.4 1.4-1.6 3.7-2.4 5.4-.1.2-.4.4-.7.4h-.8c0 .2-.2.3-.4.3-1.5-.4-2.8-.7-4.2-.7a9 9 0 0 1-1-2.6l-.1-.4-.1-2.5.2-.7.4-1.1.8-2.2V389Zm15.7-5.8v.3c0 .2-.2.3-.3.3l-.3-.1c-.2-.5-.4-1-.7-1.3l-.1-.1c-1-.4-2.1-.4-3-.4h-1c-.8 0-1.8 0-2.8-.4h-.1l-.2.1c0 .1-.2.2-.3.1l-1.5-.8h-.1l-2-.2-3-.8a29 29 0 0 0-2.4-.6h-.2v.2l-.8.7v.1l-1 2v.1c0 1.7.1 3.6.4 5.4V388c0 .5.2 1 .3 1.4 0 .2 0 .3-.2.4l-.4.2.4.3v.2a35 35 0 0 1-.5 5.3v.2l.5 1.8.1.4.4 2v.2l.2.2v.1l.2.2c.5.9.8 1.4.2 2l.2.2-.2-.2-.1.1-1 .7-.5-1.1c-.7-1-1.7-1.2-3-.7a8 8 0 0 1-.7-.3H566.4c-.2.2-.5.2-.8.2-.6 0-1.1-.2-1.7-.4a33.6 33.6 0 0 1-.9-.4h-.2c-1.3-.1-2.7-.4-4.5-1-.6 0-1.1-.2-1.7-.3l-1.8-.3h-.2c-.7.4-1.3 1-1.8 1.5l-.4.3v.4l.1.5c.2 1.7.2 3.3.2 5v1.6l.2 1v1c-.2.3-.6.4-1 .5l-.7-.8h-.2l-3.8-.4c-.6-.8-1.4-1.3-2.4-.9-1.2.5-1.3 1.8-1.3 3v2.2c-.2 1.6-.3 3.6.7 4.6.6.6 1.7 1 2.6 1.5l.2 1c0 .7 0 1.4-.5 1.8-.1.3-.5.5-.9.4-1.8 0-2.9-2-3.1-3.9a14.5 14.5 0 0 1-2.1-5.9l-.2-.8-.1-.5-.1-.3v.4a17.8 17.8 0 0 1-.6-1.7V410.7a6 6 0 0 1-.7-.7h-.1l-1.3-.8-1.8-.8s-.2 0-.2-.3v-.1l-.4-.7-.3-.4v-.2l-1.7-4.6-.4-1.2v-1.4c-.1-.6-.3-1.7-.1-2l.2-.2h-.2v-.1l.3-.7c.1-.3 1.4-1.5 1.7-1.6.5-.4 1.3-.4 2-.4h1.6c.2 0 .3.2.3.3v.1l.7 1.5.2.1c.8.4 1.6 1.1 2.3 1.8h.2c1.1-.2 2.3-.3 3.8-.3l.8.1h.4c.3-.3.8-.2 1.3-.2h1.1a8 8 0 0 0 2.5-.3l.3-.2h.1l.2-.1v-.5a16 16 0 0 1-.7-4.7l.1-.2v-.1l.4-1.4.4-2.4v-.2l-.1-.1c0-.9 0-2-.6-3-.3-.3-1-1-1.6-1a1 1 0 0 0-.6.2l-.8-.1a8 8 0 0 1-.4-.2l.8-3.3v-.2c-.2-.6-.2-2.4-.1-2.8h.7c.5 0 2.7-.8 3.2-1.1h.3l1.8 1.6.7 1.6c.1.4.4.6.8.6h1.2l1.5.5h.2l.1-.1.2-.2h1.6l.4-.1.3-.1 2-.3 2.6-.4 2-.5 5.1-1h.1l1.3-.7.2-.2h.1v-.2l-.3-2-.3-1.2v-4.7c0-1 0-2 .2-3 .1-.7.4-1.4.6-2l.6-2v-.3l.3-.8v-.2l-.3-.4-1.1-1.3a.3.3 0 0 1 0-.4V358a8.5 8.5 0 0 0-4.1-3.3.3.3 0 0 1-.3-.2c0-.1 0-.2.2-.3.9-.5 1.7-1.2 2.6-1.8 1.2-1 3-3 4.3-3.5 1.2-.3 2.5-.2 3.8 0h.4c2.8-2 5.5-3 8.4-3.5l.5-.1c1.2-.2 2.3.6 3.2 1 .6.3 1.2 1.3 1.9 2.9l.1.1.6.4h.1c1 .3 2 .8 2.7 1.3H599.8c.7.5 1.4.7 2.1 1l.8.1c1.4.4 2.7.7 3.5 1.9 0 0 .1 0 0 .2l-.2.2h-.2c-.6-.4-1-.7-1.6-.9l-.3-.1v.3l-.3.2h-.7v.2l-.3.7-.2.1s-.2.2-.4 0c-.7-.2-1.3-.7-2-1.2h-.2l-1.1-.2h-.3v.2a346.3 346.3 0 0 0-.4.7c-.3 0-.7-.2-1-.5l-.2-.1-.6-.5-1.4-1-.3-.2-.1.1-.3.4c-.2.1-.2.2-.3.1l-3-1h-3.1v.3c-.4 1.9-.4 3.9-.4 5.8v.6c.2 1.6.2 3 .2 4.3v.1c1 1.9 1.1 4.5.7 6.1-.2.5-.6 1-1 1.4l-.6.9v.4l.7 2.8c.8 1.6 2 3.1 3 4l.7.6v.4a8.6 8.6 0 0 0-.7 3.7h-.1Zm-36 19.3c-.1-.4.3-.8.7-.8 3-.2 5.9 1 8.8 1.2 1 .1 2 .2 2.9.6h.1c.6.2 1.1.4 1.5.8.2 0 .3 0 .3.2v.4l.2.4c.7 2.6-1 3.8-3.1 4.1-.2.2-.5.3-.7.2h-.3l-2.1-.2-.2-.1c-1 .3-1.5 1.2-2 2-.2.4-.3.9-.6 1.2v.1c-1 2-3.9 2.2-5.5 1v-.1l-.1-.1-.1-.1a.8.8 0 0 1-.2-.7l.3-.4.4-.5c.7-3 0-6.2-.3-9.2Zm-9.4 11.2v.3V413.2l-.1-.7c0-.5.2-1 .7-1h.1c.4-.2.8 0 1 .3l.3.2h.2l.1.1H549c.6 0 1.2.1 1.8.4l.2.1c1 .6 1.4 1.5 1.6 2.6.3 1 .5 3.4-.5 4.1-.2.4-.6.6-1 .5l-2.2-.8c-.5 0-.9-.1-1.2-.4-.6-.2-1-.5-1.5-.8-1.3-1-1.4-2.3-1.3-3.6v-.5Zm-55 22.7c2-.2 3.1.2 5.1 0h1.2l2.5-.8c.4-.2.6 1.2.8 1.5.4.5.7 1 .9 1.6.7 1.1.8 1.8 1.2 2.9l.3.6a55.6 55.6 0 0 1 1.6 2.6l.8 1v.1l.5.6.3.3c.3.6.8 1.2 1.3 1.7l.1.2.7 1.5c.4 1 1.1 1.7 1.7 2.7-1 .5-2.8-.1-4.8-.4l-2.8-.6c-.7-.4-1.3-.7-2-.7-1-.7-1.9-1.5-2.7-2.4l-.8-.8c-.9-.7-1.6-1-3-2.4a8.5 8.5 0 0 1-2-2.6l-.6-1.3c-.3-1-.7-1.6-.8-2.8V438.3c0-.2 0-1.9.4-2Zm15.4 6.5v-.4c-1.1-1.4-2.6-3.6-3.2-5.6a.8.8 0 0 1-.4-.5v-.6l-.2-.2a28 28 0 0 1-1.2-5.2v-.1a19.7 19.7 0 0 1-.7-3.8l-.2-1.7c0-.2.1-.4.3-.5 0-.5-.1-.5.4-.4 3.1.4 5.8 3.3 8 5.3l.6.5 1 .7 3.1 2a6 6 0 0 1 2.2.8l2.3 1.4c1 .6 2.2.6 3.3.9 2.6.5 4 2.6 5 4.8 2 2.5 2.8 5.5 1.3 9.7-.2.3-.4.6-.8.6h-.1c-1 1-2 1.2-4 1.3-2.4.2-5-.4-7.4-1.4H514.2c-.7-.1-1.1-.4-1.5-.9-1.4-.7-2.7-1.6-3.8-2.6a18.4 18.4 0 0 1-3.6-4Zm2-20.6c.7-.3 1.2-.6 2-.7 1 0 1.6 0 2.9.3.5.5 1.1 1.4 1.7 1.9l.6.2c.6 1 1.1 1.3 1.7 2.2l.7 1.2V427.7c1.3 1.4 3.1 3.8 4.1 5 .2.1-1.5-.1-1.6 0l-3-1a19 19 0 0 1-9.5-7c-.3-.4.3-2.3.3-2.4Zm18.4 12.7-.5-1-.3-.4-.2-.3-.8-1c-1-1-1.8-2.1-2.7-3.2l-1.8-3-1-1.9h-.1l-.1-.2v-.1l-.2-.3-1.4-3.1-.5-1.5h-.1v-.2l.1-.1.1-.1v-.6a8.3 8.3 0 0 1 2-3.3c.3-.4.6-.8 1-1 .2-.3.4-.3.6-.3l.7-.4c2.4-1.4 4.7-3.6 7.3-4.3 3.2-.9 5.7 1.2 7.3 4 .2 0 .2.4.5.5.2 0 .5.1.7.3h.3l.1.2c.4.8.6 1.7.8 2.8l.3.7c.5 1 1 2.1 1.4 3.3a22 22 0 0 1 2.6 7.2c.7 1.2 1.9 2.2 2.5 3.5 1.3 2.6 3.1 5 4 6.8 2.3 2 3 3 5 4.4v.1l.6.4c.3.2.2.7 0 1.1-.6 1.3-2.3 1.1-3.5.9h-4.2l-2.5-.4h-.6l-.2-.1-2.1-.5c-.2 0-.3 0-.5-.2a23.5 23.5 0 0 1-8-2.7c-.5-.2-1.5-1-2.4-1.7l-2-.7c-.7-.5-1.5-2.4-2.2-3.5Zm24-43.3.3 1.6-.1.6v.2c0 .4-.2.6-.4.8-.3.3-1.5.4-2.3.5h-1c-1.7.4-3.4.3-4.8.1l-.3-.5-.7-1.1v-1.4c-.2-1.2.4-2.2.7-3.3 0-.4.4-.5.7-.5.9-1 2-1.5 3.2-2 .1-.2.3-.2.5-.2 1-.3 1.8-.7 2.8-.6.3 0 .5 0 .6.2l.6-.1.3.2.2.5-.3 2.7-.1 1 .1 1.3Zm14.6-24.3V366h-.1c-.1-.1-.2-.2-.1-.4l.8-1.6.1-.2-.2-.2-.2-.2.3-2.4v-.2h.1l.1-.1c.4-.2 1-.9 1.7-1.7l2-2c1.2.2 3.3 1.3 3.7 1.5v.1l1.1 3.3c0 .2-.1.8-.7 2.5l-.1.2c-.3.8-.3 1.5-.2 2.3v1.2c0 1.7.7 6.3 1 7.5l-1.3.4-.8.2c-1.2 0-2.2-.2-3.2-.5H567l-2.7.2-2.2.3c-1.4.2-2.6.6-3.6 1.2h-.5a9.6 9.6 0 0 1-1.6-2l-.2-.2-.8-1c-.6-.6-2-2.3-2-2.6l1.3-1a31.6 31.6 0 0 1 1.3-1h.2l2.1.1c1.3 0 2.6.1 3.9-.1h.1l1.6-1.7.3-.4v-.1Zm73.7-71a7 7 0 0 1 1.1-3.5l.3-.2.2.2.1.1h.5c1 0 2.3 0 3 .8l1.2 1.5.4.5h.1c1.5.9 2 2.6 2.2 4 0 .3 0 .4-.2.5l-2.3 1.6-.8.6v.2l-.1.1h-.3l-.3.3-.4.2h-.1l-.2.4V304h-.3c-1.7.3-3 0-3.7-.9h-.1l-.2-.3v-.1h-.2l-.2-.3c-.4-1-.5-2.2-.5-3.3v-.1c-.2-.4-.4-.8-.2-1.3l.8-1 .2-.2v-.1ZM492.6 455c-1-.8-1.7-1.2-2.5-2.2l-.8-.6-1.6-1.7-.6-1.2-.5-.8-.7-2.2-.3-1.2-.2-.5-.1-.2v-.5c-.2-.5-.4-1-.4-1.5l-.1-.8.7-.1 1 .7 1.8 1.3c1.7 1.8 1.8 1.9 3.2 3.7l2.4 1.5 2 1.4c.2.4.2 1 .4 2 .1.8-.2 1.5-1.2 2.3-.8.6-1.6.9-2.5.7Zm17.4 5.9-2.3.4c-1.6.3-3.7.7-5.3.6-1.5-.1-3.4-.6-5-.9l-.9-.3-.3-.1-1.5-.8c-.3-.3-.6-.5-.5-.9l.5-1.2c.1-.3.8-1 1-1.1.4-.6 1.5-1.2 2.3-1.6.6-.3 1.4-.8 2.1-.7h.9c1.3.4 2.3.1 3.5.8l4.3 1.6c.3.4 1.6 1.5 1.7 1.8 1 1 .3 1.9-.5 2.4ZM723.2 249l-.7.8-.2.2c-.8.6-1.4 1-1.8 1.6l-2 3a18.5 18.5 0 0 0-4.5 4.4l-.1-.3.3-1 .2-1 3.4-5.7.3-.3.2-.2.4-.2.2-.1c1-.7 2.5-1.1 3.7-1.6l.6-.1v.5Zm16.9-84c-.7 0-1.6.3-2.7 0-.7 0-1.3.2-1.8.3 0 0 0 .2-.2.3-1 1.2-1.4 1-3.2 3.1-.5 1.1-1.1 4-2 5.3l-.2 1-.7 2.6v.2l-.3.6-.9.5c-.3 0-.6.2-.9.4l-1.1.8-.1.1c-.4.8-1.9 2.5-3.6 4.5-2 2.3-4.4 5-6.1 7.7h-.1v.2c-.2 4.2-.7 8-1.5 11.5l-.4 1.3v.1c0 .9.3 1.6.5 2.3v.2l.4.3c1 1.2 1.8 2.7 2.4 4l.9 1.9c.8 2 1.7 4 3 5.5h.2c2.9 1 5 1.7 7 2.7h.1l.7-.1c.5 0 2-2 2.5-2 1.3 0 2.8.2 4 .8h.3v.1l.5.4.8 1.7c.4.6.5 1.2.9 1.7 0 .7.3 1.3.4 2.4l-.3.9v.1l.7 2.7c-.2.6-.4 1.4-1 2.7l-.1.1c0 .5-.7 2.4-1.3 3.8v.2c.2.2-.5.6-.6.7v.2c0 .3-.3.7-.8.7h-.2l-.5.7-1.2 1.1-1-.2-1.7-.4s-.3.2-.4.1h-.1l-.4.1-3 1.8c-1.2 1-2.6 1.9-4 2.5l-.3.2-.6.2s-2 .4-2.9.4h-.2l-1.9 1-.5.3-1 .8-2 2.3c-.5.7-.8 1.4-1 2l-.2.8-.2.9-1 2.5c-.4 1.2-.9 2.3-1.1 3.5l-1 3.1c0 .2 0 .3-.2.5l-.1.3h-.2l-.4.2-.9 2.4c-.1.5-.4.8-.8 1h-.3l-.1.2a70 70 0 0 1-2.2 2.6l-.9 1-.1.3a167.3 167.3 0 0 1-3.6 8.7l-.5.8-1.3 2.4-.8 1.2-.1.2-1 1.6h-.1c-.8 2.4-1.7 4.7-2.7 6.8l-.2.5a40.8 40.8 0 0 1-1.2 2.4c-.4 1.8-1.4 3.2-2.5 4.7l-.8 1.2-.2.3-.4 1.2-.5 1.8-.1.2.2.1.4.1.1.1h.2l3-2.7h.1l.2-.4 2-2.9.9-2 1.5-3.3.4-.7 1-2.9.1-.2.1-.2.4-.4.2-.1h.2v-.1l.3-.5.8-1.4-.5 2a10.7 10.7 0 0 1-.6 4.3v.1l-.2.6a13 13 0 0 1-1.3 3l-.1.4.1.2a53.3 53.3 0 0 1-.5 7v.2l-.6 3.6v.4l-.1.5-.1.3v.2l-.3.5-.1.3c-.3 1.4-.6 2.6-1.1 3.7l-3 5.4-.1.2c-1.5 3.2-3 6-4.8 8.5l-.3.5c0 .2-.2.2-.2.3-2.2 3-5.3 7-9 10.9l-1.7 1.6-.3.4a65.8 65.8 0 0 0-2.4 2.9l-1 1.2-.4 1a52.4 52.4 0 0 1-4.1 9.8l-.1.1v.5a50.8 50.8 0 0 1-5 3.6c-1.4 1-3 2.1-4.5 3.4-2.4 3.3-2.7 7.1-5.4 9.7h-.1l-1.4 2.5v.6l-.2.2v.2l-.1.1-.1.2-.8 1.4v.2H648.2v.2c-2 2.4-5.3 3.8-8.4 5h-.2l-.2.1-1 .6h-.1c-1.3 1.3-2.4 2-3.5 2.7l-.2.1a19 19 0 0 1-2.4 3l-.2.2-1 2.4c-.7 1.2-2 2.3-3.3 3.4l-1.4 1.2.1.3-.2-.2h-.1l-.3.2-.7.6c-1.6 1.4-3.4 3-5.5 3.9l-.2.1-.3.2-.3.2-1.8 1-2 1.8v.2c-.3.8-1.4 1.9-2.1 2.5l-.3.3c-1 .9-2 1.7-2.8 2.6a126.2 126.2 0 0 0-7.7 7.2l-.6.6c-.7.8-1.4 1.5-2.3 1.9-2.1 1-4.6 1.6-7 2.3h-.2l-.4.2c-.5.2-1.1.4-1.7.4h-.1l-3 1.7h-.1v.1c-1.5 2.5-3 5-5 6.8l-.3.4c-.4 1.1-.9 2.3-1.7 3.2l-1.2 1.2v.1c-.9 2.2-2.1 3.6-3.9 4.3l-.4.2-.1.4-.5.6-.5.3-.7.2-3.6.5c-1.3.9-2.5 1.7-4 2h-.1c-1.9 1-4 1.7-6.1 2.2l-1 .9c-1.4 1.3-3 2.8-4.6 4l-1.7 1a56 56 0 0 1-3.6 5l-.2-.1h-.2l-.3.3c-1.5.7-3.7 1-6 1l-2.7.6-.1.1-.2.1h-.6l-.1.1c-.1.2-.2.2-.4.2a25 25 0 0 1-3.9-1.2H531.2l-.2-.1v-.1h-.2l-.1-.1-.6-.5-.4-.3h-.1l-.2-.2v-.1l-2.7-2.2h-.2l-2-.5-1-.1-2.9.1-2.3 1.3c-.6.3-1.2.6-1.7.6a5 5 0 0 1-2.3-.2l-1.3-.2c-.4 0-.7-1.1-.8-1.5-.4-.4-.8-1-1-1.5l-1.3-1.1-.9-1h1c.3 0 .6-.2.6-.5 0-1-.6-1.8-1.3-2.7l-.3-.3-.6-1-.2-.3a17 17 0 0 0 3.9 2.8c3 .6 5.8 1.8 8.9 1.9 3.3 0 5.8-.9 7.8-2.7 0-.1 0-.3.2-.4V450.7l.8-4.8-.4-.4v-.6l-.1-.4v-.5c-.1-.3-.5-.8-.6-1.3l1 .6 1 .7a40.8 40.8 0 0 1 3 1l1.9.7c2.5.7 5.6.7 8 1 3 .5 6 .6 9 1l2-.5.6-.3.9-.4.4-.4.4-.1c.3-.7.1-1.2.3-1.9 0 0-.4-.2-.3-.3-.9-.8-.6-1.4-.9-1.6l-1.7-1.3-.7-.4-1.1-1.6a15.6 15.6 0 0 1-5.3-7.4c-1-1.4-1.9-2.7-2.6-4.4l-.1-.5-.1-.4v-.5l1.5.2c.4.1.7.1 1-.2.4-.5.5-1.3.6-2l.6-1.8.2-.2 1.3.1h2c1.1-.3 1.1-1 1.4-1.7.2 0 .3-.2.4-.4l.2-.5.2-1.7c0-.5.5-.8 1-.7 1.7.2 3.4-.2 5.1-.8l.3-.3v-.1c.4-.7.8-1.5 1.5-2.3v-.2s0-.2.2-.3l1.1-.8.1-.1.3-.2h.1l.3-.1h1.7l.3-.1a26.6 26.6 0 0 1 3.8-2.4l.1-.1 1-2.4s.1-.2.3-.2h.1v-.1l.1-.1c1-1.3 2.2-2.1 3.9-2.4 1.4-.2 3 .5 4.5.7 1-1 2.2-2 3.4-2.9.2-1.3.7-2.7 1.8-3.4 1-.6 2.3-1 3.6-1.1.6-.5 1.1-1 1.7-1.3l2-1 .5-.2.1-.1 1-1.1v-.2l-.1-3.3V389l-.1-1a52.2 52.2 0 0 1-.4-4v-.2l.2-.8v-.2c.1-.8.4-1.6.9-2.4l.1-.2v-.1c0-.2.1-.2.2-.2l.2-.2.2-.2h.2c.6-.4 1.2-.6 1.9-.7h.1c2-1.6 4.1-3 5.8-4l.5-.3v-.1l.2-.4.2-.5c.4-2.3.8-4.1 1.9-5.4.3-.4.8-.7 1.3-1l.3-.2 2.7-1.6.2-.1v-.1c.2-1.3.6-2.4 1-3.6.4-1.1.8-2.2 1-3.4v-.1l.2-.2-.1-.3-.1-.2-.1-.1-.2-.2 2.5.6 1.7.7h1a46 46 0 0 1 7 .2l2 .3h3.9l.1-.2.3-.2h1.3v-.3l.4-2.5.2-1.4v-.5l.1-.4c-.3-1.1-.5-2.4-.5-4l-.4-2v-.2c-.3-.3-.5-.9-.7-1.5l-.2-1-.3-1v-.2c0-.1 0-.2.2-.2l1.3-.6c.9-.5 1.8-1 2.7-1.1h2.1l.1-.2.9-1c.4-.4.6-.7 1.1-1.9l3.7.8 2.3.3.1-.1c1-1.2 1.7-2.4 2.2-3.7l.3-.7v-.1a50 50 0 0 1-.8-5.9l-.2-1.4c-.2-1.6-.3-3.4.2-4.5v-.2s0-.2.2-.3c.6-.4 0-1.4.7-1.7l.8-.2c.5-.1 1-.2 1.3-.4.5-.4.9-1.2 1.2-2l.4-.8 1-2.2.1-.4-.9-2c-.7-1.5-1.5-3.2-2-4.9a19.3 19.3 0 0 0-2.3-2.2l.2-.3.4-.4c.8-1.1 1.8-1.7 3-2.4l.6-.4.1-.1V301c0-1-.2-2.1-.6-3.2a48.8 48.8 0 0 0-2.6-3.7c.5-.7 1-1.6 1.4-2.6a19.5 19.5 0 0 1 1.3-4v-.1c-.1-2.9 0-5.3.2-7.7l.3-2a44.2 44.2 0 0 0-.2-3.9c-.2-1.3-.4-2.8-.1-4 .2-.9.8-2 1.4-3l.3-.3V265.9h-.1c-1.9-3-3.3-6-4.2-9v-.1a8 8 0 0 1-1-1.7c-.7-1.5-.7-3.7-.6-5.8v-.1a59 59 0 0 1-1.3-5l-.1-.1a47.1 47.1 0 0 0-2.3-2.1c-1.1-1-2.3-1.9-3-3l-1.4-2.8-.6-1.4c-.6-1-1-2-.8-3a7 7 0 0 1 1-2.5v-.1l.2-.6c.3-1 .5-1.2.8-1.5v-.1l.8-1.7.2-.3.2-.4.6-1 .1-.3.1-.1v-.1l.1-.1.4-1.4c.6-1.7 1.2-4 2.5-5.2l.4-.5c2.2-3.3 4.4-6 6.7-8.6l3.5-5 .2-.2v-.4c0-.3.2-.6.8-.8l4.8-1.7c3-1.9 6.3-2 9.2-3H670.8l1.4-1.4 1.5-1.3 3.2 1.2 2.2 1.6c.4.5 1.5.5 2 1 0 .3.3.5.4.7l.5.8.3.3 1 .9h.2c4.1 0 7.4 1.1 10.4 1.6h.2l2.4-1.3h.1c1.2-1.3 2.4-2.2 3.6-2.7l2.8-1.4 1.3-.7c.9-.8 3.2-4 3.7-4.8v-.2c0-.3 0-.5-.2-.7l2.2-.2h1.5c.2-.1 2.2-1.6 5-4l6-7.8-.2-.6.8-.9c.5-.5 1-1 1.7-2l.3-.8c.3-1.6 1.4-3.2 1.5-3.4l1.2-1.8c.2-.4 0-2.6.2-2.8l-.1-2.5h.2l.5-.1.9-.3-.3-.3h-.5l-.8-.3v-.5c-.1-.6-.1-1 0-1.6.1-.2.8-.4 1-.6h.6l.5.3c1.7.1 4 .7 4.8.9l3 1.8.7 1.1.4.2.5.5.3.2.4.3.1.2.2.2.2.3v.2l-.7-.4h.2Zm7.4 4.7c-.3.6-.8 1-1.2 1.4-.6 0-1 0-1.5-.2-.7-.4-1-.9-1.5-1.4l-.2-2.2a9 9 0 0 0-.4-2.1l-2.4-2.6-1.3-1.5-.9-.4-1.8-1.9-.6-.9c-.3 0-1.4-.5-1.5-.4l-.5-.2v-.4l.1-.4c.4-1.5.3-.8.4-2.4l.6-.5 1.5.6 1.7 1.4 1.5 2.2.5.4c.4.3 2.6 3.2 3.5 4.1l1.3 1c.3.6.4.7 1 1.4l.3.2.4.6 1 1 .2 1.6c-.1.4 0 1-.2 1.6Z"/><path fill="#000" d="m199.3 168 .2-1.1v-.5l.4-.8 1-1.3 1.3-1.5 2-2.6c.6-.6 1.2-1.3 1.7-2.1.4-.5 1-1 1.3-1.5l.6-.7v-.3l-.4-.6-.3-.3-.4-.3-.6-2.6-.3-1.2v-.5l.2-.9.3-1 .8-1.9.2-.6 1.6-2 1-1.2.8-1.1c.3-.5 1.9-1.5 2-2l1-.7.4-.1 2.8-.7 1.4-.8c.3-.2 1-.3 1.1-.3l1-.1c0-.1-.2-.6-.1-1l.6-.3.4.2c1.4.2 2 .7 3.6 1l.8.3v-2.7l-.2-.7c.2-1 .4-1.4.4-2.4v-.6l.6-.8.7-.2c.8-.2.5-.2 1.4-.6h2l2.4-1 2-.6.7-.8.5-.6c1.3-1.2 2.3-2.4 3.2-3.5l.4-.2c1-.9 1.8-1.3 2.5-2 .7-1 1.1-1.7 1.6-3l.5-1.2.1-.4c.5-1.2.9-2 .9-3v-.1c.3-1.1.5-2.3.6-3.5l.6-2.5.3-.4v-2.7l-.3-1.5-.7-3.5-.3-2.3v-.2l.1-.3.4-.9.2-.6V94l1.6-2.4.3-.4h.1c.5-.3 1-.4 1.5-.5 1.6-.3 3.1-.9 4.5-1.7h.1l3.5-.7c.4 0 1-.2 1.2-.8l.5-2.1v-.1c.7-.9 1.2-2 1.7-3.1l1.8-2.4 1.6-1.4 1-.2a52.2 52.2 0 0 0 9-3.5h.2l4.2-1.2 1.3-.3v.2l.1-.2 7-1 3.7-.7c1 0 1.8 0 2.6.2a53.9 53.9 0 0 0 6.5 1.9h.1l1.8 1.5a242 242 0 0 0 4 3.3l.3.2c1.2 1 2.2 1.8 3.4 2.3l1.8 1.8.7.7a31.8 31.8 0 0 0 7.6 10.3l.2.4.7 1.4a54 54 0 0 0 2.3 3.7l3.6 2.7c2 1.5 4 3 4.8 3.4l8.4 8.4h.3l.2.1.9.6c4.3 2.4 8.8 5 14.4 7.9l9.2 4.8 1.7.8c5.5 4.1 12 7.1 18.4 10l2 1 1.2 1.5 3.8 4.6 3.2 3.6c2.1 2.8 1.6 2.1 3.3 4.8l1.3 1.5.3-.2s1 1.6 1.5 2l1.2 1.4c.6 1.2.7 1.7 1.1 2.7.4.4.3 1.3 1 1.8l2.2 1.7 2 1.4 2.9 4 .6 1.8c1.5 2.4 1.5 3 3.2 5.2.7.9 2 3.4 2.6 4.4a159 159 0 0 0 4.7 9.6v.1c0 1.5 1 4.3 1 5.5.1 2.8 1 5.7 2.5 8.6v.1l.5 2.3.1 2.4.2 1.7v.2l-.2.3v4.4c-.1 2.3-.2 4.8-.1 7.1v.1a60.5 60.5 0 0 0-2 11.8l.2.1v.2c-.4 2.5-.6 4.8-.8 7l.1 1.3v.3c-.1.5.3.4.2.8-.6 2.9.6 4.9.9 7.4.2 1.7.4 2.4 1.3 4.5.1.3.1 1.7.4 2.1l.4.5.2 1.5.9 2.1c.6 1.7.9 3.5 1.1 5.2l.7 3.6.2.3c0 2.7.6 5 1.8 7.4l1 2.3c.8 1.7.8 2.7 1.8 4.2l.1.3v1c0 .4.8 1.8.9 2 .3.6.3 1.2 1 1.7l.8 1.7v1c.3 1 .2 1.3 1 1.9l.7.9c.5.7.7 1 1.2 2.2.8 1.9 1.1 3.4 2.4 5.8.2 1.4.9 2.9 1.7 3.4l.4.3h-.2c1.4 1.5 1.6 2.9 2.9 4.4.1.4 1.2 1.3 1.4 1.6.3 1 1.4 2.3 1.8 3.4.2 1.2 1 2 1.4 2.8.4 1 1.1 2 1.8 3l1.1 1.6v.1l.3.9c.3 2 1 1.4 2.2 3l.6 1.2c.3.6.3 1.7.7 2.1v.1c.5 1 1.4 1.8 2.2 2.7l1.1 1.2 2.3 2.6s-.2 0 .2.7c1.2 2 2.2 4.2 3.2 6.2l.2.4c.7 2 1.6 3 2.4 4.3h.1c.4.6.7 1.7 1.3 2.2 0 0 .5 1.8 1.2 3.4l.7 1 1 3.4v2.4l-.6 2.5v1.6s0 .7-.2 1c-.4.8.9 4.1.8 4.7v.9l-.6 1.1-.8.8c-.9 1-1.5 1.3-2.3 2.8l-1.7 2-.8 1.3c-.6.6-.6 1.8-.9 2.4-.5.9 0 4.3 0 5.2l.2 1.1v.1l-.2.4a233.3 233.3 0 0 1-.2.7l.2.2h.2v2.3c-.2 2.1-.3 4.3.1 6.4.2 1 .5 2.2 1 3.5.2 1.3.1 1.5 1 3.1l.6 2.1c0 2.2 0 2.7.2 4.2v.8c-.1.4-.3.8-.3 1.4-1.1 2.3-1 4.5-1.4 6.6v.2l.1.1v.2a8 8 0 0 0-.3 2l-.8 3.8-.2 1.5v.1l-.5.8v.1l-.2.3-.6 1.2-.2.4c-.2 0-.4.7-.5.8-.3 1.1-.7 1.7-1.2 3-.3.7-.9 1.4-.9 2.2 0 .3-.7 1.6-.4 1.7l.2.6c-.6 1.4-.7 2.6-.8 4.2-.4 2-1.2 4-1.8 6-1.5.6-2.6 2-3.6 3.4-1.3.6-2.6 1-3.7 2-.3.3.7 1.1.9 1.4 0 .5.3 1 .2 1.6-.2.4-1.8 1.4-2 1.8-1.8.5-3 .6-4.7 1.5-2.7 0-5.7-.3-8.3 0-1.3-.7-2.9-.8-4-1.2-2.3.1-4.1.3-6.2.8-2.2-.5-4.4-1-6.6-1-1.6 0-2.7.9-3.8 1.9a17 17 0 0 0-5 2.3h-9.4c-2.5-.6-5-1-7.6-1.4l-3.4-2.4-.7-.8a59.9 59.9 0 0 0-4.2-4.6h-.2a28 28 0 0 1-2.7-1.4c-1.5-1.2-3-2-4.4-2.9l-.4-.3-.6-.4c-.1-.1-.2 0-.2 0h-.3l-.1-.2c-.2-.3-.5-.7-1.2-.8l-10-4-.5-.2h-.1c-1-1.4-2.2-2.7-3.4-3.9l-.1-.2c-1-2.4-2.2-4.9-3.8-7h-.2v-.2l-1-1.3v-.2l-.6-.6-1-1.5-.3-.1h-.3v-.3l-.2-.2a36 36 0 0 0-3.4-1.5l-1.9-.8-.2-.1a18 18 0 0 1-5.1-3.3c-5.2-3-10.9-6.3-15-9.6v-.1l-.4-.5-1-1.3a33.5 33.5 0 0 0-4.1-5.3c-1.4-1.3-3-2-4.9-2.8L319 404l-.2-.1h-.1l-.1-.1-2-2.4a96.5 96.5 0 0 1-4-5l-1-1.2-.3-.3-.7-.8.1-.2-.2.2-.4-.6c-.6-1-1.2-2-2-2.6l-2.1-.8v-.2.2h-.2a23.1 23.1 0 0 1-4-2.8 26 26 0 0 0-5.8-3.4l-.8-.8-1.1-1v-.1a18.3 18.3 0 0 0-2-3.4l-.3-.7-.5-1-1.3-.6a9 9 0 0 1-.8-.3l-1-.6-.2-.3-.4-1.8c-2-.7-1.4-.5-2.3-1.1l-2-4.7-.4-.5a53.7 53.7 0 0 0-5.1-5.7 724 724 0 0 0-5.2-6.9l-1.7-4.4v-.1l-.1-.1-.1-.2-.2-.2h-.1a269.1 269.1 0 0 1-11.8-12.7c-1.2-2.2-2.5-4.5-3.7-7a40 40 0 0 0-3.7-8l-.2-.9c-.5-2.7-1-5.2-2.4-7.4-.5-3-1-5.1-1.7-7.1V300s.2-.3 0-.4c-1.3-1.7-1.9-3.7-2.5-5.6l-1.3-3.6-.1-.4-.2-1.3c0-.3 0-.6-.3-.8l-.1-.2v-.3l-.2-.3-.1-.2v-.3c.1-.3 0-.5 0-.8h-.1v-.1c0-3.1-.8-6.5-1.5-9.3-.6-2.3-1.3-3-3-4.5l-.5-.4c-1.1-1.1-2.2-2.5-3.2-3.8l-1.1-1.5v-.1l-.7-4c-.5-.9-1.3-1.7-2-2.4l-1.3-1.4c-1-1.2-1.8-2.4-2.5-3.7l-.1-.3-1-.7-.3-.2-.2-.2c-1.2-2.4-4.2-4.1-6.8-5.6l-1.4-.8-2.7-1.5-.8-.4-2.6-1.5h-.1l-1.5-2.4-.3-.3a35.2 35.2 0 0 1-3.5-6v-8.2c.2-1.9.6-2.9 1-4.7l2.2-4.2v-.1c1.4-.7 2.7-1.4 4.1-1.9h.2l2 .4c1.4.3 3.7 2.3 5 2.5.3 0 .6-.2.7-.5l.1-.2h2.5l.2-.3c1-1.2 2-2.3 2.8-4l1.6-3c.7-1.2 1-1.6 2-4.6a141.5 141.5 0 0 1-1.5-8.6v-.2l.2-.7.3-1.1-2.6-3.8c-1.1-1.6-2.3-3.2-3-4.5l-.3-1-.5-1.5-.2-.2-1.4-1.6-4.6-1.3h-.1v-.2l-.6-3.3c-.2-1.6-.5-3.1-1-4.8 0-.4.2-.6.1-1V171.5l-.3-1v-.1a9 9 0 0 0-.8-2.5l-.7-.5-1.3-.9h-.3l-.8-.4h-1.2l-1 .3-1.3 1v.2l-.1.5c0 .2-.3.5-.3.8v1l-.2.8-.9 1-2.3 1c-1-.3-2-.6-2.5-1.6-.3-.6-.5-1.4-.6-2v-.3l-.3-.8h.1Zm21.4-29.7-.6-.9-1.1.6-1 .7-1 .4-2.3.7-2.4 1.5-.9.8-1.3 2-1.3 1.3-1 1.4-.3 1.7v1l.4.8.4-.7h.1v.7l.1.5.4.5 1 .3c.6-.1 1.2-.1 1.6-.3l1.7-1.4c0-.1.6-.2.7-.5l1.2-.7 1-1.5.6-.5 1.4-.4.8-2.8 1.7-3 .3-1.2-.1-1Zm.8 2.7c-.8 1.4-2 3.5-2.3 4.5l-.4 1.4c-.1.4-1.1 1-1.2 1.5l-.2.6-.8 1.2-.7.5-.1.3c-.1.3-.4.7-.4 1 0 .2-.2 3.5-.1 3.7l.3.8s.7-.3 1-.2c.1 0 .3-.2.5-.1l.6-.2c.2-.1.2 0 .3-.2h.6l.8.3.9-.5c.2-1 .7-2.1.8-2.5l.1-.4.2-1-.2-.4-.3-1.3-.2-.5V147.7l.8-1.7v-.6l-.2-.6v-.4l.6-2.2s-.3-1.7-.5-1.2Zm.7 22.7v.4c1.3 2.3 1.7 3.6 2.8 5.7l1.2 1.4c.4.5.7 1 1.2 1.3h.1v.1c.6 1.5 1.7 3.4 2.8 5 1 1.7 1.8 3 2 3.9l1 1.2c.5.9 1.1 1.7 1.9 2.6l1 .3.5.1c-1-2.5-1.1-3.5-1.5-5.7v-1l.1-.2c1-.9 2.8-1.9 4.5-3 1-.2 2.1-1 3.1-1.7.7-.5 1.3-.9 1.7-1a47 47 0 0 1 1.9-.7l2.8-1.1h.1c4.4 0 9.2 0 14.1.3 1.5 0 3.3-.2 4.7 0 2 .3 4 .5 6 .4 1.7.8 3.2.2 5 .8l6.1 1.7c1.5.5 4.9 2.3 6.4 2.8 2.2.8 4 1.2 6.2 1.8h.1v.2c1 1.4 4.6 2.9 6 3.8l-.4-.7v-.1c0-1.5-1.2-3.4-2-4.7l-.5-1c-1.5-2.7-3.7-4.6-5.6-6.3l-.2-.4-.3-.8-.5-.2-.3-.1c-1.3-1.7-2.9-3.1-5.3-5h-.1c-.5-1.2-1.4-2.6-2-3.5l-.5-.8c-1.7-3-3.1-5-6-6.7l-2.6-1.6a19.6 19.6 0 0 0-8.5-3.9l-.6-.3c-3-1.6-6-3-9.6-2.9-1.8 0-3.7.4-5.5.7a74 74 0 0 1-5.5.8c-3.1-.2-5.8 0-8.2.2-1.6.2-4 .7-5.8 1.6h-.1l-2.2.2-3.4 2-2.3 1.2h-.1c-.7.9-.7 1-1.3 1.4l-1 .6-.9 1.8a27 27 0 0 1-.6 3.8l-.4 1.5v1.5l.5 1.8v.5Zm93.7 19.4.1-1.4v-.2c1-2.3 1.8-4.6 1.7-7v-.2l.1-.1.3-1.3c0-.1 0-.2-.2-.2h-.1v-.3c-.4-1.6-1.3-3.3-2.6-4.6v-.2c-.2-.7-.6-2.3-.8-2.6-1-1.4-3.1-3-5-3.6a7.3 7.3 0 0 0-2.2-1.4c-1.1-.5-2.4-.5-3.6-.6-1.2 0-2.4 0-3.5-.5l-.6-.3-1.2-1-.4-.3-1-.8-.1-.1-.3-.3-.6-.7c-.6-.7-1.3-1.6-2-1.6h-.1c-.5.2-1.3 1.2-2 2.5-.7 1.4-.4 2.9 0 4.4l.3.2h.1l.1.1.3.3c.2 0 .3.2.5.4l2.1 1.7c1 1.2 2.3 2.3 3.4 3.4l2.5 2.4.1.3.2.3c.4 1 .9 2 1.5 2.8v.1c0 .2 0 .3.2.3l.1.2h.1v.2h.1c1.1 2.6 2.3 5.2 4 7.3l.1.1c.6 1.8 1.3 3.1 2.2 4.2.4 1.4.9.8 1.5 1.5v.1l.2.6c.4 1.2 2.7 2.1 4 2.5h.2l.1-.2c.2-.8.2-1.6.3-2.7v-.4a11 11 0 0 1 0-3.3Zm13 6c.3-1.2.7-2 1-2.8v-.1a8 8 0 0 0 1.6-1.9c1-1.6 1.5-3.6 2-5.5l.3-.9h.1v-.2l.2-.8v-.2l.2-.1.1-.2.1-.2.4-1.7V173.9h-.2v-.9h.2v-.4c-1.6-3-3.3-5.4-5.1-7.4l-.3-.4-.6-1.4-.2-.1-.1-.1c-.6-1.4-1.4-2.6-2.3-4l-.3-.4c-.7-1.3-1.6-3-3.1-4.3l-8.5-5.7c-3.5-1.1-12.2-3.2-17.3 3.3v.1c-.2.1-.2.3-.2.4l.2.2c1.2.1 2 .8 2.8 1.5.5.4 1 .9 1.6 1.2 1 .5 2.3.6 3.5.7h.4c1.4.2 2.8.4 4.3.4h1l3.7 3.4.5.5v.4l.3.1.1.1a51.3 51.3 0 0 1 4.7 7.7l.5.8.8 1.7v.1l-.4 4-.3 2.4c-.2 2.2-.4 4.5 0 6.6v.1l-.5 3.3-.3 1.4-2.8 3.8-.5.5 2.8.4c.5.3 1 .8 2.8 1.6l.4.2c.5.4 1.4 1.1 2 1.2.5 0 1.4-.2 2.1-.5.4 0 .8-.2 1.1-.3l.2-.3c0-.9.2-1.9.4-2.8.3-1.3.6-2.6.4-3.8v-.1h.1Zm6.3 8.6v.1l.1 1.4c0 .1.1.3.3.3 1.7 0 3.6.5 4.9 1h.1c1.6 2.4 2.5 4.9 2.8 7.8.2 2.2.6 4.5 1.4 7.4v1.5c.1 2 .2 4.2.6 6a18 18 0 0 0 4.8 7.8 3.6 3.6 0 0 0 2.5 2.1l.4.2.5.1 1 .3c1.3.6 1.6 1.1 2.2 2l.5.8c1.4 2 3.2 4 5.3 6l1 1c1 1 1.5 2 2.4 3l1.6 1.8.5.7v.3l.1.2c.2.7.2 1.5.3 2.3a12 12 0 0 0 1.5 4.5v1l.2.2.2.1c1 .5 1.8 1 2.8 1.3h.4l.3-.2c2.5-2 4.6-4.3 6.2-7l1.6-4.7 3.5-10.2.7-2.6a95.8 95.8 0 0 0 4-18.1v-.1c.9-1.5 1.7-3.3 2.5-5.3.6-1.5.8-3.1.7-5v-.1l.1-.1.1-.2c0-.6 0-1.2-.2-2 0-1.5 0-2.8-.4-4-.1-1-.2-2.3-.5-3.5l-.1-.5c-.2-1.1-.5-2.4-1.4-3.2l-1-1-2.6-2.4-5.5-2.6-7 .2-1 .7-.9.7-.8.8c-3 1.6-7.2.9-12.6 2.6h-.2c-2.9-.4-5.7-1.3-8.3-2.8h-.1v-.2c-1.7-2.7-2.7-2.4-4.1-3.6l-3.5-1c-1.3-.7-2.1-.9-3.3-1.8 0 0-.3-.2-.4 0l-.2.2h-.2c-.7 0-1.1.6-1.6 1.1v.2c-.1 2-1 3.1-1.4 5v.1c-.5.7-.8 1.6-1.1 2.4l-.3.6c-.4.9-.8 1.8-.6 2.6.2.7 0 1.2.5 2l.4.8.2.3c.1.2-.1.6 0 .8Zm16.2 41.7c.3 2.1 1.3 3.6 2.2 6.1 2.6 6.4 5.3 9.4 9.5 12.4l1.3 1 .5-.2c.2-.1-.7-3.9-.7-4 0-1-2.5-4.7-3-5.9l-4.8-5.9a32.6 32.6 0 0 0-4.3-4h-.9l.2.5ZM227 142l-.5-.6c0-.2-.6-1.7-.8-1.9-.2 0-.1-.7-.3-.7l-.5-.4a46.2 46.2 0 0 0-1.2-.6l-1.6-.8c-.2 0-.1.2-.4.4.2 1 .6 1.8.8 2.6.2.4.4 1.7.3 1.9v1c.1.2-.3 1-.3 1v.1l.1 1.3-.1 1c0 1-.4 2-.4 2.3l.6 1.8 2.7-2.4 1.7-1.4 1.7-.6-.1-.9c0-.3-.8-1.2-.8-1.5l-.4-.8-.5-.8Zm243.9 224a15.6 15.6 0 0 0 1 1.9h.1l.1-.2v-.4h.1v-.4l.1-.2v-.5c-.2-.7 0-1.1-.3-1.9V363l-.3-1.2c0-1-.3-1.2-.6-2.1-1-2.5-1.4-3-2.5-6l-.4-.8-.5-1.2c-.7-1.5-1-2.5-2.1-4.1l-1.2-3.5c-.2-.7-1.5-2.2-1.7-3-1.2-3.5-1.8-3.1-4.4-5.6-.3-.3-.3-1.2-.6-1.5h-.1l-.1-.1-1.3-1.6-.2-.3v-.2h-.1l-1.2-3.1v-.7l-.2-.2h-.2v-.1c-1-2-2.4-3.4-3.6-5.3l-.5-.7v-.1c-.4-1.3-1.4-2.3-1.9-3.6l-.3-.7v-.5l-.2-.9c-.2-.8-.5-1.6-1-2.2-.9-1.4-1.7-3.2-2.8-4.4l-.4-.4-1.8-3-.9-2a25 25 0 0 1-.6-2.2c-.3-1.3-1-2-1.6-3.2-1-1.8-1.7-4.1-3.1-5.7-.9-1.1-1-2.2-1.9-3.2l-.1-.2c-.5-1-.3-1.7-.9-2.7V286l.2-.4c0-1.1-.8-2.4-1.4-3.4l-.4-.7c-1.4-2.4-2.2-5-3.8-9 0-1.4-.5-4.3-.8-5.5v-.4c0-3.1-1.4-6-2.7-8.6-.4-1.2-.6-2.1-1.2-3.4V250L421 244l.2-1.4.4-3.9c.2-2-.2-4.1-.7-6.2l-.2-.9.1-.3a77.3 77.3 0 0 0 2.6-11.7l-.6-5.2v-.8l.5-1.8.6-2.1c0-1-.6-2.1-1.1-3.2l-.5-1-1.1-2.6v-.1a29.6 29.6 0 0 0 0-7.4h-.5v-.3c-.2-.6-.5-1.3-1-2.1-.4-1-1-1.9-1.5-2.8l-.2-.5-1.1-3.6c-.8-1.8-1.8-3.5-2.7-5.2l-.3-.6c-.7-2.7-4.3-7.6-4.3-7.6l-.1-.1a42.8 42.8 0 0 1-3.9-4.6c.4 1.7 1.8 5.3 2.8 7.5a67.4 67.4 0 0 0 4 12c1.1 4.8 2.6 11.6 3.4 16.2v.1c-.7 3.8-1.3 7.3-.8 10.7l.6 2.4c0 3.5 0 7.6.8 11.5v.5c-.3 2.4-.5 4.9-.5 7.6 0 2.4.4 4.2 1.2 6.3l.5 1.4a40.2 40.2 0 0 1 2.1 6.3l1 5.5c.7 3 1.6 6 2.5 8.8a157 157 0 0 1 2.2 8.1c.4 2.7 1 5.6 2.3 8.1v.1a28.2 28.2 0 0 0 1.6 6c.1.5.4 1 .8 1.4l.1.2-.1.1v.3c1 1.3 1.8 2.7 2.7 4l.3.6c.5 1 1 2.1 1.7 3 .7 1 0 1.1.7 2l2 2.9c.5 2.3 5.3 13 8.9 16.5l3.1 5.3c1 1.8 2 3.7 2.8 5.6l1 2.1V331.3l1.4 1.2.2.1-.3.1c1 2.2 2.4 3 3.4 4.5l3 3.9 1 1.1.1.2V342.7c.8 3.2 2.4 6 3.8 8.9l1.4 2.6c.4 1.3.8 4 1.5 5.5v.2c.4 2 .8 2.5 1.2 3.7l.2 1.5v.3l.3.2.2.3Zm-7.3 71.5.6-1.4a13.6 13.6 0 0 0 .5-2.5l.1-.8h-.1v-.3l.3-1.3.4-1.2a9 9 0 0 0 1.2-2.7c.3-1 .4-2.1.4-3.3v-3.2h.1c.5-2 .2-4.5.5-6.4-.4-2-.8-2.9-1.3-4.7l-1-11.4v-5.3c-.2-.3-.4-1-.8-2.6l-.4-1.5v.3l-.6 2.1-.9 2.7-.4 1.4v.2l-.4 2.8c-.1.8-.3 1.7-.3 2.6-.4 1.5-.3 1.7-.5 3l.1 1.2c0 1.2.1 1.5.2 2a97.7 97.7 0 0 0 1 3v.1l.3 1.2c.1.4.4.7.6 1l.3.8v.7l-1.4-.4-.5-.6c-.5-1-.5-.8-1-1.4-.4-.8-.8-2.1-1.7-3.8l-.4-3.5c.2-2.6.1-4.2.4-7.8v-.2l.1-.4.2-.7v-.2l.1-.7.1-1.3a25 25 0 0 0 1.5-5.7h.1l1.6-2.2.8-1 1.6-2v-.2c1.1-.6 2-1.3 3-2.1.8-1.1 1.4-2 1.9-3l.6-1.2v-.8l-.7-1.4c-.3-.6 0-.3-.3-1l-.2-.6-1.6-4.5c-.3-1.8-.9-3.6-1.6-5.4l.3-1.7-.4-2.1a7 7 0 0 0-1.6-2.8l-.5-.7-1.5-2a188 188 0 0 1-3.6-8.6l-.1-.1-.1-.1-.3-.6-.2-.5c-1-2.1-2.8-4.1-4.3-5.9l-.7-.8-2.3-2.8-.5-1c-1.2-4.4-2.7-5.6-5.2-10.5-.6-1-1.3-2-2.2-2.7l-.4-.3-.6-1-4.2-7.6c-.3-1.6-1-2-1.4-3.6-.3-1.1-1.4-2.5-1.7-3.6l.2-.1h-.3v-.2c0-.3 0-.5-.3-.8h-.1c-1.7-2.3-2-3.8-3.2-5.5-.6-1.4-1.3-2.4-2-3.3l-.5-.7-4.2-9.5c-.2-2-.6-3.9-1-5.5l-.4-1.1-.6-2.4-.1-1.1c0-.5 0-1.1-.3-1.5a5 5 0 0 0-.7-1v-.1l-.2-1.2-1.1-3.4-.3-.6a163 163 0 0 1-2.5-7.3l-.7-1.8-.4-1v-.8c0-1.4.1-2.8-.3-4l-.6-1.3-.9-6.4c-.4-4-.9-8-1.7-12-.4-1.9-1.4-3.6-2.3-5.2V223c1.1-2 2.1-4 2.1-5.9l-.3-3.8c-.2-1.1-.3-2.3-.3-3.4l-.1-2.6-.1-3.4c-.2-3-1.2-5.1-2.5-7.6l-.1-.3-1.6-4.1a90.5 90.5 0 0 0-2.4-9.9v-1.3l-1.8-5.4-.4-1v-.1c-.7-3.7-2-7.5-3-10.8-1-3-3-5-5.3-7.2l-1-1v-.1l-.7-1.8a29 29 0 0 0-1.7-3.8c0-.1-.1-.2-.3-.2h-.2c-1.5-1-2.9-2.2-4.2-3.3-1.8-1.6-3.7-3.2-6-4.3a56.8 56.8 0 0 0-9.5-5.4c-2.2-1.3-4.5-2.6-6.9-3.3l-1.9-.4-.1-.1-.4-.1c-1.7-1.1-3.7-2-6-2.6a18.7 18.7 0 0 0-6.1-1.4h-.2l-.5-.2-1.4-.2-1-.1-3-1.2-1-.5a28 28 0 0 0-3.3-1.2l-4.9-1.3c-3-2-6-4.7-9-6.3l-2.2-1.2-1.4-1-.6-.3c-.9-.8-1.8-3.7-2.6-4.4l-1-2 1.9 1.4c.9.6 1.7 2.6 2.6 2.8l1 .7 2.3 1h.1l1.8 1c1.5.9 3.7 2.5 5.3 2.9h.2l3.5 1.6a69 69 0 0 0 12.2 3.6v.3-.3c.4 0 .8.2 1.8.7l1.5.7 3.4.5-1.6-.7-.8-.4c-1.5-.7-3-1.3-4.2-2-2.9-1.2-5.4-2.3-8.5-4.2l-1-.7c-.3-.1-.5-.2-.6-.4h-.1l-1-.9-4-3.9-2.7-2.5v-.1l-.2-.1v-.2l-.1-.1-.3-.2-.2-.2-.4-.3a35 35 0 0 1-1.1-1.2l-.2-.2a12 12 0 0 1-2-1l-.2-.1-.4-.5a447 447 0 0 0-4-4.2l-.4-.7a56.2 56.2 0 0 0-7.6-9.2c-1.1-1-2-2.4-3-3.7a16.4 16.4 0 0 0-4-4.6l-.7-.5-.3-.2-.3-.3-.3-.7h-.3c-.2 0-.5-.3-2-1.6l-1.3-1a34.2 34.2 0 0 0-3.9-1.8l-1-.7c-.7-.5-1.5-1-2-1-1-.1-2.6 0-4 .2h-.4l-.3.1h-2.5c-2.5-.1-5.2.8-7.3 1.5H278c-2.7.7-5 1.2-7.4 2.2l-1.7 1c-.8.4-1.8.9-2.7 1.6-.7.4-1.3.8-1.8 1.3l-.8.6-.6 1.6c-.4 1-.8 2.2-1 3.2v.1a43 43 0 0 0-2.4 2.9h-.1a26.4 26.4 0 0 1-8.4 2l-.1.1c-.4.1-.7.4-1 .7-1.1 1.4-1.4 2.6-1 4l.3 1.3.6 1.8v.2c-.5 2.5-.9 4.7-1 6.7l.1 2.2.1 1.4-1 1.8c-.5 1-.7 2.2-.6 3.3v.2h-.2l-.1.2c-.2.6-.8 1.2-1 1.7v.3l-.7.7-3.4 2.3-1.5 1.4-1.5 2.8-.6.8-3.8 2.3c-1.6.4-3.8.7-5.4.9l-.4.5-1 .3a22 22 0 0 1-.8 2.3c0 1.6.2 1.8.5 3.2l-.2 3.2.7 1 .7 1 .6 1 .2 1.6.2.4c.3 0 .3-.1.4-.2l5.7-2.7h.2c2-.2 4.4-.7 6.7-1.2l2.2-.6 2.1-.5 5.2-1c3.5.3 8.2.7 13.2 2l3.3.7c3 .6 5.2 2.8 7.9 4.1 1.3.6 2.5 1.3 3.6 2l1.9 1v.1c1.7 1.8 3.4 3.7 4.8 4.9.2.1.6 1.6.9 1.6h.1l.1.1 1 1.2 1.2-3 1-2c2-1.8 4.1-3.6 6.4-5.2 2.3-1.8 5.7-2.8 9.4-3h.1c3.4 1.1 5.6 2 8.8 2h.2a70.2 70.2 0 0 0 5.9 4.3c1.6 1 3.3 1.4 4.7 2.6l.1.2c.8 2 1.8 3.8 2.7 5.5l.3.6c1.4 2.7 3 5.6 5 8.8.9 1.2 2.5 2.4 3.3 3.6l.4.5v.2l.5 2.5c0 .2-.4 1.6-.3 1.9l.4.2.7.2h.1c1.1 1.4 2.7 2.4 4.8 3.6 1.4.3 2.1.2 3.1.6l.3.1.3.2a4.5 4.5 0 0 1 1.4.5c.3.2 1 0 1.3.2.3.2.6.3.7.6.6.8 1.8 1.1 2.3 1.6l1 .6 3.2.8H360.2l.5-.1c1.2-1 2.2.4 3-.4l.4-.5c.9-.9 1.7-1.8 3-2.3l.1-.3.3-.1.6-.3c.2 0 .2-.2.2-.3v-.2l.4-.1.3-.1 1.5-1h.2c1.6.2 3 .4 4.4.4 1-.2 2.2-.3 3.3-.3l1 .1h.2l.9.4c1.7.7 3.5 1.4 5.3 1.9h.1l1 .9.7.7.9.8c1.1 1 2.5 2.4 3.8 2.7h.2l2 2.2.3.3v.1l.7 1.6.7 1.5c.4 2.2.9 4.2 1.5 6.1v.2l.2 3.7c0 2.2.1 4.5.4 7.3-1.3 4.7-2 7.8-2.4 11.8-.2 3-1.2 4.4-1.2 7a116 116 0 0 1-2.8 9.9l-.4 1.3a162.4 162.4 0 0 1-2.5 7.8l-.2.7v.3l-.4.8-.2.4-.2.2c-.3.4-1.3 3.2-1.5 3.4-1.5 1.7-1.4 2.5-3 4l-.8.9c-.6.5-1.2 1.1-1.7 1.8l-1 1.3-.6 1h-.2a17 17 0 0 0-4.3 2l-.8.5c-1.4.8-2.7 1.3-4 1.8h-.1c-1.3-.4-2.6-.5-4-.5l-1.8-.1a10 10 0 0 1-2.2-.5 39 39 0 0 0-8.7-7l-1.4-.9-.1-.1-1.1-1.5-.1-.2c-1.2-2.9-2.5-5.8-3.4-9 0-1-.2-.8-.3-1.8l-.1-.8-.7-5.6v-1.6c0-1 0-2-.2-2.7-.3-1.1-1-2.3-1.8-3.4l-.9-1.4v-.1c-.2-1.3-.6-2.6-1-3.8l-.5-1.6-.8-2.7-1.5-5.3a35.9 35.9 0 0 0-.2-6.6l-.4-3.6c-.3-1.1-1-1.7-2-2.4l-.3-.2-.2-.1-2.1-.6c-1.3-.5-2.6-1-3.8-.9h-.2l-1.4-1.3h-.3l-.3.1c-1-.4-2.8-1-4.4-.8h-.1l-7.2-3.2-.6-.6c-1-.8-2-1.7-3.4-2.5l-3-2-.1-.2-2.9-4c-.9-1-1.7-1.7-2.7-2.5h-.1c-.2-.3-.8-1.1-1.1-1.2-2.7-.2-4.9-3-7.3-3.6-3.2-1.8-14.8-4.9-19-6.4h-.1a1 1 0 0 0-.7-.3h-.1l-5 .4c-3 0-3.7.4-6.6.1-.6 0-1.1-.2-1.6-.3-.8-.2-2.2.3-3 0-1-.3-2-.7-3-.8l-1.3-.2c-1-.1-3.6.8-5.3 1l-1.6.1c-3.9 1-5.5 1.8-7.3 2.7l-1.6.8c0 .2-2.4 1.6-2.3 1.8l.1 1.1.3 2.1v.1c-.1.6.8 2.3.7 2.7.1.2 1.1-.2 1.5-.3l1-.1 3 .6c.7-.1 1-.1 1.7-.5l1.2-1 2-1.7.3-.1.8-.6c.7-.6 1.5-1.2 2.4-1.7h.2l1.8.3c1.5.3 3 .6 4.7 1.2 3 1 6 1.2 9.1.7h.1c1.3.5 2.4 1.2 3.6 2l2.8 1.6 2 1.1c.9.5 1.7 1 2.7 1.4v.1c3.3 3 6 7.2 11.3 8h.1c2.2 1.7 5 4 7.3 7 1.1 1.2 2.7 2 3.9 3.4 2.9 3.7 6.7 7 10 10.1l.2.2.6 1.8c.7 2.2 1.3 4.3 2.4 6.4v.1c.2.8 1.4 2.5 2.7 4.2.4.5 1.9 4.1 1.9 4.1l1.1 7c.7 7.3 1.7 5.9 1.7 15.6v.2c-.8 3.2-.7 6.5-.5 10.4a87.6 87.6 0 0 0-1.7 5.6c-1.6 2.6-2.5 5.1-2.9 7.6v.1l-.8 2c-.7 1.7-1.5 3.1-2.4 4.6l-.9 1.5-.7 1.2v.3l.1.1v.1h.2v.2c0 .9.7 1.9 1 2.6l.3.5 1.2 2.1v.2c0 .6-.6 2.4-.7 3.1v.6l-1 2.4-.7 2.1-.1.1c-.6.7-1.4 1.6-2 2.8 0 0-.1.2 0 .4l.4.5v.2c-.5 1.7-.1 3.8.4 5.7l.3 3s0 .2.2.2c.1 0 1.6.6 2.2 1l.4.9 2 3.4 1.3 2v.2l.3 2.6c0 .2.1.2.2.2h.2c0 .2.2.2.4.1l1.3-.3h.2l2.4.3H324.5c1.7 0 3.3.1 5 1l1.6 1 .1.1a12 12 0 0 0 3.7 4.1v.1l1.4 2V335.8l.5.6.2.3v.1l.2 1.4v.3h.3l2.8-.1 1.4-.1h.2c1 .3 2 .3 3 .3h.6c.2-.2.4-.3.7-.3 1.6.2 3 .4 4.6.8.3 0 .6.3.6.8 0 .4.2 1 .4 1.4l.4.4.9 1v.2c0 .2.2.2.3.2a24 24 0 0 0 7.4-1.4h.2l2.2.6 2.2.9c1.3.5 2.8 1 4 1.8l3.5 2.3c2 1.4 4.1 2.8 6.4 4l.2.1.1.1 2 2.2 2.2 2.3.3.5c1.3 2.7 2.7 5.5 3.7 8.3v.2l.4 1c0 .2 0 .3.2.3l3.5.4h.2c.8 1 1.8 1.6 3 2v.1l.1.1 1.2 1.9h.1v.1l.1 2.5v.6c.1.2.3.2.4.2h.1l1.5.7 1.3.6h.4l.2.2v.3l.1-.2h.1l.3.5c.3 1.1.6 2 1 2.8h.1v3.2l2.2 3a85.6 85.6 0 0 1 3.7 1.5l.1.3c.3.2.4.4.5.6l1.4 2.1c1 .5 2 .9 3 1l1.1-.3 2.5 1.3v.1l.3.2c.3.8.7 1.5 1.1 2.1l1 2.7v.1c-.2 1.5-.4 3.8 0 6V404.6l.2.3 2 .4 2.4 1.3c1.1.6 2.2 1.2 3.4 1.5h.2c1.6 1.1 3.3 2.3 5.2 2.8h.1l.6.6h.1l2.2 4v.1l.2 1.2v.6a22.2 22.2 0 0 1 .3 2.5h.3a28 28 0 0 1 4.6-.3l.3.1.4.3.5.6 1.2 1.2.6.9.2.4 2.5-.7.4-.5h2.5c.4.4.8 1 1.3 1.3a29 29 0 0 1-.8 10.3c.5.6.8.6 1.3.8l1.6.5h3.1c1.4.4 2 .4 3.6.4.5 1 .4.6.7 1.6v2.4a13 13 0 0 0-.2 2.5 18.8 18.8 0 0 0 1-1.3l.2-.1v-.1h.2l.5-.3.2-.2h.1l.1-.2.4-.7.7-1.1v-.1h.2ZM263.7 194.7l-1.4-.5c-1.6-.8-5.5-2.8-8.1-2.3h-.2c-1.3-.5-2.6-.8-3.9-1.1-.3 0-.7 0-1 .3l-.2.2-.2-.2-1.2-.7c-1.7-.8-3.4-.9-5.4-.9v.3c-.1.3 1.6 2.3 2 2.5.2.3.3.4.6.5l2.5.8c1.2.4 2.4.8 3.6 1l.9.6a23.9 23.9 0 0 0 5 2.5c.8.2 1.6.3 2.3.2 1.9-.1 3.6-1 5-2.7l.1-.2a.9.9 0 0 0-.4-.3Zm3.8-.7.2.2.2.3 1.1-.4 1.1-.8 1.5-.5 1.3-.7a17 17 0 0 0-4.2-3.5c-1.6-.9-3.5-1.4-5.5-1.6l-1.6.1h-.1l-1.9-.2c-1.8-.5-1.9-.3-3.2-.6a8 8 0 0 0-3.2 1.3c.4.6 1.5 1.2 2.4 1.7a18.4 18.4 0 0 1 4.8 1c2.2.8 4.4 2 7 3.7Zm36.4 60.4-.2.8-.3.7c-1 2-1.8 4-2.5 6-.9 1.2-1.6 2.5-1.9 3.4-.2.7 0 1.5.2 2.3.1.4 1.7 2.7 1.8 3v.5l.1.4-.2.6.6 4.4v1h.1l.2 1.7c-.2 2.1-.2 4.2-.1 6.3v1.6l.1 3.2h.3s0 .1.1 0c.7-.1 2.7-.5 3.2-1v-.1l.7-.2 1.2-.2c.4 0 .7-.3 1-.6l-.8 1 .9-1v-.2h.1l.2-.2.1-.2v-.6c.4-.6.5-1.5.6-2.1v-.3c.7-3.8 2.5-7.1 3.5-10.7l.2-1s.1-.1 0-.2l-.2-.1v-.2c0-.6 1.4-3.4 1.5-4 .1-2.2.2-4.8-.2-7.6v-.1l.1-.1v-.2c0-.6 0-1-.2-1.4v-2.1c0-2-.2-4.1-.4-6.3l-.2-2.9v-.2l.4-1.8c-.3-1.7-.4-1.6-1-3.7v-.2l-.2-.1v-.2l.3-1.6-.2-.3-.4.1-1.7 1.5-.1.3-.7.2-1.5 1.7-.9 1a25 25 0 0 0-3.2 5.2 9 9 0 0 0-.2 4.5v.2h-.2Zm1.1 67V324l-.6 2.1v.2h-.1l-.2.3c0 .7-.2 1.5-.4 2.4-.4 2.7-1 5.8 1.5 7 1.5.8 4.7-.6 6.8-3.4h.3l.2-.2.4-.7c1.1-.9 2-2.1 2.5-3.8V327.2l-.1-.2c-.6-1.8-1.8-6-3.3-6.5H311.7s-2.1-.3-2.5-1l.2-1 .1-.3h.2l.1-.2c0-.1 0-.2-.2-.3v-.2a9.4 9.4 0 0 0-1.7-3.3v-.1l-.6-2-.2-.6h.1v-.4h-.1l-.1-.1v-.1l-.2-.5c0-.3-.2-.5-.3-.8l-.1-.2a5.4 5.4 0 0 0-5.3 2.5c-1 1.5-1 3 0 4.4a5.6 5.6 0 0 0 2 1.9c.8.5.9.7 1.8 1.1v.1c.4.4 0 1.6.2 2Zm6.8 17.3v.6l.1.1h.5l.1.2h.2c.9.1 1.8 0 2.6-.2h.8c.8.2 1.7.3 2.5.2h1.1l.7.5.7.5.2.2v.2a10 10 0 0 0-1 4l-.1.3h-.1a4 4 0 0 0-.3 1l-.4 1-.4.7v.1c-.2 1.3-.2 2.6-.2 4v.8c0 .8 0 1.7.2 2.4l1 .2h2.6l1.6-.3 2.3-.2h.6l.5.1 2.7-.3 1.7-.3 4-1c1.6-.3 2.6-1 4-2l.5-.3c1.1-.7 2.5-1.2 3.8-1.6l1.7-.6c1.7-.6 3.2-1.5 3.8-3.3 0-.3.2-.5.4-.6l-.1-1c-.2-1-1.2-2-2.1-2.5h-.3l-.4.5-.2-.3h-.8l-1.4-.1a19 19 0 0 0-6.8.6h-.1c-1-.1-2.2-.3-3.6-.7h-.2v-.2c-.1-.8-.4-1.6-.7-2.3l-.1-.4-.2-2.1c0-.9-.5-1.2-1.2-1.6l-.3-.2c-.7-1.9-2.3-3.3-4.7-4.2-2-.8-4.3-.7-6-.4H320.7c-.8-.2-1.6-.2-2.6-.3 0 0-.2 0-.2.2a11 11 0 0 1-1.1 2.3l-.2.3c-1.3.8-2.7 2-3.8 3.2l-1.3 1.2v.3c0 .4 0 1 .2 1V338.8Zm34.8 32.4c-.2 0-.1.2 0 .3v.2l.2.1v.1c0 .2.2.3.3.3l1 .8h.2c.3.5.6.8 1 1 1.3 1 3 1.7 4.2 2 .8.2 1.6 0 2.6-.7.5-.2 1-.4 1.2-.8h.2l.2-.2v-.5c.3-1 0-2-.4-3v-.1c0-.7-.2-1.4-.3-2-.2-1.3-.5-2.5-.3-3.8l.8-4.6.4-1.7c-.2-1.1-.5-2-.9-3v-.3h.1c.1-.1 0-.3 0-.4l-.2-.1c-1.7.1-4 1-5.9 2l-.1.1c-2 .2-4 .7-6.1 1.6h-.1l-.8-.2h-.1c-.8.1-1.5-.1-2.2-.3l-.8-.3h-.4l-.2-.1c-.2.1-.6.5-1.6 1.8l.4.5.4.4c.3.7.4 1.5.5 2.1v.4l.1.1.1.1v.1c0 .2 0 .5.2.7.2.3.7.6 1.1.8h.2c1.2.6 2.3 1.1 3.5 1.4h.1l.3.3.6 1 .2.2v.1l.4 3.3v.1l-.1.1Zm26.9 17.9.2-1.9.4-1c.3-.8.5-1.5.6-2.3h.3-.3v-.2c0-.1 0-.2-.2-.3h-.4a13 13 0 0 0-3.6.9h-.5c-1.1 0-2.2.3-3.2.6-1.4.3-2.5.7-3.5 1.2h-.2c-1.7-.6-2.3-.4-2.5-.2l-.1.1h-.1c-.6.7-1.1 1.2-1.7 1.6l-.1.1-.3-.2.2.3h-.2l-.2.2a38.4 38.4 0 0 0-.4 5.4h.4l.8.4c.7.2 1.5.3 2.3.3l1 .1.6.1 2 .7.5.4c1.4 1.4 1.5 3.7 2.4 5.4 0 .2.4.4.7.4h.7c0 .2.3.3.4.3a20 20 0 0 1 4.2-.7 9 9 0 0 0 1-2.6l.1-.3.2-2.5v-.2l-.3-.6-.4-1.1a30 30 0 0 1-.7-2.2v-2l-.1-.1v-.2Zm-15.6-5.8v.3c0 .2.1.3.3.3l.2-.1.7-1.3h.2c1-.5 2-.5 3-.4h.9c.8 0 1.9-.1 2.8-.4H366.3c.1.1.3.2.4.1l1.5-.8 2-.2c1-.1 2.1-.5 3.1-.7a29 29 0 0 1 2.3-.6h.2l.1.1.7.7.1.1.9 2v.1c0 1.7 0 3.6-.3 5.4V388.1l-.4 1.4.2.4.4.2-.3.3-.1.2c0 1.7.2 3.4.5 5.4l-.4 2-.1.4c-.2.6-.4 1.3-.4 2l-.1.1-.1.2-.1.1-.1.2c-.6.9-.9 1.4-.3 2l-.1.3.2-.3v.1l1 .7h.1l.4-1.1c.7-1 1.8-1.2 3-.7.3 0 .5-.2.8-.3h.2c.3.2.5.2.8.2a33.6 33.6 0 0 0 2.6-.8h.2c1.4 0 2.7-.4 4.6-1l1.6-.3 1.8-.3h.2c.7.4 1.3 1 1.9 1.5l.3.3v.4l-.1.6c-.2 1.6-.2 3.2-.2 4.9V408.8l-.1 1.1V410.8c.2.3.5.4 1 .5l.7-.7.1-.1h.1l3.8-.4c.6-.7 1.3-1.2 2.3-.9 1.2.5 1.3 1.9 1.3 3 .2.7.2 1.5.1 2.2.1 1.7.3 3.6-.8 4.6-.6.6-1.7 1.1-2.5 1.5-.2.3-.2.7-.2 1 0 .7-.1 1.4.5 1.8 0 .3.4.5.8.5 1.9 0 3-2.1 3.2-4 1-1.5 1.6-3.5 2-5.9l.2-.8.2-.5v-.3l.1.4a17.8 17.8 0 0 0 .5-1.7v-.1l.1-.2.7-.7 1.4-.8 1.7-.8s.2 0 .2-.3h.1l.4-.7.2-.5v-.2l1.7-4.5.5-1.3v-1.4c0-.6.2-1.7 0-1.9 0 0 0-.2-.2-.2h.3v-.1l-.4-.8-1.6-1.6c-.6-.4-1.3-.4-2.1-.4H410l-.3.3v.2l-.7 1.4v.1h-.1c-.9.5-1.6 1.1-2.3 1.8l-.1.1h-.2c-1-.3-2.3-.4-3.8-.3h-1.1c-.4-.3-.8-.2-1.3-.2H399a8 8 0 0 1-2.6-.3 1.4 1.4 0 0 1-.4-.2l-.1-.1v-.5c.4-1.7.6-3.2.6-4.6v-.2l-.1-.1v-.1l-.3-1.4-.4-2.4V387.7c0-.9 0-2 .6-2.9.3-.4 1-1 1.6-1.1.3 0 .5 0 .7.2l.8-.1.4-.2-.9-3.3v-.2c.3-.6.3-2.4.2-2.8H398.3a13 13 0 0 1-3.1-1.1h-.4l-1.7 1.6-.7 1.6c-.2.4-.5.6-.8.6h-1.2l-1.5.5h-.2l-.2-.1-.2-.2h-1.6l-.3-.1a1 1 0 0 1-.4 0l-2-.4-2.6-.4-2-.5-5-1h-.1c-.8-.3-1-.5-1.3-.7-.1 0-.2 0-.3-.2v-.2c-.1-.5 0-1.2.2-2l.3-1.2c.2-.9.1-1.8 0-2.7v-2c0-1 0-2-.2-3 0-.7-.3-1.4-.6-2l-.5-2v-.2l-.3-.9-.1-.2.3-.4 1.2-1.3v-.7c1-1.3 2.3-2.7 4-3.2l.3-.3-.1-.3c-1-.5-1.8-1.1-2.6-1.8-1.3-1-3-3-4.4-3.5-1.2-.3-2.4-.2-3.7 0h-.4c-2.8-2-5.5-3-8.4-3.5h-.6c-1.1-.3-2.3.5-3.1 1-.6.3-1.3 1.2-2 2.8v.1l-.7.5c-1.1.3-2 .8-2.8 1.2H348.1c-.6.5-1.4.7-2 1l-.8.1c-1.4.4-2.7.7-3.6 1.9v.3h.5l1.5-.8.3-.1.1.3s.1.2.3.2h.7v.2l.2.7h.1l.1.1s.2.2.4.1c.7-.3 1.4-.8 2.1-1.3h.2l1-.2h.4v.2a346.3 346.3 0 0 1 .4.8c.3 0 .6-.3 1-.5l.1-.2.7-.5 1.4-1 .2-.2.2.2.2.3.1.1h.2l3-1h3.1l.1.3c.4 2 .4 4 .4 5.8v.7c-.2 1.5-.3 3-.2 4.2v.1c-1 2-1.2 4.5-.7 6.2.1.5.5.9.9 1.3.3.3.6.6.7.9v.3c-.3 1.2-.6 2-.7 2.9-.9 1.6-2.1 3.1-3 4l-.7.7v.3c.6 1.4.6 2.4.7 3.7Zm36 19.3c0-.4-.4-.8-.8-.8-2.9-.1-5.9 1-8.8 1.2-1 .1-2 .2-2.8.6h-.2c-.6.2-1 .4-1.5.9l-.3.1v.5l-.2.4c-.7 2.6 1.1 3.7 3.2 4 .2.2.4.3.7.2h.3l2-.2.3-.1c1 .3 1.4 1.2 1.9 2l.6 1.2.1.1c1 2 3.9 2.3 5.4 1l.2-.2v-.1h.1c.1-.2.2-.5.1-.7l-.2-.4-.5-.5c-.7-3 .1-6.1.4-9.2Zm9.3 11.2.1.3v-1.5c.1-.5-.2-1-.7-1a.8.8 0 0 0-1 .4h-.3l-.2.2h-2c-.7 0-1.2.1-1.8.4l-.3.1c-1 .6-1.3 1.6-1.6 2.6-.2 1-.4 3.4.6 4.1.1.4.6.6 1 .5l2.2-.7c.5-.2.8-.2 1.1-.5.6-.2 1.1-.4 1.6-.8 1.2-1 1.3-2.3 1.3-3.6v-.5Zm55.1 22.7c-2-.2-3.2.3-5.2 0H452l-2.5-.8c-.4-.1-.7 1.2-.8 1.5l-.1.1c-.4.4-.6 1-.8 1.5-.7 1.1-.8 1.8-1.2 2.9l-.3.6a55.6 55.6 0 0 0-1.7 2.7l-.8.9v.1l-.4.6-.3.3c-.3.6-.9 1.2-1.4 1.7v.2c-.3.2-.6 1.3-.7 1.5-.5 1-1.2 1.8-1.8 2.7 1 .5 2.9 0 4.8-.4l2.9-.6c.6-.3 1.2-.6 2-.7 1-.6 1.8-1.5 2.6-2.4l.9-.8c.8-.7 1.6-1 3-2.3.4-.3 1.4-1.5 1.9-2.7l.7-1.3c.3-1 .6-1.6.7-2.7v-.7c0-.2 0-1.9-.4-2v.1Zm-15.5 6.5.1-.3c1.1-1.5 2.6-3.7 3.1-5.7.2 0 .4-.3.4-.5l.1-.6.1-.1c.6-1.8 1-3.5 1.3-5.3a19.7 19.7 0 0 0 .7-3.9l.1-1.7c0-.2 0-.3-.2-.5 0-.5 0-.4-.4-.4-3.2.5-5.9 3.3-8.1 5.4l-.5.4-1 .7-3.2 2a6 6 0 0 0-2.1.8l-2.3 1.4c-1 .6-2.2.6-3.4.9-2.5.5-4 2.6-5 4.8-2 2.5-2.7 5.6-1.2 9.7.1.3.4.6.7.6h.2c1 1 2 1.2 3.9 1.3 2.4.2 5-.4 7.5-1.4H434c.6 0 1-.4 1.5-.8 1.4-.8 2.6-1.7 3.7-2.7 1.5-1.1 2.7-2.7 3.7-4Zm-1.9-20.6-2-.7c-1 0-1.6 0-3 .3l-1.6 2-.6.1c-.6 1-1.2 1.3-1.8 2.2-.4.5-.3.7-.6 1.2v.1l-.1.2-4 5c-.3.2 1.5 0 1.5 0l3-1a19 19 0 0 0 9.5-7c.4-.4-.2-2.3-.3-2.3Zm-18.5 12.8.6-1 .2-.5.3-.3.8-1 2.7-3.2c.7-1 1.2-2 1.7-3l1-1.8.2-.2v-.2h.1l.1-.2.1-.1c.5-1 1-2.1 1.3-3.1l.6-1.5V418.6l-.2-.1c.1-.2.2-.4 0-.6a8.3 8.3 0 0 0-2-3.3c-.2-.4-.6-.7-1-1a.7.7 0 0 0-.6-.3l-.7-.4c-2.3-1.3-4.6-3.6-7.3-4.3-3.2-.9-5.6 1.2-7.2 4-.3 0-.3.4-.5.5a5 5 0 0 0-.7.3h-.4v.2l-.1.1a16 16 0 0 0-.8 2.7l-.2.7c-.6 1-1 2.2-1.4 3.3a22 22 0 0 0-2.7 7.2c-.7 1.2-1.8 2.2-2.5 3.5-1.2 2.6-3 5-4 6.8-2.3 2-3 3-4.9 4.5l-.6.4c-.4.3-.3.7-.1 1.1.7 1.3 2.3 1.1 3.5.9 1.4 0 2.8.2 4.3 0l2.5-.4h.5l.2-.1 2.2-.5.4-.1a23.5 23.5 0 0 0 8-2.7c.6-.3 1.6-1.1 2.5-1.8l1.9-.7c.8-.5 1.6-2.4 2.2-3.5Zm-24-43.4-.2 1.7v.7l.4.8c.4.3 1.6.4 2.4.5h.9c1.8.4 3.4.3 4.8.2l.3-.6c.2-.4.4-.8.7-1v-1.5c.3-1.2-.4-2.2-.6-3.2-.1-.4-.4-.6-.7-.6-1-1-2.1-1.4-3.2-2a.8.8 0 0 0-.5-.2c-1-.3-1.9-.7-2.9-.6-.2 0-.4 0-.5.2l-.6-.1-.4.3-.1.4c0 .8.1 2 .3 2.8v2.2h-.1Zm-14.6-24.3v-1.3l.2-.1c0-.1.1-.2 0-.4l-.7-1.6-.2-.2.3-.2.1-.2-.2-2.3V360.8h-.2l-.1-.1c-.4-.2-1-.9-1.7-1.7l-2-2c-1.2.3-3.3 1.3-3.7 1.5v.1l-1 3.4c0 .2 0 .8.7 2.4v.3c.3.7.3 1.4.3 2.2v1.2a78 78 0 0 1-1 7.5l1.2.4.8.2c1.3 0 2.3-.1 3.3-.5h1.2l2.6.2 2.2.3c1.4.2 2.6.6 3.7 1.2h.5l1.5-2 .2-.2.8-.9c.6-.7 2-2.3 2-2.7l-1.2-.9-1.3-1h-6.3v-.2l-1.6-1.6-.4-.4v-.1Zm-73.6-71a7 7 0 0 0-1.2-3.5l-.2-.1-.3.1v.2h-.6c-1 0-2.3 0-3 .7l-1.1 1.5-.5.5c-1.6.9-2 2.6-2.2 4.1l.1.4 2.3 1.6.8.6v.2l.2.2H304.8l.3.2.3.2.2.1.1.3v.2l.1.1h.3c1.7.4 3 0 3.7-.8v-.1c.2 0 .2-.1.2-.2v-.2h.3l.2-.2c.3-1.1.4-2.3.4-3.4v-.1c.3-.3.4-.8.2-1.3l-.8-1-.2-.2v-.1ZM455.5 455c1-.8 1.6-1.3 2.5-2.3l.7-.6 1.7-1.7.5-1.2.6-.8.6-2.2.4-1.2.2-.5v-.7c.3-.5.4-1 .5-1.5 0-.4.1-.6 0-.8l-.6-.1-1 .7-1.9 1.4c-1.6 1.7-1.7 1.8-3.1 3.6l-2.4 1.6-2 1.3-.4 2c-.2.8.2 1.6 1.1 2.3.8.6 1.6.9 2.5.7Zm-17.4 5.8 2.2.5c1.7.2 3.7.6 5.4.5 1.4 0 3.4-.6 5-.9l.8-.3.3-.1c.6-.2 1-.4 1.5-.8.4-.2.7-.5.5-.9l-.5-1.2c0-.3-.7-1-1-1.1a7.8 7.8 0 0 0-2.3-1.6c-.6-.3-1.4-.8-2.1-.7h-.9c-1.2.5-2.3.1-3.4.8l-4.3 1.7-1.8 1.7c-.9 1-.2 1.9.6 2.4ZM224.8 249l.8.8.2.2v.1c.8.5 1.3 1 1.8 1.5l2 3c1.7 1.2 3.2 2.8 4.4 4.4l.2-.3a24 24 0 0 1-.3-1l-.3-1-3.4-5.7-.3-.3-.2-.2-.4-.2-.1-.1c-1.1-.7-2.5-1.1-3.8-1.5l-.5-.2v.5Zm-16.8-84c.7 0 1.5.4 2.7 0 .7 0 1.3.2 1.7.4l.3.2c1 1.2 1.3 1 3.2 3.1.4 1.1 1.1 4 1.9 5.3l.2 1 .7 2.6v.2l.3.6 1 .5.8.4 1.1.8h.1v.1c.4.8 2 2.6 3.7 4.6 1.9 2.2 4.3 5 6.1 7.6v.2c.3 4.2.7 8 1.6 11.5l.4 1.3v.1a24 24 0 0 1-.5 2.3l-.1.2-.3.3a15.4 15.4 0 0 0-2.5 4c-.3.6-.6 1.2-.8 2-.9 1.8-1.7 3.8-3 5.4l-.1.1h-.1c-3 .9-5 1.7-7 2.6H218.5c-.5-.1-1.9-2-2.4-2-1.4 0-2.8 0-4.1.7h-.3v.2l-.5.3-.7 1.7-1 1.7c0 .7-.3 1.3-.3 2.4l.2.9v.1l-.6 2.7c.1.6.3 1.5 1 2.7v.1l1.4 3.8v.1l-.1.1c-.1.2.5.6.6.7h.1v.2c0 .4.3.7.7.7h.2v.1l.6.6c.3.4 1 1.2 1.1 1.1l1.1-.2 1.6-.4s.3.2.4.1h.1l.4.1 3 1.9c1.3.9 2.6 1.8 4 2.4l.3.2.6.2h.1s2 .4 2.9.4h.1l2 1 .5.3.9.9 2 2.2c.5.7.8 1.4 1 2.1l.2.7.3.9.9 2.5c.5 1.2 1 2.3 1.1 3.5.5 1.1.8 2.2 1 3.2l.2.4.2.3h.2l.3.2 1 2.5c0 .4.3.7.8.8l.2.1.2.2a71 71 0 0 0 2.1 2.6l1 1.1v.2a187 187 0 0 0 3.6 8.7l.5.8 1.3 2.4.8 1.2.2.2 1 1.6 2.7 6.8.3.5.6 1.3.5 1v.2c.4 1.7 1.4 3.1 2.5 4.6l.9 1.2.1.3.5 1.2.5 1.8v.2l-.2.1-.3.2H260.3l-3.1-2.7-.3-.3-2-3-.8-1.9-1.6-3.4-.3-.7-1-2.9-.2-.2v-.2l-.5-.4h-.1l-.2-.1v-.1l-.4-.5-.8-1.4c.5 1.8.6 1.8.5 2a10.7 10.7 0 0 0 .7 4.3v.2l.2.5c.2.9.6 1.8 1.2 3l.2.4-.1.1v.2a52.9 52.9 0 0 0 .4 7v.1l.6 3.6v.4l.2.5v.3l.1.2.2.5.2.3c.2 1.4.6 2.6 1 3.7a41 41 0 0 0 3.1 5.5c1.5 3.3 3 6.1 4.8 8.6l.4.6.2.3c2.1 2.8 5.3 6.9 9 10.8l1.7 1.7.3.3.4.6 1.9 2.3 1 1.2.4 1c1.2 3.3 2.4 6.8 4.2 9.8V359a51 51 0 0 0 5 3.6c1.5 1 3 2.1 4.5 3.4 2.5 3.3 2.7 7.1 5.5 9.7l1.4 2.5.1.3v.3l.1.2v.1l.1.1v.1l.2.2.7 1.4.1.2H299.8v.2c2 2.4 5.2 3.9 8.3 5 0 0 .1.1.2 0l.3.2.9.5.2.1c1.3 1.2 2.4 2 3.5 2.6l.1.2c.9 1.2 1.7 2 2.5 2.8l.1.3 1 2.4c.8 1.2 2 2.3 3.3 3.4l1.5 1.3-.2.2.3-.2v.1l.3.1h.1l.7.6c1.6 1.4 3.4 3 5.4 3.9l.2.1.4.3.3.2c.5.3 1.1.7 1.7.9h.1l2 1.8v.2c.3.9 1.4 1.9 2 2.6l.4.3 2.8 2.5a126.3 126.3 0 0 1 7.6 7.2l.7.6c.7.8 1.3 1.5 2.2 1.9 2.2 1 4.6 1.7 7 2.3h.2l.5.2c.4.2 1 .4 1.7.5l3 1.6h.2v.1c1.5 2.5 3 5 5 6.8l.2.4c.5 1.1 1 2.3 1.7 3.2l1.2 1.2.1.1c.8 2.2 2 3.6 3.8 4.4l.4.1.2.4.4.6.6.3.7.2 3.6.6c1.3.8 2.5 1.6 4 1.9 2 1 4 1.7 6.2 2.3l.9.8c1.5 1.4 3 2.8 4.6 4l1.7 1 .1.1a56 56 0 0 0 3.6 4.9l.2-.1h.1l.3.3c1.5.7 3.8 1 6 1l2.7.7h.2l.2.1h.6v.2l.4.1a25 25 0 0 0 4-1.2h1.7l.2-.1v-.1h.4l.6-.6.3-.3h.2l.1-.2.1-.1 2.7-2.2h.1l2.1-.4 1-.2 2.8.1h.1l2.3 1.3c.6.3 1.1.6 1.6.7a5 5 0 0 0 2.3-.3l1.3-.2c.4 0 .7-1 .8-1.5.5-.4.8-1 1.1-1.5.4-.4.8-.8 1.2-1l1-1h-1a.6.6 0 0 1-.6-.6c0-1 .6-1.8 1.2-2.6l.3-.4.7-.9.2-.4a17 17 0 0 1-4 2.8c-2.9.6-5.7 1.8-8.8 1.9-3.3 0-5.9-.9-7.8-2.7a7 7 0 0 0-.2-.4V450.7l-.8-4.8.3-.4v-.6l.2-.4v-.5c0-.3.5-.8.5-1.3l-.9.6-1 .7a40.8 40.8 0 0 0-3 1l-2 .7c-2.5.7-5.5.7-7.9 1-3 .5-6 .7-9 1l-2.1-.5-.6-.3-.8-.4-.4-.4-.4-.1c-.3-.7-.2-1.1-.4-1.9l.4-.3c.8-.8.6-1.3.8-1.5.9-.7 1-.6 1.7-1.4l.7-.4 1.2-1.6a15.6 15.6 0 0 0 5.3-7.4c1-1.4 1.8-2.7 2.6-4.4v-.4l.2-.4v-.5l-1.6.2c-.4 0-.7 0-1-.3-.3-.5-.4-1.3-.6-1.9l-.5-2-.2-.1-1.4.1c-.6 0-1.4.2-2 0-1-.3-1-1-1.4-1.7a.5.5 0 0 1-.4-.4l-.2-.5-.1-1.6c0-.6-.5-1-1-.8-1.8.3-3.5-.2-5.2-.8l-.3-.3v-.1c-.3-.7-.8-1.5-1.4-2.3v-.1s0-.3-.2-.4l-1.2-.7v-.2l-.3-.2h-.9l-1.2-.1h-.3l-.1-.1a26.6 26.6 0 0 0-3.8-2.4l-1.1-2.5s0-.2-.2-.2h-.1l-.1-.1a5.6 5.6 0 0 0-4-2.4c-1.3-.2-3 .4-4.4.6-1-1-2.3-2-3.5-2.8-.2-1.4-.7-2.8-1.7-3.5-1-.6-2.4-1-3.7-1.1-.5-.5-1-1-1.7-1.3l-1.9-1-.6-.2-1-1.2V389l.2-1.1a51 51 0 0 0 .4-4h-.1v-.2l-.1-.8v-.2a6 6 0 0 0-1-2.4v-.2l-.1-.1-.1-.2-.2-.2-.2-.1h-.2c-.7-.5-1.3-.7-2-.7v-.1c-2-1.6-4.2-3-5.8-4l-.6-.3-.2-.5-.2-.5c-.3-2.3-.8-4-1.8-5.3-.4-.5-.8-.8-1.3-1.1l-.3-.2-2.8-1.6h-.1v-.2l-1-3.6c-.4-1-.9-2.2-1-3.4l-.1-.1-.1-.2v-.3l.2-.2v-.1l.2-.1-2.4.5h-.1l-1.6.7h-2.7c-1.6 0-3.2 0-4.8.2h-.6l-2 .3h-3.9v-.1l-.4-.3h-1.3v-.2l-.4-2.5-.2-1.5v-.8c.2-1.2.4-2.5.5-4.2l.4-2a68.8 68.8 0 0 0 .9-2.5l.3-1v-.3s0-.2-.2-.2l-1.3-.6c-1-.4-1.9-.9-2.7-1-.7-.2-1.4-.2-2-.2h-.2c-.4-.6-.7-.8-.9-1-.4-.5-.6-.7-1.2-2l-3.6.8-2.3.3h-.1v-.1c-1-1.2-1.7-2.4-2.3-3.7l-.3-.7v-.1a50.6 50.6 0 0 0 .9-5.8l.1-1.5c.2-1.6.3-3.4-.1-4.4l-.1-.2-.1-.4c-.6-.4 0-1.3-.8-1.7l-.7-.2c-.6 0-1.1-.2-1.4-.4-.5-.4-.8-1.2-1.1-2l-.4-.8-1.1-2.1v-.5l.8-2c.7-1.4 1.6-3.2 2-4.8l.1-.1a19.3 19.3 0 0 1 2.2-2.2c0-.1 0-.2-.2-.3l-.4-.4c-.7-1.1-1.8-1.7-2.9-2.4l-.7-.4v-.2c-.1-.4-.2-.7-.1-1.1 0-1 .2-2 .7-3.2a48.4 48.4 0 0 1 2.5-3.7c-.4-.7-.9-1.5-1.3-2.6a19.5 19.5 0 0 0-1.4-4v-.1c.2-2.9.1-5.3-.2-7.7l-.3-2a43.1 43.1 0 0 1 .3-3.9c.1-1.3.3-2.8 0-4-.1-.9-.7-2-1.4-2.9l-.2-.4v-.5l.1-.2c1.8-3 3.2-6 4.1-9 .6-.7.9-1.2 1-1.7.7-1.5.7-3.7.6-5.8a59 59 0 0 0 1.4-5v-.2l1-1 1.4-1c1-1 2.2-2 2.9-3l1.4-2.9.7-1.3c.5-1 1-2 .8-3.1a7 7 0 0 0-1-2.5v-.1l-.2-.6c-.3-1-.6-1.2-.9-1.5v-.1l-.7-1.6-.2-.4-.2-.4-.7-1v-.2l-.2-.2v-.2l-.4-1.4c-.7-1.7-1.3-4-2.5-5.2l-.4-.5c-2.2-3.2-4.4-6-6.8-8.5a89.3 89.3 0 0 0-3.5-5.1l-.1-.2v-.4c0-.3-.3-.6-.8-.8l-4.8-1.7c-3-1.8-6.3-2-9.2-3H277.3l-1.5-1.4-1.4-1.3-3.2 1.3-2.2 1.5c-.4.5-1.6.5-2 1l-.4.7-.6.8-.2.3-1 .9h-.2c-4.2 0-7.4 1.1-10.5 1.6h-.2a60 60 0 0 0-2.4-1.3 10.7 10.7 0 0 0-3.6-2.7l-2.8-1.4-1.3-.7c-1-.8-3.2-4-3.8-4.8v-.2l.2-.7-2.1-.1-.8-.1h-.8c-.1 0-2.2-1.6-5-4l-6-7.7c0-.3.2-.5.3-.6l-.9-1c-.5-.5-1-1-1.7-2l-.2-.8c-.4-1.6-1.4-3.2-1.6-3.4l-1.1-1.8c-.3-.4-.1-2.6-.3-2.8l.2-2.5h-.2l-.6-.1c-.3 0-.5-.2-.8-.3l.2-.2.6-.1.8-.3v-2.1l-1-.5h-.6l-.5.2c-1.8.1-4.1.8-4.8 1-.3 0-1.9 1-3 1.7l-.8 1.1-.3.2-.5.5-.4.2-.4.3v.2l-.3.2-.1.3-.1.2.8-.4h-.2Zm-7.4 4.7c.3.6.7 1 1.1 1.4l1.6-.1c.7-.5 1-1 1.5-1.5l.1-2.2c0-.7.2-1.5.4-2l2.5-2.7 1.2-1.4 1-.5 1.8-1.8c.1-.3.4-.9.6-1 .3 0 1.3-.5 1.4-.4l.5-.2.1-.4-.2-.4c-.4-1.5-.2-.8-.4-2.3 0-.2-.5-.6-.5-.6l-1.6.6-1.7 1.5-1.5 2.1-.5.4c-.4.3-2.5 3.3-3.5 4.2l-1.2 1-1 1.3-.4.2-.3.6c0 .2-1 .9-1 1a11 11 0 0 0-.3 1.6c.2.5 0 1 .3 1.6Z"/><path fill="#231F20" fill-rule="evenodd" d="M949.9 629.2a6 6 0 0 0 0-1.7l-.6-2.4-.8-2.7v-.3l-.7-3.6-.1-4-.1-4.3-.1-4.2c0-1.8.2-2.7.4-3.7.2-1.1.5-2.4.5-4.8a24 24 0 0 0-.4-4.6 19.3 19.3 0 0 1 .1-7.5c.3-1.2.7-2.4.7-4.8 0-2.3-.1-3.4-.2-4.5l-.2-4v-4.3l-.1-4.2v-4.2a217 217 0 0 0 0-8.6l-.1-4.1-.2-4.5-.1-4-.1-4.4a82 82 0 0 1 .2-8 29.3 29.3 0 0 0-.1-9.3c-.2-1-.4-1.9-.4-3.8l.1-4 .2-4.5V500l-.1-4.1v-4.2l.1-4.3-.1-4.4-.2-4c0-1.8.3-2.6.6-3.6.4-1.2.8-2.5.8-5 0-2.2 0-3.3-.2-4.4l-.2-4v-4.2l.1-4.3c0-2.2 0-3.3-.2-4.4v-4l-.1-4.3v-4.2c0-2 0-3 .2-4a32 32 0 0 0 0-9l-.1-4-.1-4.3c-.1-1-.2-2-.2-4.1v-12.8l-.1-4.2c0-1.8.2-2.7.4-3.7.3-1.1.5-2.4.5-4.7 0-2.4-.3-3.7-.5-4.8-.3-1-.5-1.9-.5-3.7v-4.3l-.1-4.2c0-2 .1-2.9.3-3.8.2-1.2.4-2.4.4-4.7V356a792 792 0 0 1-.2-8.6l-.1-4c0-2.3-.1-3.4-.2-4.5l-.2-4c0-1.9.3-2.7.5-3.7.3-1.2.6-2.4.6-4.8l-.1-4.4-.1-4.1-.2-4.4-.2-4v-4.3a271.7 271.7 0 0 1-.1-8.5l-.1-4.2c0-2 0-3 .2-4l.2-4.5.1-4c.2-1 .3-2.2.3-4.4l-.2-4.4-.1-4.1c0-2.3-.2-3.5-.4-4.7-.2-1-.4-1.9-.4-3.8v-4.2l.1-4.3c0-1.8.2-2.7.4-3.7.2-1.2.5-2.4.5-4.7 0-2.3-.2-3.6-.5-4.7-.1-1-.3-1.9-.3-3.8l-.1-4.3-.1-4.2v-4.2a217.6 217.6 0 0 0 .2-8.3l.2-4.4.2-4a36.5 36.5 0 0 0 .1-8.9l-.1-4 .1-4.1.1-4.4c0-2.4-.3-3.7-.5-4.8-.3-1-.5-1.8-.5-3.7 0-1.8.3-2.6.5-3.5.4-1.2.8-2.5.8-5v-16.9c0-2.2-.2-3.3-.3-4.4l-.1-4c0-2.3-.1-3.4-.2-4.5l-.1-4V123l-.2-4.4-.1-4v-8.5l.2-4a31 31 0 0 0-.1-9.2c-.2-1-.4-1.9-.4-3.8l.1-4.1v-4.3c0-1.9.3-2.7.5-3.7a19.1 19.1 0 0 0 0-9.6h.1c-.2-1-.4-1.8-.4-3.7l.1-4v-.1l.1-4.4V47c0-2 .2-2.8.4-3.8.2-1.2.4-2.4.4-4.7a23 23 0 0 0-.4-4.6c-.2-1-.4-2-.4-3.9l.1-4v-.1l.1-4.3V13c0-1.1.3-1.9.8-2.9l.4-1.2c.3-.8.6-1.9.4-3.1a6.1 6.1 0 0 0-1.9-3.4c-1-1-2.2-1.7-3.6-1.8-1.3 0-2.4.4-3.1.8l-1 .5c-1.1.5-1.8 1-3 1-2 0-2.8-.2-3.8-.4a25.7 25.7 0 0 0-9.4 0v-.1c-1 .1-2 .3-4 .3s-3 0-4-.2a54 54 0 0 0-9 0l-4 .2c-2 0-3-.1-4-.3l-4.7-.2-4-.2c-1.1-.2-2.3-.3-4.5-.3-2.4 0-3.7.3-4.9.6-1 .3-1.9.5-3.7.5-2 0-3-.1-4-.3l-4.6-.2h-4.2l-4.4-.1c-2.3 0-3.5.2-4.6.4a170.9 170.9 0 0 1-8 .3h-.1a176.4 176.4 0 0 0-8.5-.2c-1-.1-2.2-.2-4.5-.2-2 0-2.9-.2-3.9-.3a28.4 28.4 0 0 0-9.3 0c-1 .3-2 .4-3.9.4-2 0-2.8-.2-3.8-.3-1.2-.3-2.4-.5-4.8-.5l-4.1-.1-4.4-.1a16 16 0 0 0-5 .6c-1 .3-1.8.5-3.6.5s-2.7-.2-3.6-.5c-1.2-.3-2.5-.7-5-.7-2.4 0-3.6.3-4.8.6-1 .2-1.9.4-3.8.4h-4.2l-4.3-.1-4.2-.1a89.6 89.6 0 0 0-9 .2c-1 .2-2 .3-4 .3-1.8 0-2.6-.3-3.5-.5-1.3-.4-2.6-.8-5-.8-2.3 0-3.5.2-4.6.3-1 .1-2 .3-4 .3-2.3 0-3.5 0-4.6.2l-4 .2c-2 0-2.8-.1-3.8-.3a22 22 0 0 0-4.8-.5h-4.3a142.8 142.8 0 0 1-8.3 0l-4.5-.2c-2.4 0-3.7.4-4.9.7-1 .2-1.8.5-3.7.5l-4.2-.1-4.3-.1h-8.6c-2 0-3 0-4-.2a50.8 50.8 0 0 0-9.2.2c-1 .2-2 .3-4 .3-1.8 0-2.7-.2-3.7-.4-1.2-.2-2.4-.5-4.8-.5-2.3 0-3.4.2-4.6.3-1 .1-2 .3-4 .3l-4.1-.1-4.4-.1c-2 0-3 0-4-.2a46 46 0 0 0-4.6-.2c-2.3 0-3.6.3-4.8.6-1 .2-1.8.4-3.7.4-1.9 0-2.8-.2-3.7-.4-1.2-.3-2.5-.5-4.9-.5l-4.2-.1h-4.4c-2.3 0-3.5.1-4.6.3-1 .2-2 .3-4 .3h-4.1a99.3 99.3 0 0 0-8.9 0l-4 .2h-8.6c-2 0-2.8-.2-3.8-.4-1.2-.3-2.4-.6-4.8-.6a29 29 0 0 0-4.6.4l-4 .2-4.4.2-4.2.1a14 14 0 0 1-3.7-.4c-1.2-.3-2.4-.6-4.8-.6-2.5 0-3.7.4-4.9.7-1 .2-1.9.4-3.7.4l-4.4.1-4.2.1c-1.9 0-2.8-.2-3.7-.4-1.2-.2-2.5-.5-4.8-.5h-8.6c-2.3 0-3.5.1-4.6.3a26 26 0 0 1-7.7-.1 42.1 42.1 0 0 0-9.3-.3c-1 0-2 .2-4.1.2l-4.6.2c-1 .2-2 .3-4 .3-2.2 0-3.4 0-4.5.2l-4 .1c-1.8 0-2.6-.2-3.6-.6-1.2-.4-2.5-.8-5-.8-2.3 0-3.5.2-4.7.3a94.4 94.4 0 0 1-8 .2 99.1 99.1 0 0 0-9 .2 30 30 0 0 1-8 0 33.7 33.7 0 0 0-9.3.2 17.4 17.4 0 0 1-7.5 0v-.1a26.2 26.2 0 0 0-9.5-.3c-1 .2-2 .3-4 .3h-4.2a219.9 219.9 0 0 0-8.7 0c-1 .1-2 .2-4.2.2-2 0-2.9-.2-3.9-.3-1.1-.2-2.3-.4-4.6-.4h-4.2a147.8 147.8 0 0 0-8.9.1l-4 .2c-2.4 0-3.6.1-4.7.3a22.1 22.1 0 0 1-7.6-.1c-1.2-.3-2.5-.6-4.9-.6h-12.8a220 220 0 0 0-8.7 0c-1 .1-2 .2-4.1.2-2.4 0-3.7.3-4.9.6-1 .2-1.8.4-3.7.4-2 0-3 0-4-.2a40.4 40.4 0 0 0-9 0c-1.1.2-2 .3-4.1.3-1.9 0-2.8-.3-3.7-.5a18 18 0 0 0-4.9-.6h-4.3L252 2c-2.3 0-3.5.2-4.6.4a25 25 0 0 1-7.9 0v-.1a25.5 25.5 0 0 0-9.4 0c-1 .3-1.9.4-3.8.4l-4-.1a48.3 48.3 0 0 0-9 0h-8.2l-4.5-.2c-2 0-2.9-.1-3.8-.3a32.8 32.8 0 0 0-9.2 0h-.1l-4 .2c-2 0-2.9-.2-3.9-.3-1.2-.2-2.3-.4-4.6-.4h-8.6c-2.3 0-3.5.2-4.7.4a34 34 0 0 1-7.9.1 38.8 38.8 0 0 0-9.3.3c-1 .2-1.9.4-3.8.4-1.8 0-2.7-.2-3.6-.5a18 18 0 0 0-5-.5 46 46 0 0 0-4.4.1l-4 .2a22 22 0 0 0-4.8.5c-1 .2-2 .3-3.8.3l-4.1-.1a50.9 50.9 0 0 0-8.8-.1 94.4 94.4 0 0 1-8.1-.2c-1.2-.2-2.4-.4-4.7-.4l-4.4.1h-4.2l-4.3.1h-4.2l-4-.2a29 29 0 0 0-4.6-.4h-8.5c-2.4 0-3.6.3-4.7.5-1 .2-2 .4-3.9.4-1.8 0-2.7-.2-3.6-.5a30.7 30.7 0 0 0-9.5-.3c-1 .1-2 .3-4 .3l-4-.2-4.5-.2a16 16 0 0 0-5 .7c-1 .3-1.8.5-3.6.5-1.1 0-1.8-.3-2.9-.9l-1-.5a6 6 0 0 0-3-.7C4 1 2.9 1.6 1.9 2.6S.2 4.8.1 6.1a6 6 0 0 0 .7 3.1l.5 1c.5 1 .8 1.8.8 2.9v8.5c0 1.7-.3 2.6-.5 3.5-.4 1.2-.8 2.5-.8 5 0 2.4.4 3.7.7 4.8.3 1 .5 1.8.5 3.6v4.2L1.9 47l-.2 4c-.1 1.1-.3 2.3-.3 4.5v12.7a97.3 97.3 0 0 0 0 8.7c.2 1 .2 2 .2 4 0 2.3.2 3.5.3 4.6.1 1 .3 2 .3 4v8.4c0 2-.2 3-.3 4 0 1-.2 2.2-.2 4.5 0 2-.2 2.8-.3 3.8-.2 1.2-.4 2.4-.4 4.7l.2 4.5c.2 1 .3 2 .3 4V136a286.4 286.4 0 0 0-.3 8.3 45.2 45.2 0 0 0 .2 9.1c.2 1 .4 2 .4 3.9l-.2 4a45 45 0 0 0-.1 8.8v4.1l-.1 4a43 43 0 0 0 .2 9v.1c.1 1 .3 2 .3 3.8l.1 4.5.2 4c0 1.8-.2 2.7-.5 3.6-.3 1.2-.6 2.5-.6 4.9v8.5c0 2.3.3 3.6.5 4.7.2 1 .4 1.9.4 3.7 0 1.8-.2 2.7-.4 3.6-.3 1.2-.7 2.5-.7 4.9l.2 4.4.1 4-.1 4.1a52.6 52.6 0 0 0 .2 9v.1c.2 1 .3 1.9.3 3.8v4.2a172.8 172.8 0 0 0 0 8.6c.1 1 .2 2 .2 4.1l-.1 4.2-.1 4.3-.2 4-.2 4.5-.2 4a43 43 0 0 0 0 9c.2 1 .3 2 .3 4 0 2.2.2 3.4.4 4.6.2 1 .4 1.9.4 3.8l-.1 4v.1l-.1 4.4c0 1.8-.2 2.7-.4 3.7-.3 1.1-.6 2.4-.6 4.7 0 2.3.2 3.5.3 4.6.2 1 .3 2 .3 3.9l.2 4.5.2 4c0 1.8-.2 2.6-.5 3.5-.3 1.2-.6 2.5-.6 5 0 2.4.4 3.7.7 4.8.3 1 .5 1.8.5 3.6s-.2 2.7-.4 3.6c-.3 1.2-.6 2.5-.6 4.9 0 2.4.3 3.6.6 4.8.2 1 .4 1.8.4 3.6l-.2 4a28.4 28.4 0 0 0 0 9l.2 4c0 1.8-.2 2.6-.5 3.5-.3 1.2-.7 2.5-.7 5 0 2.4.3 3.6.6 4.8.3 1 .5 1.8.5 3.6v12.6l-.1 4.4c0 1.9-.2 2.8-.3 3.8a24 24 0 0 0 .1 9.4c.2 1 .4 1.9.4 3.7v8.5c0 1.9-.2 2.8-.3 3.8a34.1 34.1 0 0 0-.1 9.1l.1 4c0 1.8-.2 2.7-.4 3.6-.3 1.2-.6 2.5-.6 4.9v4.3l.1 4.1c0 2.5.4 3.8.8 5 .3 1 .5 1.7.5 3.5s-.2 2.6-.5 3.6a18 18 0 0 0-.1 9.6v.1c.2 1 .4 1.8.4 3.6l.1 4.4v4.1l-.1 4a38 38 0 0 0-.3 4.5l-.1 4a47.3 47.3 0 0 0-.1 8.8v4.1c0 2 0 2.9-.2 3.9a25 25 0 0 0 .2 9.4c.2 1 .4 1.8.4 3.7l-.2 4-.2 4.4c0 2-.1 3-.3 4a31 31 0 0 0 0 9c.2 1 .3 2 .3 4 0 2.3.2 3.5.4 4.6.1 1 .3 2 .3 3.8v4.2l-.1 4.3c0 1.9-.2 2.7-.4 3.7-.3 1.2-.6 2.4-.6 4.8 0 1.2-.2 1.8-.4 2.7l-.4 1.5c-.2.8-.3 1.8 0 3 .4 1 1 2 2 2.9 1 1 2 1.6 3.3 1.9 1.2.2 2.3-.2 3-.5l1-.4c1-.4 1.7-.7 2.9-.7 2 0 2.8.1 3.8.3 1.2.2 2.4.5 4.8.5 2.3 0 3.5-.2 4.6-.3 1-.2 2-.3 4-.3a42 42 0 0 0 4.4-.2 37.6 37.6 0 0 1 7.9.2c1.2.2 2.4.5 4.8.5 2.3 0 3.5-.2 4.6-.3 1-.2 2-.3 4-.3h17.1c2 0 3.1 0 4.1.2l4.5.1c2.3 0 3.5-.2 4.6-.3 1-.2 2-.3 4-.3 1.9 0 2.8.1 3.8.3 1.2.2 2.4.4 4.7.4 2 0 3 .2 4 .3a33.6 33.6 0 0 0 9.3-.1c1-.2 2-.3 3.9-.3l4.3-.1h4.2c2 0 2.9 0 3.9.3a22.5 22.5 0 0 0 9.5-.1c1-.2 1.9-.4 3.8-.4 2 0 3 0 4 .2 1.1.1 2.3.3 4.5.3l4.5-.2h4.1c2.3 0 3.5-.2 4.6-.4l4-.2c2 0 3 0 4 .2 1.1.1 2.3.3 4.6.3 2 0 2.9.1 3.9.3 1.1.1 2.3.3 4.6.3h8.6c2.3 0 3.6-.1 4.7-.3a37.5 37.5 0 0 1 7.9-.2l4.6.2c2 0 3 0 4 .2l4.5.1h4.4l4.2-.1c2.3 0 3.4-.1 4.5-.2 1-.2 2-.3 4-.3h8.6c2 0 3 .2 4 .3a44.2 44.2 0 0 0 9.1.1l4-.1 4.2.1 4.4.1h4.3l4.3.1c2.3 0 3.6-.2 4.7-.4 1-.2 2-.4 3.8-.4 2 0 3 0 4 .2a34.7 34.7 0 0 0 9.3 0v-.1c1-.1 2-.3 3.9-.3 2 0 3 .1 4 .3a31.6 31.6 0 0 0 9.1 0c1-.2 2-.3 4-.3l4.4-.1 4.2-.1c1.7 0 2.5.2 3.4.5a15.8 15.8 0 0 0 10 .1h.1c1-.2 1.8-.4 3.6-.4s2.7.2 3.7.4c1.2.3 2.4.7 4.9.7 2.3 0 3.6-.3 4.8-.6 1-.2 1.8-.4 3.7-.4l4 .2 4.6.2c2.3 0 3.5-.2 4.7-.4 1-.1 2-.3 3.9-.3s2.8.2 3.7.4c1.2.3 2.5.5 4.8.5h4.3a439.5 439.5 0 0 0 8.8-.1l4-.2 4.2.1 4.5.1h4.2l4.3.1h4.4a94.1 94.1 0 0 1 8.6-.3h8.2c1.2.2 2.3.3 4.6.3l4 .1 4.5.2H483.7c2.5 0 3.7-.3 5-.6.9-.2 1.8-.5 3.6-.5h4.2l4.4.1c1.9 0 2.8.2 3.8.4 1.2.2 2.4.4 4.7.4l4.1.1a53.6 53.6 0 0 0 9 0h4c2.3 0 3.5-.2 4.6-.3a52.5 52.5 0 0 1 8-.1h4.6l4.2.1h4.3l4.2.2h4.4l4 .2 4.6.2a25 25 0 0 0 4.6-.4c1-.2 2-.3 4-.3 2.2 0 3.4-.2 4.6-.4 1-.1 2-.3 3.9-.3 2 0 3 .2 4 .3a31.6 31.6 0 0 0 9 0l4-.1c2 0 2.8.2 3.7.4a23.8 23.8 0 0 0 9.6.3 94.3 94.3 0 0 1 8-.3h.1l4.4.2c2.2 0 3.4-.2 4.5-.3a45.8 45.8 0 0 1 8 0l.1-.1 4.5.2c2 0 3 0 4 .2a34.9 34.9 0 0 0 9.3-.3c1-.2 1.9-.4 3.8-.4 2 0 3 .1 4 .3a34.8 34.8 0 0 0 9 0 41.2 41.2 0 0 1 8.1 0c1.2.2 2.3.4 4.6.4l4 .1 4.5.2c2.4 0 3.7-.3 4.8-.6 1-.2 2-.4 3.8-.4h4.4l4.1-.1c1.9 0 2.8.2 3.7.4a20.9 20.9 0 0 0 9.6.1c1-.2 2-.4 3.9-.4 1.8 0 2.7.3 3.6.5a26.8 26.8 0 0 0 9.5.3c1-.2 2-.3 4-.3 2.3 0 3.4-.2 4.6-.4l4-.2c1.7 0 2.5.2 3.5.5 1.2.4 2.5.8 5 .8l4.4-.2H779a440 440 0 0 0 8.8-.3l4-.2 4.6-.2 4-.2c2 0 3 0 4 .2a37.2 37.2 0 0 0 9.2-.1c1-.2 2-.3 4-.3 1.8 0 2.8.2 3.7.3 1.2.3 2.4.5 4.8.5l4.4-.2 4.1-.1H851.7l4.1.1a46 46 0 0 0 9 0l4-.2h4.4l4.2-.1 4.2.1 4.4.1c2.2 0 3.3 0 4.4-.2l4.1-.1 4.4-.1 4.2-.2c1.8 0 2.6.3 3.5.6 1.2.4 2.6.8 5 .8H920.2l4.2.1h8.7l4.2-.2c1.2 0 1.9.2 2.7.5l1.6.3c.8.2 1.8.3 3 0 1-.4 2-1 3-2l2.3-4ZM937.3 7.6c2.4 0 4.4-1 5.5-1.7a17.1 17.1 0 0 1 1.3-.6h.1l.5.4.6.8-.2.8-.3.6c-.4 1-1.2 3-1.2 5.1v8.5l-.1 4.1V30c0 2.3.1 3.6.3 4.7.2 1 .4 1.9.4 3.8 0 2-.2 2.8-.4 3.8a23 23 0 0 0-.4 4.7v8.4l-.1 4.2-.1 4.3c0 2.4.2 3.6.5 4.8.2 1 .4 1.8.4 3.7 0 1.8-.2 2.7-.4 3.6-.3 1.2-.7 2.5-.7 4.9v4.1l-.1 4.3c0 2.3.2 3.6.4 4.7.2 1 .4 1.9.4 3.8 0 2-.1 3-.3 4a31 31 0 0 0-.2 4.5v8.4l.1 4.4.1 4.1v8.5l.2 4.4.1 4c0 2.3.1 3.4.2 4.5l.2 4v16.9c0 1.8-.2 2.6-.5 3.6a17.7 17.7 0 0 0-.1 9.7c.2 1 .4 1.9.4 3.7l-.1 4a59 59 0 0 0 0 8.9l.1 4c0 2 0 3-.2 4l-.2 4.5-.2 4-.2 4.5V229l.1 4.1c0 2.3.3 3.5.5 4.7.2 1 .4 1.9.4 3.8 0 1.8-.2 2.7-.4 3.7-.3 1.2-.5 2.4-.5 4.7v4.2l-.1 4.3c0 2.3.2 3.5.4 4.7.2 1 .4 1.9.4 3.8l.1 4.4.1 4c0 2 0 3-.2 4l-.2 4.5c0 2 0 3-.2 4a45 45 0 0 0 0 8.8v8.4a274 274 0 0 1 .2 8.7l.2 4 .1 4.4.2 4c0 1.9-.2 2.7-.5 3.7-.3 1.2-.6 2.4-.6 4.8 0 2.2 0 3.4.2 4.5l.1 4 .2 4.4a58.2 58.2 0 0 1 .1 8.3v4.2c0 2-.1 3-.3 3.9-.2 1.1-.3 2.3-.3 4.6v8.5c0 2.4.4 3.6.7 4.8.2 1 .4 1.8.4 3.7 0 1.8-.2 2.7-.4 3.6-.3 1.2-.6 2.5-.6 4.8l.1 4.3v8.4a272.5 272.5 0 0 1 .2 8.6l.1 4.1.2 4.5a40.3 40.3 0 0 1 0 8 171 171 0 0 0-.2 8.8v4.1l.1 4.4a51 51 0 0 1 .1 8.3v4.3l.2 4.4.2 4c0 1.8-.3 2.6-.6 3.5-.4 1.2-.8 2.6-.8 5 0 2.2 0 3.3.2 4.4v8.2a125 125 0 0 0 0 8.7v8.2a50 50 0 0 0 .2 9.1 24.5 24.5 0 0 1 0 7.7v1.1c-.8 0-1.5.2-2 .3h-.1c-1 .2-1.9.4-3.8.4-1.8 0-2.6-.3-3.5-.6-1.3-.4-2.6-.8-5.1-.8-2.4 0-3.7.3-4.9.6-1 .2-1.8.4-3.7.4l-4.4.1a49.2 49.2 0 0 1-8-.1c-1.2-.2-2.4-.5-4.7-.5h-4.4l-4.2.1H885.8c-2.3 0-3.6.2-4.7.4a17 17 0 0 1-7.6 0c-1.2-.3-2.4-.6-4.8-.6-2.3 0-3.5.2-4.6.3-1 .1-2 .3-4 .3h-8.6c-1.9 0-2.8-.2-3.8-.4a28.4 28.4 0 0 0-9.3 0l-4 .2h-4.2a442.8 442.8 0 0 0-8.7 0 279 279 0 0 1-8.1-.2c-1.2-.2-2.4-.4-4.7-.4h-4.3l-4.3.1c-2.3 0-3.5.2-4.7.4a27.6 27.6 0 0 1-3.9.3l-4-.1h-.1l-4.4-.1c-2 0-3-.2-4-.3-1.1-.1-2.3-.3-4.6-.3h-4.3l-4.3.1-4.5.2c-1 .2-2 .3-4 .3h-4.5c-1 .1-2 .2-4.1.2h-4.4l-4.2.1c-2 0-3 0-4-.2a32.9 32.9 0 0 0-9.2 0c-1 .2-2 .4-4 .4l-4.1-.1-4.4-.1c-1.8 0-2.7-.2-3.6-.5a28.3 28.3 0 0 0-9.5-.3h-.1c-1 .2-2 .3-4 .3h-8.5c-2.3 0-3.5.1-4.6.3-1 .1-2 .3-4 .3l-4-.2a46 46 0 0 0-8.9-.1H663l-4-.1a46 46 0 0 0-9.2.1c-1 .1-2 .3-4 .3-1.8 0-2.6-.2-3.6-.4-1.2-.3-2.5-.6-4.9-.6h-8.5l-4.4.2h-4.2l-4.5.2-4 .2h-4.3l-4.3-.1c-2 0-3 0-4-.2l-4.6-.2a17 17 0 0 0-5 .7c-.9.2-1.7.4-3.6.4h-8.5c-2 0-3 0-4-.2a37.5 37.5 0 0 0-9.2 0l-4 .2a11 11 0 0 1-3.5-.5 21.8 21.8 0 0 0-9.7-.2h-.1c-1 .2-2 .4-3.8.4h-4.4a94.2 94.2 0 0 1-8.1-.1 31 31 0 0 0-9.3 0c-1 .2-2 .3-4 .3-1.8 0-2.7-.2-3.7-.4a23.6 23.6 0 0 0-9.5-.1c-1 .2-2 .3-3.9.3l-4.4.1a94.2 94.2 0 0 1-8.1-.2c-1.2-.1-2.3-.3-4.6-.3-2 0-2.9-.1-3.9-.3-1.1-.1-2.4-.3-4.7-.3H466c-2.4 0-3.7.3-4.9.6-1 .3-1.8.5-3.6.5h-8.6l-4.2-.1h-4.4l-4.1-.2h-4.4c-2 0-2.8-.2-3.8-.4-1.2-.3-2.4-.5-4.8-.5h-8.5a17 17 0 0 0-5 .6c-1 .3-1.8.5-3.6.5h-4.2l-4.4-.1c-1.9 0-2.8-.2-3.8-.4-1.1-.2-2.4-.5-4.7-.5-2.4 0-3.6.2-4.7.4-1 .2-2 .3-3.9.3-2 0-2.9-.1-3.9-.3-1.1-.1-2.3-.3-4.6-.3l-4.5.1c-1 .1-2 .2-4.1.2H354.6a20 20 0 0 0-4.8.5c-1 .2-1.8.4-3.7.4l-4.2-.2a64.6 64.6 0 0 0-8.7 0h-4.3l-4-.2a38.9 38.9 0 0 0-9.2.1 20.7 20.7 0 0 1-7.5-.1 17 17 0 0 0-5-.7h-8.5a20 20 0 0 0-4.8.5c-1 .2-1.8.4-3.7.4l-4-.2c-1.1-.2-2.3-.3-4.6-.3l-4-.1-4.5-.2c-2.5 0-3.8.3-5 .6-1 .2-1.8.4-3.6.4-2 0-2.8-.1-3.8-.3-1.2-.3-2.4-.5-4.8-.5-2 0-3 0-4-.2l-4.5-.2H234.8a16 16 0 0 0-5 .6c-1 .3-1.7.5-3.5.5a11 11 0 0 1-3.6-.5 16 16 0 0 0-5-.7h-8.5c-2.4 0-3.7.3-4.9.6-1 .2-1.8.4-3.7.4-1.9 0-2.8-.2-3.7-.4a21 21 0 0 0-4.9-.5h-8.5c-2.5 0-3.8.3-5 .7-1 .3-1.8.6-3.6.6h-8.5c-2 0-3-.2-4-.4-1.1-.1-2.3-.3-4.6-.3l-4-.1-4.5-.2H145l-4.4-.1c-2.4 0-3.6.2-4.8.5-1 .2-1.9.4-3.8.4s-2.8-.2-3.8-.3a89.6 89.6 0 0 0-9-.3h-.1l-4.2.1-4-.1a57 57 0 0 0-9 0h-4c-2.4 0-3.6.2-4.7.4a25.1 25.1 0 0 1-7.8 0l-4.7-.2a46 46 0 0 0-4.5.1l-4 .2H68a75.4 75.4 0 0 0-8.9 0l-4 .2c-2.1 0-3.1 0-4.2-.2h-4.4c-2 0-2.9-.2-3.9-.4a27 27 0 0 0-4.7-.3h-8.5c-2.4 0-3.7.3-4.8.6-1 .2-1.9.4-3.8.4-1.8 0-2.7-.2-3.7-.4-1.2-.3-2.4-.6-4.8-.6l-4.5.1H6.8v-.5l-.1-4.2a18 18 0 0 0-.6-4.7c-.2-1-.4-1.9-.4-3.7 0-1.8.2-2.6.5-3.6.3-1.2.6-2.5.6-4.9a15 15 0 0 0-.7-4.9c-.3-1-.5-1.8-.5-3.6l-.1-4.3v-4.1c0-1.9.1-2.7.4-3.7.3-1.2.6-2.4.6-4.8a34 34 0 0 0-.3-4.5l-.2-4c0-1.9.1-2.8.3-3.8.2-1.1.4-2.3.4-4.6v-8.5c0-2.4-.2-3.6-.5-4.8-.2-1-.4-1.8-.4-3.7 0-1.9.1-2.8.3-3.8.2-1.1.4-2.3.4-4.6v-4.2l.2-4.3v-8.5c0-2.4-.4-3.7-.7-4.8-.3-1-.5-1.9-.5-3.7 0-1.7.3-2.6.5-3.5.4-1.2.7-2.5.7-5 0-2.2-.1-3.4-.3-4.5l-.2-3.9c0-2 .1-2.9.2-3.9a28.4 28.4 0 0 0-.2-9.4c-.3-1-.5-1.8-.5-3.6 0-1.9.2-2.7.5-3.7a17.2 17.2 0 0 0-.1-9.7c-.3-1-.6-1.8-.6-3.6s.2-2.6.5-3.6c.3-1.2.7-2.4.7-4.8 0-2.3-.2-3.4-.3-4.5l-.2-4A30 30 0 0 0 6 339l-.2-3.9c0-1.8.2-2.7.4-3.7.2-1.2.5-2.4.5-4.7l.1-4.2.1-4.3a22 22 0 0 0-.4-4.7c-.2-1-.4-1.9-.4-3.8a34 34 0 0 0-.2-4.5c-.2-1-.3-2-.3-4l.2-4 .2-4.4.2-4 .2-4.5.1-4.1a87.6 87.6 0 0 0 0-8.7l-.1-4.1v-8.5a23 23 0 0 0-.3-4.7c-.2-1-.4-1.9-.4-3.8l.2-4a52.6 52.6 0 0 0 0-8.8l-.1-4.1c0-1.8.2-2.7.4-3.6.3-1.2.7-2.5.7-4.9 0-2.3-.3-3.6-.6-4.7-.2-1-.4-1.9-.4-3.7V208c0-1.8.3-2.7.5-3.7.3-1.1.6-2.4.6-4.8l-.1-4.4-.2-4c0-2.3-.2-3.5-.4-4.7-.1-1-.3-1.9-.3-3.8l.2-4a43 43 0 0 0 .1-8.8v-4.2l.1-4a45 45 0 0 0-.2-9 40.5 40.5 0 0 1-.1-7.8v-.1l.1-4.5v-4.2l.1-4.3v-8.4c0-2.3-.1-3.4-.2-4.5-.2-1-.3-2-.3-4S6 112 6 111c.2-1.1.4-2.3.4-4.6l.2-4c.2-1.1.3-2.3.3-4.5v-8.5a33 33 0 0 0-.3-4.5l-.2-4a45 45 0 0 0-.2-4.4l-.2-4 .1-4.2V55.5c0-2 .2-3 .3-4 .1-1 .2-2.2.2-4.5l.1-4.1v-4.4c0-2.4-.3-3.7-.6-4.9a11 11 0 0 1-.5-3.6c0-1.7.2-2.6.5-3.5.3-1.2.7-2.5.7-5V13.2a11.4 11.4 0 0 0-1.7-5.9l-.3-.6s.1-.3.5-.6l.5-.4.7.2c.2 0 .3.2.5.3l.5.2c1.1.6 2.8 1.4 5 1.4a16 16 0 0 0 4.8-.7c1-.3 1.8-.5 3.7-.5l4 .1a50.8 50.8 0 0 0 9.1-.1c1-.1 2-.3 4-.3 1.8 0 2.7.3 3.6.5a21.6 21.6 0 0 0 9.6.2c1-.2 2-.4 3.9-.4h8.5l4 .2c1.1.2 2.3.4 4.6.4h4.3l4.2-.1h4.4l4.2-.2c2 0 3 .2 4 .3 1 .2 2.3.4 4.6.4h4.3l4.2-.2 4.1.2a50.8 50.8 0 0 0 9.2-.3c1-.2 2-.4 3.8-.4a46 46 0 0 0 4.5-.1l4-.2c2 0 2.8.2 3.8.4a20.5 20.5 0 0 0 9.6 0v.1c1-.2 1.9-.4 3.8-.4l4 .2a38.8 38.8 0 0 0 9.2-.1c1-.2 2-.3 3.9-.3h8.6c2 0 2.9.1 3.9.3 1.1.1 2.3.3 4.6.3s3.5-.1 4.6-.3l4-.2c2 0 2.9.1 3.9.3 1.1.2 2.3.3 4.6.3a56.9 56.9 0 0 0 13 .1h8.2A48.3 48.3 0 0 0 231 7c1-.2 2-.3 3.9-.3s2.8.1 3.8.3a29.8 29.8 0 0 0 9.2 0h.1l4-.2h4.3l4.2-.1c1.9 0 2.7.2 3.7.4 1.2.3 2.5.6 4.9.6l4.5-.2 4-.2c2.1 0 3 0 4.1.2l4.5.2c2.4 0 3.7-.3 4.9-.6 1-.3 1.8-.5 3.7-.5l4.4-.1 4.1-.1h4.3a220.1 220.1 0 0 0 8.6 0h4.2c1.9 0 2.8.2 3.7.4a26.8 26.8 0 0 0 9.5.2l4-.2 4.4-.2 4.1-.1H354.7c2 0 3 .2 3.9.4 1.2.1 2.3.3 4.6.3l4.4-.1 4.2-.1h8.5c2.4 0 3.6-.1 4.7-.3 1-.1 2-.3 3.9-.3 1.8 0 2.7.2 3.7.5 1.2.3 2.4.6 4.9.6a22 22 0 0 0 4.7-.4c1-.2 1.9-.4 3.8-.4l4 .2a33.7 33.7 0 0 0 9.2 0l4-.2h4.1a99.1 99.1 0 0 0 9-.2c1-.1 2-.3 4-.3 1.7 0 2.5.3 3.4.6 1.3.4 2.6.9 5.1.9 2.3 0 3.4-.1 4.5-.2 1-.1 2-.2 4.1-.2 2.3 0 3.5-.1 4.6-.3l4-.2 4.5-.2 4-.2c2 0 2.9.2 3.8.4 1.2.2 2.4.5 4.8.5 2.3 0 3.5-.2 4.6-.3 1-.2 2-.3 4-.3h8.6c1.8 0 2.7.2 3.7.4 1.2.3 2.4.5 4.8.5h4.4l4.2-.1c2.4 0 3.7-.4 4.9-.7 1-.2 1.8-.4 3.7-.4 1.8 0 2.7.2 3.7.4 1.2.3 2.4.6 4.8.6 2.3 0 3.4-.1 4.5-.2l4.1-.1a29 29 0 0 0 4.6-.4 24.3 24.3 0 0 1 7.7.2c1.2.2 2.5.5 4.9.5h8.5l4.5-.1c1-.1 2-.2 4.1-.2h4.2l4.4.2c2.3 0 3.5-.2 4.7-.4a106.7 106.7 0 0 1 8-.3l4.4.1c2 0 2.8.2 3.8.4 1.1.3 2.4.6 4.8.6s3.7-.3 4.8-.6c1-.2 1.9-.4 3.7-.4l4.1.1 4.5.2 4.2.1a99.1 99.1 0 0 0 9-.2l4-.2c1.8 0 2.7.1 3.7.3a26.8 26.8 0 0 0 9.4.1l4-.2c2 0 3 0 4 .2l4.5.1h8.6l4.1.1h4.4c2.5 0 3.8-.3 5-.6 1-.2 1.8-.5 3.6-.5l4.1.2a50.9 50.9 0 0 0 8.8.1h4.2c2 0 2.9.1 3.8.3 1.2.2 2.5.5 4.8.5s3.4-.2 4.6-.3l4-.2c2.3 0 3.4-.2 4.6-.3 1-.1 2-.3 4-.3 1.8 0 2.6.3 3.5.6 1.2.3 2.6.7 5 .7 2.3 0 3.5-.1 4.6-.3 1-.1 2-.3 4-.3l4.2.1 4.4.1h4.2l4.3.1c2.4 0 3.7-.3 4.8-.5 1-.2 2-.4 3.8-.4 1.8 0 2.7.2 3.6.5 1.2.3 2.5.7 5 .7a16 16 0 0 0 4.9-.7c1-.3 1.8-.5 3.7-.5l4 .1 4.5.2c2 0 2.9.1 3.9.3 1.1.2 2.4.4 4.7.4 2.3 0 3.6-.2 4.7-.4 1-.1 2-.3 3.9-.3 2 0 3 .1 4 .3 1 .1 2.3.3 4.5.3 2 0 3 0 4.1.2l4.5.1h4.3l4.3.1a25 25 0 0 0 4.6-.3c1-.2 2-.4 4-.4h8.5c2 0 3 .2 4 .3 1.1.2 2.3.3 4.6.3 2.4 0 3.7-.3 4.9-.6 1-.2 1.8-.5 3.7-.5 2 0 3 .1 4 .3l4.5.2 4 .2a53.8 53.8 0 0 0 9 .1H915.8a53.8 53.8 0 0 0 9.1-.2c1-.1 2-.3 4-.3 1.8 0 2.7.2 3.7.4 1.2.2 2.5.5 4.8.5ZM6.8 531.2l-.2 3.2-.2 4-.2 4.4-.2 4 .1 4.2a87.6 87.6 0 0 1-.3 9c-.1 1-.3 1.9-.3 3.8 0 1.8.2 2.7.5 3.6.2 1.2.5 2.5.5 4.9 0 2.2 0 3.3-.2 4.4l-.2 4a31 31 0 0 1-.3 4.6l-.2 3.9c0 2 0 3 .2 4s.3 2.2.3 4.5c0 1.9.2 2.8.3 3.8.2 1.2.4 2.4.4 4.6v8.5c0 2.4-.4 3.6-.6 4.8-.3 1-.4 1.8-.4 3.7a16 16 0 0 1-1 5.2v.5c0 .1.1.5.7 1a3.2 3.2 0 0 0 .7.6h.1l.5-.2c.1 0 .3 0 .5-.2a12 12 0 0 1 5-1.3c2.4 0 3.7.3 4.8.5a24.4 24.4 0 0 0 7.8 0l4.7-.2 4-.2a42.2 42.2 0 0 1 9.3.3 23.6 23.6 0 0 0 7.7.1c1.2-.2 2.4-.3 4.7-.3h4.2a442.6 442.6 0 0 1 8.7 0h4.2l4.5.1 4 .2c2 0 3-.2 4-.3a27.5 27.5 0 0 1 9.4 0c1 .2 2 .4 3.8.4 2.3 0 3.5.1 4.6.3l4 .2c2 0 2.9-.1 3.9-.3 1.1-.2 2.3-.4 4.7-.4h4.1l4.4-.1c2.4 0 3.6.2 4.8.4a17.7 17.7 0 0 0 7.6 0c1.1-.3 2.4-.6 4.8-.6 2.2 0 3.4.2 4.5.3l4 .2h4.2l4.4-.2c2 0 3-.1 4-.3a29.8 29.8 0 0 1 9.2 0l4 .2c2.3 0 3.5.2 4.6.4 1 .2 2 .3 4 .3h8.5c2 0 2.9-.1 3.9-.3a42.1 42.1 0 0 1 9.2-.2l4 .2c2.3 0 3.4 0 4.5.2l4.1.1h4.2l4.4-.1 4-.2c1.2-.2 2.3-.3 4.6-.3h8.5c2.3 0 3.5.2 4.6.4l4 .2c2 0 3 0 4-.2a44 44 0 0 1 4.6-.2l4.4.2a55.6 55.6 0 0 0 8.5.2h4.2c1.9 0 2.8-.2 3.8-.4 1.2-.2 2.4-.5 4.7-.5 2.3 0 3.5.2 4.6.3l4 .2c2 0 3-.1 4-.3 1-.1 2.3-.3 4.6-.3s3.4.1 4.6.3l4 .2c2 0 2.9-.1 3.9-.2 1.1-.2 2.3-.4 4.6-.4h4.2l4.4-.2c2.5 0 3.8.5 5 .9 1 .3 1.8.6 3.5.6a11 11 0 0 0 3.6-.5 17.4 17.4 0 0 1 9.8 0v-.1c1 .2 2 .4 3.8.4 1.8 0 2.7-.2 3.7-.4a40.4 40.4 0 0 1 9.3-.3c1 0 2 .2 4.1.2 2 0 2.9-.2 3.9-.3a25.5 25.5 0 0 1 9.4 0v.1c1 .2 2 .4 3.8.4H398l4-.1h.1l4.5-.2h4.4a213.5 213.5 0 0 1 8.5.2 215.5 215.5 0 0 0 8.4 0h4.4l4.2-.2a69.4 69.4 0 0 1 8.9 0l4 .2c2.3 0 3.4.1 4.5.2 1 0 2 .2 4.1.2H483.7a12 12 0 0 0 3.7-.4c1.2-.4 2.5-.7 4.9-.7h8.6c2.3 0 3.5.3 4.7.5 1 .2 2 .4 3.8.4l4.5.1 4 .2 4.2-.1 4.4-.2 4-.2a57.3 57.3 0 0 1 9-.1 52.1 52.1 0 0 0 8.5 0l4.2.1 4.4.1 4.2.1 4.5.2a43.4 43.4 0 0 0 8-.1 25 25 0 0 1 4.6-.4c2 0 2.9-.2 3.9-.3 1.2-.2 2.4-.4 4.7-.4 2.2 0 3.4.1 4.5.3l4 .2c2 0 3 0 4-.2l4.6-.2c2.4 0 3.7.4 5 .7.9.3 1.7.5 3.6.5 1.9 0 2.8-.2 3.8-.3 1.2-.2 2.4-.4 4.7-.4h4.4l4.2.1 4-.2a51.2 51.2 0 0 1 9-.1l4 .1c2.3 0 3.5.2 4.6.3a30 30 0 0 0 7.8-.2c1.2-.2 2.4-.5 4.8-.5 2.2 0 3.4.1 4.5.3l4 .2c2 0 3 0 4.1-.2a46.2 46.2 0 0 1 9 0l.1.1 4 .2 4.4.2 4.1.1c2 0 2.8-.2 3.8-.4 1.2-.2 2.4-.5 4.8-.5l4.2-.1h4.3c2.5 0 3.7.2 4.9.5 1 .3 1.8.5 3.7.5 1.9 0 2.8-.2 3.8-.4a20.8 20.8 0 0 1 9.6.1c1 .3 1.9.5 3.7.5 2 0 3-.2 4-.3 1-.2 2.3-.4 4.6-.4 2 0 2.9-.1 3.9-.2a29 29 0 0 1 4.6-.4c2.5 0 3.8.4 5 .8 1 .3 1.8.5 3.6.5h4.1a69.3 69.3 0 0 1 8.7-.2h4.3c2 0 3 0 4-.2l4.6-.2 4-.2a40.2 40.2 0 0 1 9 0 32.5 32.5 0 0 0 8 0 27.5 27.5 0 0 1 9.3 0 52.1 52.1 0 0 0 8 .2 57 57 0 0 1 8.7-.1h8.5a145 145 0 0 1 8.8 0c1 .2 2 .3 4 .3 2.1 0 3.1-.1 4.1-.2 1.2-.1 2.3-.3 4.6-.3h4.2a175.8 175.8 0 0 1 8.7 0l4.2.2c2 0 3 0 4-.2l4.5-.2h4.2l4.4-.2c2.4 0 3.8.4 5 .8 1 .3 1.8.5 3.5.5h4.4c1 .1 2 .2 4.2.2h8.5l4.2-.1 4.4-.1c1.9 0 3.6.5 4.6.8l.6.1h.7s.3 0 .6-.3l.4-.4 1-1.2v-.6c0-.4-.2-.8-.5-1.6l-.2-.9a28 28 0 0 1-.6-2.2l-.1-.4-.7-4c-.2-1.2-.2-2.4-.2-4.5v-4.1l-.2-4.4c0-2.3.3-3.6.6-4.7.2-1 .4-1.9.4-3.8s-.2-2.8-.3-3.8a24 24 0 0 1 .2-9.5c.2-1 .4-1.8.4-3.6 0-2 0-3-.2-4l-.2-4.5V551l-.2-4.3v-4.1c-.2-1.1-.2-2.2-.2-4.4l-.1-4.1-.1-2.8-1 .1c-1.1.2-2.4.5-4.7.5-2.5 0-3.9-.5-5-.8h-.1c-1-.3-1.8-.6-3.5-.6-1.9 0-2.7.2-3.7.4-1.2.3-2.5.6-4.9.6l-4 .1a54 54 0 0 1-9.3-.2 19 19 0 0 0-3.8-.4h-4.3a223.7 223.7 0 0 1-8.6 0h-4.3c-1.9 0-2.8.2-3.7.4a22 22 0 0 1-9.7 0c-1-.3-1.8-.5-3.7-.5-2 0-3 .1-4 .3-1.1.1-2.3.3-4.6.3h-8.6a25 25 0 0 1-4.6-.5c-1-.1-2-.3-4-.3-1.9 0-2.8.1-3.8.3-1.2.1-2.4.3-4.7.3h-17.1c-2.3 0-3.5-.1-4.7-.3-1-.1-2-.3-4-.3h-4.1l-3.5.1h-.9c-2 0-2.9.2-3.8.3-1.2.2-2.4.4-4.8.4l-4.4-.1-4.1-.1c-2.3 0-3.5-.2-4.6-.3-1-.1-2-.3-4-.3h-4.3a284.8 284.8 0 0 1-8.3.3c-1.1.1-2.3.3-4.5.3H753a75.5 75.5 0 0 1-8.6.3 110.4 110.4 0 0 1-9-.3l-4-.2c-2 0-2.9.1-3.8.3a27 27 0 0 1-4.7.4l-4.4-.1-4.2-.1c-2.4 0-3.7-.3-4.9-.6-1-.3-1.8-.5-3.7-.5-2 0-2.9.1-3.9.3-1.1.1-2.3.3-4.6.3h-8.6c-2 0-3 .1-4 .3-1 .1-2.3.3-4.6.3l-4.5-.2-4-.2h-4.2a149.5 149.5 0 0 1-8.9 0l-4-.2-4 .2a28.4 28.4 0 0 1-9.5-.2c-1-.2-1.8-.4-3.7-.4h-4.2a174.8 174.8 0 0 1-8.5.2h-4.4l-4 .2a51 51 0 0 1-4.5.2h-4.4l-4.2-.1c-2.3 0-3.4-.1-4.5-.2l-4-.2c-2 0-2.8.2-3.7.5a17 17 0 0 1-5 .6h-8.5c-2.3 0-3.5 0-4.6-.2l-4-.2c-2 0-3 0-4 .2l-4.6.2a16 16 0 0 1-5-.7 11 11 0 0 0-3.6-.5c-1.9 0-2.8.2-3.7.4-1.2.2-2.5.5-4.8.5h-4.2l-4.4.1c-2.3 0-3.5-.1-4.6-.3l-4-.2c-2 0-2.9.1-3.9.2a27 27 0 0 1-9.5-.1 18.5 18.5 0 0 0-7.5 0c-1.2.1-2.4.3-4.8.3l-4.2.1-4.4.1c-2.3 0-3.4-.1-4.6-.3-1-.1-2-.3-4-.3-2.3 0-3.5-.1-4.6-.3-1-.2-2-.3-3.9-.3H466c-1.8 0-2.6.2-3.5.4-1.3.3-2.6.7-5 .7h-8.6l-4.4-.1h-4.2l-4.4-.2h-4.1c-2.4 0-3.7-.3-4.8-.6-1-.2-1.9-.3-3.8-.3h-8.5c-1.9 0-2.7.2-3.7.4a17 17 0 0 1-5 .7h-4.3l-4.2-.1c-2.3 0-3.6-.3-4.7-.5-1-.2-2-.4-3.8-.4-2 0-2.9.2-3.9.3a25.6 25.6 0 0 1-9.3 0l-4-.2-4 .1-4.5.2h-8.6c-1.8 0-2.7.1-3.7.3a20 20 0 0 1-4.8.6l-4.5-.2a59.4 59.4 0 0 0-8.3 0h-4.4l-4.5-.2c-1-.2-2-.3-4-.3s-2.9.2-3.9.4a25.6 25.6 0 0 1-9.6-.3c-1-.3-1.8-.5-3.6-.5h-8.6c-1.8 0-2.7.1-3.7.3a20 20 0 0 1-4.8.6c-2.3 0-3.4-.2-4.6-.3l-4-.2a54 54 0 0 1-4.4-.1c-1-.1-2-.2-4.1-.2-1.9 0-2.8.2-3.7.4a21.4 21.4 0 0 1-9.6.1h-.1c-1-.1-1.9-.3-3.8-.3l-4.5-.2-4-.2H234.8a11 11 0 0 0-3.5.4 16 16 0 0 1-5 .7 16 16 0 0 1-5-.7 11 11 0 0 0-3.6-.5h-8.5c-2 0-2.8.2-3.7.4a20.9 20.9 0 0 1-9.6 0h-.1a16 16 0 0 0-3.8-.3h-8.5c-1.8 0-2.6.2-3.5.5-1.3.4-2.6.8-5 .8H166.3c-2.3 0-3.5-.3-4.7-.4-1-.1-2-.3-3.9-.3a51 51 0 0 1-4.5-.1l-4-.2h-4.4l-4.2-.1c-1.9 0-2.8.2-3.7.4-1.2.2-2.5.5-4.9.5-2.3 0-3.5-.2-4.6-.4-1-.1-2-.3-4-.3l-4 .1a89.5 89.5 0 0 1-9 0l-4-.2-4.1.1-4.5.1c-2 0-2.8.2-3.8.4-1.2.1-2.4.3-4.7.3a30 30 0 0 1-4.7-.3l-3.9-.2-4 .1a46.3 46.3 0 0 1-9 .1 69.8 69.8 0 0 0-8.1 0c-1.2.2-2.3.3-4.6.3-2.2 0-3.3 0-4.4-.2h-4.1a27 27 0 0 1-4.7-.4c-1-.2-2-.3-3.9-.3h-8.5c-1.9 0-2.8.3-3.7.5a20.3 20.3 0 0 1-9.7 0c-1-.3-1.9-.5-3.7-.5l-4.1.1H6.7ZM4.8 6.6Zm1-1Z" clip-rule="evenodd"/><path fill="#231F20" d="M97.8 567.7c-.4 0-.7-.2-1.1-.3-5-2.7-2.4-6.8-11-6.8-5.4 0-6.5 5.3-6.5 9.7 0 2.4.4 6.5 3.5 6.5h.3c3.4 0 4.4-.8 5.6-4 .3-.8.9-2.2 2-2.2 1.4 0 1.6 2.6 1.6 4.5v1.8c0 2.5.5 5 .5 7.6 0 .6 0 3.1-1 3.1-.6 0-1-.5-1.4-1-2.1-2.3-1.4-6-5.6-6-3.6 0-5.3 1.4-5.3 5.1l-.1 4.1c0 3 .2 5.9 3.2 7.2 1.1.5 2.9 1.1 2.9 2.7 0 1-.8 1.4-1.6 1.4-1.6 0-3.1-.5-4.7-.5-1.7 0-3.4.4-5.2.4h-4.2c-1.1 0-2.7-1-2.7-2.2 0-.8.9-1 1.6-1.3 3.3-1.4 4.7-4.3 4.7-7.7 0-5.4-.5-10.6-.5-16V571c0-2-.2-8-1.6-9.3-1.2-1.2-5-.9-5-2.4 0-.4.3-.7.5-.9 1.3-1.7 4.4-2 6.4-2 1.2 0 2.4 0 3.6.3 2.9.4 6 .6 8.9.6h6.8c5.4 0 6.7 3.3 6.7 8 0 .8-.1 2.4-1.3 2.4ZM135.7 600.1l-5.8-.2c-3.3 0-6.4.2-9.5.4-4.3.4-8.6.4-12.9.4h-.8c-1.1 0-5.4 0-5.4-1.2 0-.6.4-1 .6-1.4 1.8-2.4 5.6 1 6.3-5.5a120.3 120.3 0 0 0 .1-20.9c0-2.2 0-9-2-10.3-1.5-.9-3.6-.7-3.6-3 0-1.4.5-2 1.9-2l2.4.1c1.3 0 2.6-.4 4-.4 1.7 0 3.6.6 5.4.6h1.9c1.1 0 3.5.1 3.5 1.6 0 1.8-5.3 2.6-6 8.1-.5 3.5-.5 7.1-.5 10.7v2.9c0 2.6.1 5.2.3 7.7.6 7.4.6 8.7 8.5 8.7 3.8 0 7.5-.3 9.3-4.1.6-1.2 1.5-4.8 3-4.8 1.7 0 2.2 6 2.2 7.2 0 1.9-.4 5.4-2.9 5.4ZM171 562.4c-1 .7-1.8 1.5-2.4 2.4-2.6 3.9-4 8.4-7 12-2.7 3-4.3 6-4.3 10.2 0 4.2 1.6 7.5 4.8 10.4.3.2.7.4.7.9 0 2-6.7 3-8.3 3-1.7 0-8.8-.4-8.8-2.9 0-1.7 4.8-4.4 4.8-10.1 0-5.7-2.8-10.2-5.1-15.1-1.8-3.7-2.2-6.9-6-9.4-1.9-1.2-5.3-2.8-5.3-5.4 0-1.6 2.4-1.6 3.5-1.6 2.4 0 4.6.3 7 .3h1.6c1.4 0 4.8.3 4.8 2.1 0 1.2-2.2 4.1-2.2 7 0 2.7 2.8 9.9 6 9.9 1.3 0 2.3-1 3.1-2 2-2.1 5.5-6.6 5.5-9.6 0-2.7-4-4.2-4-6 0-1.7 3.6-1.8 4.8-1.8l3.4.2h3.8c1.4 0 4 0 4 2s-3.1 2.6-4.5 3.5ZM196.9 600.4c-2.5 0-5-1-7.6-1-.7 0-1.4.2-2.2.4-1.6.6-3 1-4.8 1-1.6 0-4.2-.3-4.2-2.4 0-3 7-.6 8-8 .2-1 .2-2.1.2-3.4l-.2-7c0-4.3.4-8.5.4-13 0-1.9 0-4.7-2.2-5.3-1.1-.4-4.2-.6-4.2-2.3 0-2.2 6.2-2.8 7.8-2.8l3.9.3 4.5-.2c1.5 0 3.8.2 3.8 2.4 0 3-4 1-5.7 3.3-1.2 1.9-1.3 5-1.3 7 0 4.5.3 9 .3 14.2 0 2.8.1 9 1.3 10.6.6.8 2.3 2.8 3.4 2.8l1-.2c.7 0 1 1 1 1.5 0 1.7-2 2.2-3.2 2.2ZM245.6 565.5v20.9c0 2.4 0 14.5-3.2 14.5l-.6-.1c-2-.8-8-10.7-9.7-13-2.3-3.4-4.8-6.4-7.1-9.6-1.1-1.6-4.5-7.3-6.4-7.3-2 0-2.5 2-2.5 3.9 0 3 0 16.6.7 18.2 1.7 3.5 5.7 3.3 5.7 5.3 0 2.4-5 2.4-6.6 2.4l-3.2-.1c-1.8 0-6.8 0-6.8-2.7 0-3 5.4-.8 5.4-5v-13.7c0-3.8.4-7.6.4-11.6 0-1.4 0-4.5-.9-5.5-1.3-1.4-5.7-1.1-5.7-2.9 0-2.2 4-2.3 5.5-2.3 1.2 0 2.5 0 3.7.2 4.9.7 6.6 3.2 9.3 7 2.3 3.1 11.7 18.2 15.2 18.2 1.8 0 1.9-4.2 1.9-6.4v-1l.2-5.6c0-2.7-.6-6.2-3-7.8-1.1-.6-3-1-3-2.4 0-2.7 5.7-3.2 7.7-3.2s8.9.7 8.9 3.5c0 1.9-6 1.3-6 6ZM292.6 588.1c0 2 .6 4 .6 6.1 0 1.9-.2 2.7-1.7 3.9a39.5 39.5 0 0 1-14.5 2.8c-3.3 0-6.7-.5-9.8-1.8-11.1-4.9-15.6-10.6-15.6-23 0-9.6 8.6-17.5 17.7-19 3-.6 6.3-.8 9.3-.8 6.8 0 15.5 2 15.5 10.3 0 1.2 0 5-1.8 5-3 0-4.1-10.5-15.5-10.5-8 0-14.7 5.8-15.8 13.9-.3 2-.4 4.2-.4 6.4 0 3.6.5 5.4 3 8.2 1 1.2 1.8 2.4 2.9 3.4 2.4 2.4 5.7 3 9 3.3l2.2.2c4.3 0 6.9-2.3 6.9-6.7 0-7.4-6.3-4.6-6.3-8.2 0-2.4 3.3-2.4 5-2.4 2.3 0 4.6.4 7 .4 1.9 0 4 0 4.8 1.9v.5c0 3.2-2.5 3.6-2.5 6.1ZM346.3 598.6a10 10 0 0 1-6 1.4l-5.2-.1c-4 0-8.1.9-12.2.9-2.3 0-6-.2-8-1.5-.3-.3-.7-.5-.7-1 0-1 5-2.6 6-3.1 2.7-1.8 2.8-9.7 2.8-14.2v-2l.1-6.4c0-3 0-9-3.1-10.8-1-.5-5-1.6-5-3 0-2 5.3-2.3 6.7-2.3 1.4 0 2.4.2 3.6.6.8.3 1 .4 1.8.4a41.7 41.7 0 0 1 8.4-.7c9.8 0 20 6.3 21.5 16.5l.3 5.7c0 8.2-4.3 15-11 19.6ZM333.7 562c-3.7 0-4.1 1.8-4.1 5v4.8c0 4.7-.7 9.3-.7 14 0 3.6.2 10 5.2 10 1 0 2-.2 3-.5 2.2-.4 4.4-1 6.3-2.2 5-3.1 5.4-9.6 5.4-15 0-9.3-5.2-16.1-15-16.1ZM403 589.3c-2.6 5.5-7.7 8.6-13.3 10.5-2 .7-4.3 1.2-6.5 1.2-6.1 0-12.2-3.1-16.3-7.7-3.3-3.8-5.2-8-5.2-13.1 0-9.3 3-17.4 12.3-20.9 3.4-1.2 7-2.6 10.7-2.6 7.4 0 11.8 3.3 16.2 9 3 3.7 4.5 8 4.5 12.8 0 3.6-.9 7.5-2.4 10.8Zm-19-26.6c-9.2 0-13.4 6-13.4 14.6 0 8.7 3.2 17.8 13.3 17.8 9.2 0 13.3-6 13.3-14.7 0-8.2-3.5-17.7-13.2-17.7ZM450.9 588c0 2 .6 4 .6 6 0 1.9-.2 2.7-1.7 3.9a39.5 39.5 0 0 1-14.5 2.8c-3.3 0-6.7-.5-9.8-1.8-11.1-4.9-15.6-10.6-15.6-23 0-9.6 8.6-17.5 17.7-19 3.1-.6 6.3-.8 9.3-.8 6.8 0 15.5 2 15.5 10.3 0 1.2 0 5-1.8 5-3 0-4.1-10.5-15.5-10.5-8 0-14.7 5.9-15.8 13.9-.3 2-.3 4.2-.3 6.4 0 3.6.4 5.5 2.8 8.3l3 3.4c2.4 2.3 5.7 2.8 9 3.2l2.2.2c4.3 0 6.9-2.3 6.9-6.6 0-7.5-6.3-4.7-6.3-8.3 0-2.4 3.3-2.4 5-2.4 2.3 0 4.6.4 7 .4 1.9 0 4 0 4.8 2v.4c0 3.2-2.5 3.6-2.5 6.1ZM497.7 563.2c-1.8 1.8-2 5.7-2 8.2 0 2.8.4 5.6.4 8.4v7c0 2.2 0 6.5 1.8 7.8 1.4 1 4.2 1.9 4.2 4 0 1.2-3.4 1.3-5.8 1.3h-2.1c-1.9 0-3.7.3-5.5.3-1.4 0-3.7-.1-3.7-2 0-3.1 5.2-2.2 5.2-7.6 0-1.7-.1-3.4-.3-5-.2-2.5-.4-5-3.4-5.6l-3-.2h-1.8c-2.5 0-10.1 0-11.4 1-1.4 1.3-1.8 2.3-1.8 4 0 1.4-.3 2.7-.3 4 0 7.2 7.5 6.1 7.5 8.8v.2c-.3 1.6-2.2 1.6-3.5 1.6h-5.8c-2.3 0-4.4 1-6.7 1-1.3 0-3.6-1-3.6-2.7 0-2.1 5.3-2.7 6-6.3l.3-4.4v-.4l-.1-6.2V569c0-1.6 0-6.7-1.6-7.2-1.3-.4-3.7-.4-3.7-2.3s3-3 4.7-3c1.7 0 3.3.8 5 .8l4.8-.3c1.2 0 3.3.4 3.3 2 0 3.6-6.4 1-6.4 7.8 0 9.6 3.2 9.8 11.7 9.8 4.2 0 10 0 10-5.6v-1.6c0-8.8-6-7.6-6-10.5 0-1.8 4.9-1.8 6.1-1.8 1.2 0 2.3 0 3.4.2h6.5c1 0 3 .1 3 1.5 0 1.6-4.2 3.4-5.4 4.5ZM539 599.5c-2.3.4-4.6.4-7 .4h-10.5c-1.3 0-2.7 0-4 .2-1.6.2-3.2.4-5 .4-2.3 0-4.6-.4-5.8-2.7l-.2-.7c0-.6 2.6-1.2 3.2-1.5a8 8 0 0 0 1.8-1.5c2.4-3 2.6-8.7 2.6-12.4v-2.2c0-5-.1-15.3-.7-16.5-.3-.6-.5-.8-1.2-1.2-1.2-.6-4.7-1.4-4.7-3.1l.2-.7c.9-1.6 8.3-1.6 10.1-1.6 2.5 0 4.9.1 7.4.4l5.4.2c5.7 0 10.7 0 10.7 7.2 0 1.2-.3 3.7-2 3.7-.5 0-1.1-.4-1.5-.8-3.8-3.3-3.2-6.1-9.2-6.7h-2c-3.7 0-5.2.7-5.5 4.5l-.2 4.3c0 2.5.2 7.8 3.7 7.8h.6c2.7-.4 4.5-1.8 5.3-4.6l.6-1.9c.1-.4.4-1 1-1 1.2 0 1.4 3.1 1.6 4 .3 3.1 1.1 6.1 1.1 9.2 0 1-.4 4-1.8 4-1.3 0-3-4.7-4.2-5.6-1-.8-2.3-1.1-3.6-1.1-2.4 0-3.7 1-4 3.3-.4 2.2-.8 4.6-.8 7 0 3 1 5 4.2 5.7 2.3.6 4.8 1 7.3 1 3 0 5.4-.6 6.4-3.8.6-1.6 1.8-5.7 3.9-5.7 1 0 1 4.7 1 5.5 0 3.2-.8 5.8-4.3 6.5ZM583.6 600.4c-2 0-3.8-1.1-5.7-1.1h-2.4c-1.5 0-3.1-.9-3.1-2.5 0-2 2-2.1 3.5-2.6 1-.4 1.3-.7 1.3-1.9 0-1.8-1-4.3-1.7-6-.8-1.7-2.7-2.2-4.5-2.2l-2.7.2h-2.6c-1.1 0-1.8 0-2.8.8-1.5 1.2-3.9 4-3.9 6 0 2.6 3.9 5 3.9 7.1 0 1.9-7 2-8.3 2-1.8 0-7.4 0-7.4-2.7 0-3.6 5.8-3.1 8-7.7 1.6-3.6 2-7.8 3.3-11.6.8-2.2 1.7-4.5 2.4-6.8 1.1-3 3.3-11.1 5.6-13 1.1-1 3-2 4.5-2 1.8 0 2.6 1 3.3 2.6 1 2.5 1.6 5.3 2.4 8 1.4 4.4 2.8 8.8 4 13.2 1.4 4.9 2.2 10.4 6.4 13.8 1 .7 3.6 2.4 3.6 3.7 0 1.6-5.9 2.6-7.1 2.6Zm-16-30c-1.6 0-4.2 4.6-4.2 6 0 2.1 2.4 4.4 4.5 4.4 2 0 4-1.2 4-3.4 0-2-2-7-4.4-7ZM633.5 600.8l-.7-.1c-5.5-.4-7.6-1.8-10.7-6.2-1.7-2.3-6.9-10.4-9.2-11.2-.6-.2-1-.3-1.7-.3-2.8 0-2.9 4-2.9 6v2c0 2.3.3 4.4 3.2 5.2 1 .3 3 .6 3 2 0 1.7-4 2.2-5.2 2.2l-3.5-.1-5.4.1c-1.4 0-5.2 0-5.2-2 0-2.4 5.4-.4 6.6-7.1.5-2.7.7-5.5.7-8.3l-.1-4.6v-8.8c0-2.8-.1-6.7-2.7-8.3-1-.5-3.5-1.6-3.5-2.7 0-2.1 6.7-2.2 8.7-2.2h2.4c8.6 0 21.5.4 21.5 11.4a12 12 0 0 1-6 10.2l-2.8 1.5c-.4.3-.7.5-.7 1 0 1.8 3.3 5 4.5 6.3 3 3 5.6 6 9 8.4 1.3.8 3.7 2.4 3.7 4 0 1.4-2.1 1.5-3 1.5ZM612.3 561h-.4c-3.7 0-4.1 7.8-4.1 10.4 0 2.7 0 7 3.8 7l2.6-.3c5.3-1.4 5.8-4 5.8-9s-3.3-7.4-7.7-8v-.1ZM676.7 571.2c-1.2 0-3.8-3.5-4.3-4.6l-.7-1.7c-.6-1.9-1-2.8-3.3-2.8h-1.2c-4.2.5-7.5 1-8.4 5.8-.4 2-.4 4.2-.4 6.3 0 4.5.1 9 .4 13.6.1 2.8.9 6.3 3.3 8 1.5 1 2.8 1.6 2.8 3.5 0 1.3-1 1.3-2 1.3-2.3 0-4.7-.5-7-.5-2.6 0-5.2.8-7.8.8-1 0-3 0-3-1.5 0-4.4 6.9-2.1 6.9-12.6 0-5.4.3-10.8.3-16.3 0-1.6 0-4-.6-5.4-1.2-2.3-4.4-3-6.9-3l-2.3.2c-2.8.6-3.5 1.8-4.7 4.2-.6 1.2-2 6-3.6 6-1.4 0-1.7-5.8-1.7-6.9 0-1.3.2-2.7.4-4 .4-2.5.4-4.8 3.7-4.8 3.2 0 6.3.9 9.5.9 2.7 0 5.4-.6 8.1-.6 2.5 0 5 .7 7.4.7 2.6 0 5.2-.3 7.9-.5 1.6-.3 3.3-.5 5-.5 3.4 0 3.7 2.1 3.7 4.5v4.8c0 1-.1 5.1-1.4 5.1ZM731.4 567.6c-.4 0-.7-.2-1.1-.4-5-2.6-2.4-6.7-11-6.7-5.4 0-6.5 5.3-6.5 9.7 0 2.4.4 6.4 3.5 6.4h.3c3.4 0 4.4-.8 5.6-4 .3-.8.8-2.1 2-2.1 1.4 0 1.6 2.5 1.6 4.4v1.8c0 2.5.5 5 .5 7.6 0 .7 0 3.1-1 3.1-.6 0-1.1-.5-1.5-.9-2-2.3-1.4-6-5.5-6-3.6 0-5.3 1.4-5.3 5l-.1 4.1c0 3 .2 6 3.2 7.2 1.1.6 2.8 1.2 2.8 2.8 0 .8-.7 1.3-1.6 1.3-1.5 0-3-.5-4.6-.5-1.7 0-3.5.4-5.2.4h-4.3c-1 0-2.6-1-2.6-2.2 0-.8.9-1 1.5-1.3 3.3-1.3 4.8-4.3 4.8-7.7 0-5.3-.6-10.6-.6-15.9l.1-3c0-2-.2-7.9-1.7-9.2-1.2-1.2-4.9-.9-4.9-2.4 0-.3.3-.7.5-.9 1.3-1.6 4.4-2 6.4-2 1.2 0 2.3.1 3.5.3 3 .4 6 .7 9 .7l6.8-.1c5.4 0 6.6 3.3 6.6 8 0 .8 0 2.4-1.2 2.4ZM770 600.4c-2 0-3.8-1.1-5.7-1.1h-2.4c-1.4 0-3.1-.9-3.1-2.5 0-2 2-2.1 3.5-2.6 1-.4 1.3-.7 1.3-1.9 0-1.8-1-4.3-1.7-6-.8-1.7-2.7-2.2-4.4-2.2l-2.8.2h-2.6c-1.1 0-1.8 0-2.7.8-1.6 1.2-4 4-4 6 0 2.6 3.9 5 3.9 7.1 0 1.9-7 2-8.3 2-1.8 0-7.4 0-7.4-2.7 0-3.6 5.8-3.1 8-7.7 1.6-3.6 2-7.8 3.4-11.6l2.4-6.8c1-3 3.2-11.1 5.5-13 1.1-1 3-2 4.5-2 1.8 0 2.6 1 3.3 2.6 1 2.5 1.6 5.3 2.4 8 1.4 4.4 2.8 8.8 4 13.2 1.5 4.9 2.2 10.4 6.4 13.8 1 .7 3.6 2.4 3.6 3.7 0 1.6-5.9 2.6-7.1 2.6Zm-16-30c-1.6 0-4.2 4.6-4.2 6 0 2.1 2.4 4.4 4.5 4.4 2 0 4-1.2 4-3.4 0-2-2-7-4.4-7ZM819.9 600.8l-.7-.1c-5.5-.4-7.6-1.8-10.7-6.2-1.7-2.3-6.9-10.4-9.2-11.2-.6-.2-1-.3-1.7-.3-2.8 0-2.9 4-2.9 6v2c0 2.3.3 4.4 3.2 5.2 1 .3 3 .6 3 2 0 1.7-4 2.2-5.2 2.2l-3.5-.1-5.4.1c-1.4 0-5.3 0-5.3-2 0-2.4 5.5-.4 6.7-7.1.4-2.7.7-5.5.7-8.3l-.1-4.6v-8.8c0-2.8-.2-6.7-2.8-8.3-.8-.5-3.4-1.6-3.4-2.7 0-2.1 6.7-2.2 8.7-2.2h2.4c8.6 0 21.5.4 21.5 11.4a12 12 0 0 1-6 10.2l-2.9 1.5c-.3.3-.6.5-.6 1 0 1.8 3.3 5 4.5 6.3 2.9 3 5.6 6 9 8.4 1.3.8 3.7 2.4 3.7 4 0 1.4-2.1 1.5-3 1.5ZM798.7 561h-.4c-3.7 0-4.1 7.8-4.1 10.4 0 2.7 0 7 3.8 7l2.6-.3c5.3-1.4 5.7-4 5.7-9s-3.2-7.4-7.6-8v-.1ZM879.1 560.6h-.3c-2.3 0-2.4 12.2-2.4 15.8v3.5c0 5.2.2 14.2 2.1 15.6 1 .7 2.3 1.2 2.3 2.6 0 2.4-6.4 1.8-8 2-1.1.2-2.2.6-3.4.6a5 5 0 0 1-4-2c-.1-.2-.4-.5-.4-.9 0-.5 1.6-1.3 2-1.7.4-.2.7-.6 1-1 1.6-1.8 1.9-4.3 2-6.6 0-3 .2-6 .4-9 .2-2.5.5-5 .5-7.6 0-.7 0-1.4-.4-2-.2-.6-1-2.4-1.8-2.4-.9 0-1.7 2.2-2 3-2.2 5.7-3.7 11.7-6.3 17.3-.7 1.4-1.2 2.8-1.6 4.4-.7 2.8-.8 7.6-4.7 7.6h-.3c-3.8 0-4.2-2.2-4.7-5.5-.3-1.3-.4-2.7-.8-4-1.3-5.6-3.4-11-5.4-16.2-.4-.9-1.7-5-2.6-5-1 0-1.1 3-1.1 3.6-.2 2.4-.5 4.7-.5 7.1 0 2.9.4 5.7.9 8.5.4 2.8.5 5.6 2 8 .4.7 1 1.3 1 2.1 0 2-4.5 2.1-6.4 2.1-1.6 0-8.8-.3-8.8-2.5 0-2.7 5.8-2 6.4-9.9.2-1.2.2-2.5.2-3.8v-4c0-3 0-6 .4-8.9.2-1.7.4-3.4.4-5.2 0-2.4-.5-3-2.6-4-1.4-.6-3.3-1.6-3.3-3.4 0-1.5 1.7-1.9 2.9-2 2-.3 4-.5 6-.5s4 .4 5.6 1.7c1.6 1.3 2.4 5.2 3 7.3l1.6 5c.8 2.4 5.2 15.3 7.6 15.3 1.4 0 2.5-4.2 2.9-5.2l4-12.4c1.7-5 4.2-11.6 10.5-11.6 1.6 0 3.2.4 4.8.4 1.2 0 2.4-.3 3.7-.3 1.1 0 1.8 1 1.8 2 0 2-2.7 2-4.3 2l.1.1Z"/></svg>