<svg width="801" height="46" viewBox="0 0 801 46" fill="none" xmlns="http://www.w3.org/2000/svg">
<path d="M31.2118 12.4404C30.8133 12.4404 30.4915 12.2411 30.093 12.1185C25.1889 9.49781 27.7942 5.51331 19.3499 5.51331C14.0474 5.51331 13.0052 10.6779 13.0052 14.9996C13.0052 17.3597 13.3271 21.3444 16.4075 21.3444H16.668C20.0089 21.3444 20.9898 20.5629 22.1698 17.4212C22.4916 16.6396 23.028 15.3216 24.0702 15.3216C25.5108 15.3216 25.71 17.8042 25.71 19.6433V21.4057C25.71 23.8884 26.1697 26.3865 26.1697 28.8692C26.1697 29.5282 26.1697 31.9496 25.1889 31.9496C24.6679 31.9496 24.1468 31.4286 23.8096 31.0301C21.7867 28.7313 22.4303 25.0685 18.3691 25.0685C14.829 25.0685 13.2045 26.509 13.2045 30.1104C13.2045 31.4897 13.0665 32.7924 13.0665 34.1104C13.0665 36.9915 13.2658 39.8729 16.2082 41.1755C17.327 41.6966 19.0281 42.2943 19.0281 43.8575C19.0281 44.7157 18.2465 45.1601 17.4496 45.1601C15.9477 45.1601 14.4305 44.7002 12.9286 44.7002C11.2275 44.7002 9.52637 45.0987 7.82525 45.0987C6.44596 45.0987 5.00538 45.0374 3.64142 45.0374C2.59929 45.0374 1.08208 44.1178 1.08208 42.9378C1.08208 42.1562 1.9403 41.8957 2.58396 41.6352C5.78697 40.3325 7.22756 37.4513 7.22756 34.1104C7.22756 28.8691 6.7065 23.7045 6.7065 18.5246C6.7065 17.5437 6.7678 16.6242 6.7678 15.6434C6.7678 13.6817 6.56857 7.85797 5.12798 6.53999C3.94792 5.35994 0.285156 5.6819 0.285156 4.18001C0.285156 3.85818 0.545688 3.52093 0.744918 3.3217C2.04758 1.68188 5.06668 1.29883 7.02833 1.29883C8.20838 1.29883 9.32714 1.4367 10.4919 1.6206C13.373 2.01906 16.3155 2.27968 19.1967 2.27968C21.4955 2.27968 23.6411 2.14161 25.9399 2.14161C31.1811 2.14161 32.4225 5.42131 32.4225 10.0649C32.4225 10.8465 32.3612 12.4251 31.1811 12.4251L31.2118 12.4404Z" fill="white"/>
<path d="M68.3291 44.1946C66.3675 44.1946 64.4671 43.934 62.5668 43.934C59.4251 43.934 56.3447 44.1333 53.2643 44.3938C49.0804 44.7156 44.8813 44.7156 40.6975 44.7156H39.9159C38.7971 44.7156 34.6133 44.7155 34.6133 43.5355C34.6133 43.0144 34.9351 42.5546 35.1956 42.1562C36.9581 39.7961 40.6975 43.1984 41.3565 36.8536C41.6783 33.2522 41.7549 29.5894 41.7549 25.9266C41.7549 22.7236 41.617 19.5819 41.4944 16.3636C41.4331 14.1414 41.4331 7.45956 39.4714 6.2182C38.0308 5.35998 36.0079 5.49796 36.0079 3.21448C36.0079 1.91182 36.4677 1.25279 37.8469 1.25279C38.6285 1.25279 39.4255 1.45202 40.2071 1.45202C41.5097 1.45202 42.7664 0.992188 44.069 0.992188C45.8315 0.992188 47.6092 1.65126 49.3716 1.65126C50.0306 1.65126 50.6743 1.51339 51.272 1.51339C52.3907 1.51339 54.7355 1.71259 54.7355 3.21448C54.7355 4.9769 49.4942 5.69708 48.8506 11.1376C48.3908 14.6011 48.3908 18.1414 48.3908 21.6203V24.4401C48.3908 26.9995 48.4521 29.5434 48.6513 32.0261C49.2337 39.229 49.1724 40.6085 56.973 40.6085C60.6358 40.6085 64.2986 40.2866 66.0763 36.5472C66.5974 35.3672 67.5169 31.8269 69.0954 31.8269C70.6739 31.8269 71.1184 37.7118 71.1184 38.8919C71.1184 40.7309 70.7965 44.1946 68.3751 44.1946H68.3291Z" fill="white"/>
<path d="M102.765 7.21213C101.845 7.87112 101.125 8.65278 100.466 9.5723C97.9834 13.373 96.6042 17.8172 93.5851 21.2961C90.9644 24.2998 89.4625 27.3191 89.4625 31.3803C89.4625 35.4415 90.9644 38.7058 94.1061 41.5257C94.3667 41.7249 94.7651 41.9854 94.7651 42.4452C94.7651 44.3455 88.2212 45.3264 86.7193 45.3264C85.0182 45.3264 78.0758 45.0045 78.0758 42.5831C78.0758 40.8819 82.796 38.2 82.796 32.6369C82.796 27.0738 79.9761 22.6907 77.7539 17.8479C76.0528 14.1851 75.593 11.1047 71.9303 8.68331C70.0912 7.44195 66.7656 5.94006 66.7656 3.31942C66.7656 1.81753 69.1257 1.81756 70.1679 1.81756C72.4667 1.81756 74.6889 2.07816 76.9723 2.07816C77.5547 2.07816 78.0911 2.0168 78.6121 2.0168C79.9148 2.0168 83.2557 2.41531 83.2557 4.17773C83.2557 5.29649 81.0949 8.17751 81.0949 10.9208C81.0949 13.664 83.8381 20.6679 86.9798 20.6679C88.2825 20.6679 89.2786 19.6871 90.0602 18.7675C91.9606 16.668 95.4241 12.2235 95.4241 9.28102C95.4241 6.66038 91.5621 5.15848 91.5621 3.51866C91.5621 1.75624 94.9643 1.67969 96.2057 1.67969C97.3244 1.67969 98.4279 1.81762 99.5466 1.87893C100.206 1.94023 100.926 1.9401 101.57 1.9401H103.271C104.573 1.9401 107.133 1.94021 107.133 3.77926C107.133 5.74091 104.052 6.39991 102.75 7.24281L102.765 7.21213Z" fill="white"/>
<path d="M128.221 44.5316C125.738 44.5316 123.317 43.5508 120.819 43.5508C120.099 43.5508 119.44 43.6887 118.658 43.9492C117.018 44.4703 115.715 44.8687 113.876 44.8687C112.375 44.8687 109.754 44.6082 109.754 42.5699C109.754 39.6888 116.696 41.9877 117.677 34.6468C117.815 33.666 117.815 32.6238 117.815 31.3058C117.815 29.007 117.677 26.7235 117.677 24.4247C117.677 20.3022 118.076 16.103 118.076 11.7966C118.076 9.89626 118.076 7.15307 115.915 6.49408C114.796 6.17225 111.731 5.9116 111.731 4.27179C111.731 2.11091 117.815 1.58984 119.455 1.58984C120.696 1.58984 121.938 1.85044 123.194 1.85044C124.635 1.85044 126.137 1.65121 127.639 1.65121C129.141 1.65121 131.363 1.85044 131.363 3.95001C131.363 6.89249 127.439 4.93086 125.8 7.22967C124.558 9.06872 124.497 12.0725 124.497 14.1721C124.497 18.5552 124.819 22.9381 124.819 28.0568C124.819 30.8001 124.88 36.8229 126.06 38.4015C126.642 39.2597 128.359 41.1448 129.401 41.1448C129.723 41.1448 129.983 40.9455 130.321 40.9455C131.041 40.9455 131.439 41.865 131.439 42.4474C131.439 44.0872 129.478 44.547 128.236 44.547L128.221 44.5316Z" fill="white"/>
<path d="M175.853 10.217C175.853 17.0215 175.991 23.8413 175.991 30.7071C175.991 33.1285 175.991 44.9751 172.788 44.9751C172.588 44.9751 172.389 44.9137 172.205 44.837C170.244 44.0554 164.282 34.3698 162.719 32.0097C160.497 28.8067 157.999 25.8489 155.715 22.6459C154.673 21.0674 151.393 15.5809 149.493 15.5809C147.47 15.5809 147.01 17.5427 147.01 19.3204C147.01 22.2629 147.01 35.6265 147.731 37.1897C149.432 40.6532 153.294 40.4694 153.294 42.431C153.294 44.7911 148.39 44.7912 146.811 44.7912C145.769 44.7912 144.788 44.7298 143.731 44.6531C141.892 44.5918 137.049 44.7144 137.049 41.9712C137.049 39.0287 142.351 41.2509 142.351 37.1897L142.413 23.7034C142.413 19.9027 142.673 16.1786 142.673 12.3166C142.673 10.9373 142.673 7.93353 141.815 6.95271C140.512 5.51212 136.252 5.83395 136.252 4.07153C136.252 1.91065 140.114 1.77272 141.616 1.77272C142.796 1.77272 144.037 1.83409 145.217 2.03332C149.999 2.69231 151.7 5.11376 154.321 8.77653C156.619 11.9182 165.784 26.7072 169.186 26.7072C170.949 26.7072 171.087 22.5847 171.087 20.4238V19.4429C171.087 17.6805 171.286 15.8414 171.286 14.0023C171.286 11.3204 170.765 7.84167 168.267 6.27848C167.286 5.69611 165.386 5.42026 165.386 3.97967C165.386 1.29773 170.949 0.837891 172.91 0.837891C174.872 0.837891 181.615 1.55814 181.615 4.24008C181.615 6.07913 175.853 5.54276 175.853 10.2017V10.217Z" fill="white"/>
<path d="M221.891 32.4084C221.891 34.4314 222.473 36.4084 222.473 38.4314C222.473 40.1938 222.274 41.0519 220.772 42.1707C218.412 43.8718 209.707 44.914 206.627 44.914C203.347 44.914 200.022 44.4542 197.003 43.1515C186.137 38.37 181.754 32.8068 181.754 20.6998C181.754 11.2134 190.198 3.48942 199.102 1.9722C202.121 1.45114 205.186 1.25195 208.206 1.25195C214.811 1.25195 223.393 3.15223 223.393 11.336C223.393 12.516 223.332 16.1789 221.631 16.1789C218.611 16.1789 217.569 5.97211 206.382 5.97211C198.52 5.97211 191.976 11.6733 190.934 19.5199C190.673 21.5428 190.612 23.7037 190.612 25.8033C190.612 29.3434 191.072 31.167 193.432 33.9256C194.413 35.0444 195.271 36.2245 196.313 37.2666C198.673 39.5654 201.937 40.0864 205.079 40.4696C205.799 40.5309 206.581 40.6688 207.301 40.6688C211.485 40.6688 214.045 38.37 214.045 34.1248C214.045 26.8606 207.884 29.5427 207.884 26.0025C207.884 23.7037 211.087 23.7037 212.727 23.7037C215.025 23.7037 217.309 24.0255 219.608 24.0255C221.447 24.0255 223.47 24.0254 224.328 25.9258C224.389 26.0637 224.389 26.2477 224.389 26.3856C224.389 29.5273 221.906 29.9257 221.906 32.4084H221.891Z" fill="white"/>
<path d="M274.424 42.7234C272.662 43.9035 270.761 44.1028 268.662 44.1028C266.961 44.1028 265.198 43.9649 263.497 43.9649C259.497 43.9649 255.574 44.8232 251.589 44.8232C249.29 44.8232 245.704 44.6852 243.727 43.3825C243.467 43.122 243.068 42.8615 243.068 42.463C243.068 41.3443 247.973 39.9036 248.953 39.3213C251.513 37.6201 251.697 29.8962 251.697 25.4365V23.4748C251.697 21.4519 251.758 19.3522 251.758 17.2527C251.758 14.1722 251.758 8.41002 248.677 6.6476C247.697 6.12654 243.835 5.00772 243.835 3.70506C243.835 1.74341 248.938 1.40625 250.317 1.40625C251.697 1.40625 252.677 1.60556 253.919 2.06532C254.639 2.32586 254.9 2.4638 255.681 2.4638C256.8 2.4638 257.98 2.20325 259.083 2.06532C260.723 1.86609 262.286 1.74336 263.926 1.74336C273.489 1.74336 283.374 7.96555 284.876 17.9117C285.137 19.7508 285.198 21.6511 285.198 23.4748C285.198 31.5973 281.014 38.2638 274.393 42.7234H274.424ZM262.179 6.78548C258.516 6.78548 258.118 8.62458 258.118 11.8276V16.4712C258.118 21.0535 257.398 25.5743 257.398 30.0953C257.398 33.6968 257.597 39.9803 262.562 39.9803C263.543 39.9803 264.524 39.781 265.505 39.5205C267.604 39.0607 269.765 38.4783 271.589 37.3596C276.493 34.2792 276.892 27.8732 276.892 22.6932C276.892 13.5287 271.788 6.78548 262.164 6.78548H262.179Z" fill="white"/>
<path d="M329.933 33.5589C327.45 38.9994 322.408 42.0645 316.968 43.9035C314.945 44.5625 312.784 45.0836 310.623 45.0836C304.6 45.0836 298.639 42.0031 294.654 37.5588C291.375 33.8194 289.551 29.697 289.551 24.6549C289.551 15.5516 292.555 7.62829 301.597 4.22605C304.937 2.98469 308.478 1.60547 312.064 1.60547C319.328 1.60547 323.588 4.88506 327.972 10.3715C330.853 14.0343 332.293 18.2948 332.293 22.9997C332.293 26.5398 331.435 30.3252 329.933 33.5435V33.5589ZM311.405 7.50571C302.378 7.50571 298.317 13.3295 298.317 21.8351C298.317 30.3407 301.397 39.3212 311.343 39.3212C320.309 39.3212 324.37 33.4362 324.37 24.9153C324.37 16.8695 320.907 7.50571 311.405 7.50571Z" fill="white"/>
<path d="M376.86 32.2561C376.86 34.279 377.442 36.2561 377.442 38.279C377.442 40.0414 377.243 40.8996 375.741 42.0183C373.381 43.7194 364.676 44.7616 361.596 44.7616C358.316 44.7616 354.991 44.3018 351.971 42.9992C341.106 38.2177 336.723 32.6545 336.723 20.5474C336.723 11.061 345.167 3.33707 354.071 1.81986C357.09 1.29879 360.155 1.09961 363.174 1.09961C369.78 1.09961 378.362 2.99989 378.362 11.1836C378.362 12.3637 378.3 16.0265 376.599 16.0265C373.596 16.0265 372.538 5.81976 361.351 5.81976C353.489 5.81976 346.945 11.5208 345.903 19.3674C345.642 21.3903 345.581 23.5513 345.581 25.6509C345.581 29.1911 346.041 31.0147 348.401 33.7733C349.381 34.892 350.24 36.0721 351.282 37.1143C353.642 39.4131 356.906 39.9341 360.048 40.3172C360.768 40.3785 361.55 40.5165 362.27 40.5165C366.454 40.5165 369.013 38.2176 369.013 33.9725C369.013 26.7083 362.852 29.3903 362.852 25.8502C362.852 23.5513 366.055 23.5513 367.695 23.5513C369.994 23.5513 372.278 23.8731 374.576 23.8731C376.415 23.8731 378.438 23.8731 379.297 25.7735C379.358 25.9114 379.358 26.0954 379.358 26.2333C379.358 29.375 376.875 29.7733 376.875 32.2561H376.86Z" fill="white"/>
<path d="M422.698 7.96501C420.936 9.80406 420.798 13.5894 420.798 16.0108C420.798 18.7541 421.12 21.5127 421.12 24.2559C421.12 26.4781 421.058 28.7769 421.058 31.1984C421.058 33.2979 421.058 37.543 422.821 38.7997C424.2 39.8418 426.943 40.6388 426.943 42.6617C426.943 43.8418 423.664 43.9643 421.319 43.9643H419.219C417.457 43.9643 415.679 44.2249 413.917 44.2249C412.476 44.2249 410.254 44.0869 410.254 42.2019C410.254 39.2594 415.357 40.1024 415.357 34.7998C415.357 33.16 415.219 31.5201 415.097 29.9569C414.836 27.5355 414.637 24.9762 411.756 24.4551C410.775 24.3172 409.733 24.2559 408.752 24.2559H407.051C404.629 24.2559 397.105 24.3171 395.863 25.2979C394.484 26.478 394.162 27.4589 394.162 29.2213C394.162 30.524 393.84 31.7807 393.84 33.0833C393.84 40.1484 401.166 39.0449 401.166 41.6655V41.9261C400.905 43.4893 399.066 43.4892 397.764 43.4892C396.323 43.4892 394.882 43.428 393.503 43.428H392.063C389.84 43.428 387.741 44.4088 385.519 44.4088C384.216 44.4088 381.979 43.3666 381.979 41.7881C381.979 39.6885 387.159 39.1062 387.802 35.5661C388.063 34.1255 388.124 32.6848 388.124 31.2442V30.8457C388.124 28.8841 387.986 26.8459 387.986 24.8229C387.986 21.0835 388.124 17.4208 388.124 13.5588C388.124 11.919 388.063 7.0149 386.423 6.49383C385.182 6.09537 382.883 6.03407 382.883 4.19503C382.883 2.35598 385.825 1.17578 387.404 1.17578C389.105 1.17578 390.683 2.03409 392.384 2.03409C393.886 2.03409 395.465 1.77349 397.028 1.77349C398.208 1.77349 400.231 2.09531 400.231 3.67383C400.231 7.27529 394.009 4.79264 394.009 11.3979C394.009 20.823 397.089 21.0223 405.472 21.0223C409.595 21.0223 415.235 20.961 415.296 15.4591V13.9573C415.296 5.31377 409.411 6.49383 409.411 3.61265C409.411 1.85023 414.131 1.8502 415.373 1.8502C416.491 1.8502 417.595 1.9115 418.713 2.04943C420.292 2.11073 421.794 2.11061 423.357 2.11061H425.058C425.978 2.11061 427.939 2.17195 427.939 3.48993C427.939 5.06845 423.817 6.8309 422.698 7.93433V7.96501Z" fill="white"/>
<path d="M463.049 43.5829C460.888 44.0426 458.605 44.0427 456.245 44.0427C452.842 44.0427 449.44 43.9813 446.038 43.9813C444.735 43.9813 443.356 43.9813 442.038 44.1806C440.46 44.3798 438.896 44.6402 437.256 44.6402C434.958 44.6402 432.674 44.2418 431.494 41.9583C431.356 41.759 431.295 41.5599 431.295 41.2994C431.295 40.6404 433.854 40.0581 434.437 39.7975C435.096 39.3991 435.678 38.878 436.199 38.2957C438.559 35.3532 438.682 29.79 438.682 26.1119V24.0123C438.682 19.1082 438.62 9.02418 438.023 7.84413C437.701 7.18513 437.502 6.98587 436.843 6.66404C435.663 6.08168 432.26 5.22344 432.26 3.58362C432.26 3.38439 432.322 3.12378 432.46 2.92455C433.318 1.36136 440.582 1.36133 442.345 1.36133C444.766 1.36133 447.126 1.49938 449.547 1.68329C451.31 1.88252 453.088 1.9437 454.85 1.9437C460.413 1.9437 465.333 2.00498 465.333 9.00868C465.333 10.1887 465.011 12.6103 463.432 12.6103C462.85 12.6103 462.252 12.2118 461.854 11.8287C458.13 8.54906 458.773 5.80578 452.888 5.28472C452.229 5.22342 451.586 5.22336 450.865 5.22336C447.325 5.22336 445.885 5.94369 445.563 9.66776C445.425 11.047 445.364 12.4876 445.364 13.8516C445.364 16.3343 445.563 21.5756 449.026 21.5756C449.226 21.5756 449.348 21.5756 449.547 21.5143C452.229 21.1158 453.992 19.7518 454.789 17.0699C454.988 16.4875 455.049 15.8285 455.31 15.1695C455.448 14.7711 455.708 14.25 456.229 14.25C457.471 14.25 457.731 17.2539 457.869 18.1734C458.191 21.1772 458.988 24.135 458.988 27.1387C458.988 28.1809 458.589 31.0008 457.149 31.0008C455.907 31.0008 454.206 26.4183 453.088 25.4988C452.168 24.7172 450.789 24.4568 449.547 24.4568C447.249 24.4568 445.946 25.3763 445.548 27.6598C445.226 29.8819 444.827 32.2421 444.827 34.4643C444.827 37.5447 445.808 39.3684 448.95 40.1653C451.249 40.7477 453.67 41.0848 456.091 41.0848C459.034 41.0848 461.394 40.5637 462.436 37.422C462.957 35.8435 464.137 31.8589 466.176 31.8589C467.294 31.8589 467.294 36.38 467.294 37.1616C467.294 40.3646 466.436 42.8626 463.034 43.5829H463.049Z" fill="white"/>
<path d="M506.757 44.4247C504.856 44.4247 503.094 43.3825 501.193 43.3825C500.473 43.3825 499.692 43.4439 498.895 43.4439C497.454 43.4439 495.814 42.5243 495.814 40.8845C495.814 38.9841 497.837 38.8615 499.216 38.4018C500.259 38.0033 500.519 37.6815 500.519 36.5628C500.519 34.7237 499.6 32.3023 498.818 30.6012C498.098 28.9614 496.197 28.5016 494.496 28.5016C493.638 28.5016 492.734 28.7009 491.814 28.7009C490.956 28.7009 490.113 28.6395 489.255 28.6395C488.136 28.6395 487.493 28.7775 486.573 29.4978C485.071 30.6779 482.711 33.4976 482.711 35.4592C482.711 37.8806 486.512 40.2407 486.512 42.3403C486.512 44.1794 479.769 44.3634 478.389 44.3634C476.627 44.3634 471.125 44.2254 471.125 41.6814C471.125 38.1413 476.826 38.6011 478.91 34.0801C480.55 30.5399 480.872 26.4174 482.251 22.7546C483.033 20.5324 483.891 18.3103 484.611 16.0728C485.653 13.069 487.814 5.14576 490.052 3.24541C491.171 2.26458 492.933 1.40625 494.435 1.40625C496.197 1.40625 496.994 2.38707 497.638 3.88896C498.68 6.37167 499.278 9.05373 500.059 11.6744C501.362 16.0574 502.741 20.3792 503.983 24.701C505.362 29.4825 506.082 34.9076 510.205 38.1872C511.124 38.9075 513.745 40.5473 513.745 41.7886C513.745 43.3671 507.983 44.4094 506.741 44.4094L506.757 44.4247ZM491.048 15.0305C489.546 15.0305 487.048 19.5516 487.048 20.9921C487.048 23.0151 489.347 25.2526 491.431 25.2526C493.393 25.2526 495.293 24.0725 495.293 21.9116C495.293 20.0113 493.332 15.0305 491.033 15.0305H491.048Z" fill="white"/>
<path d="M555.615 44.8235C555.354 44.8235 555.155 44.8235 554.956 44.7622C549.592 44.4403 547.553 42.9997 544.488 38.7392C542.787 36.4404 537.745 28.5326 535.462 27.7357C534.941 27.5365 534.419 27.4137 533.822 27.4137C531.079 27.4137 531.002 31.2758 531.002 33.2375V35.1992C531.002 37.5593 531.262 39.5822 534.082 40.3638C535.124 40.6243 536.964 40.9461 536.964 42.3867C536.964 43.9652 533.163 44.4862 531.983 44.4862C530.803 44.4862 529.684 44.3484 528.519 44.3484C526.818 44.3484 525.056 44.4862 523.278 44.4862C521.837 44.4862 518.113 44.4863 518.113 42.4634C518.113 40.1646 523.477 42.1415 524.596 35.5209C525.056 32.9003 525.316 30.157 525.316 27.3984C525.316 25.8965 525.255 24.3947 525.178 22.8775C525.117 20.7779 525.117 18.6937 525.117 16.5941V14.2339C525.117 11.552 525.056 7.75141 522.496 6.11159C521.638 5.59053 519.094 4.5484 519.094 3.42965C519.094 1.4067 525.638 1.33008 527.676 1.33008H530.036C538.419 1.33008 551.048 1.72843 551.048 12.5175C551.048 16.7013 548.687 20.2415 545.163 22.4637C544.243 22.9847 543.262 23.3832 542.419 23.9655C542.021 24.2261 541.76 24.4253 541.76 24.9464C541.76 26.7088 544.963 29.8505 546.143 31.1072C549.025 33.9884 551.645 37.0688 555.047 39.3523C556.289 40.1339 558.588 41.7124 558.588 43.3522C558.588 44.6548 556.565 44.7929 555.645 44.7929L555.615 44.8235ZM534.864 5.94285H534.542C530.879 5.94285 530.481 13.6056 530.481 16.1496C530.481 18.8316 530.542 23.0921 534.22 23.0921C535.079 23.0921 535.921 22.8928 536.78 22.6936C541.944 21.3143 542.404 18.6936 542.404 13.8508C542.404 9.00798 539.262 6.64799 534.879 5.92769L534.864 5.94285Z" fill="white"/>
<path d="M597.974 15.8889C596.794 15.8889 594.235 12.4252 593.713 11.3678C593.392 10.8467 593.192 10.3257 593.054 9.72804C592.472 7.82769 592.074 6.90803 589.851 6.90803C589.453 6.90803 589.07 6.90809 588.671 6.96939C584.549 7.42916 581.346 7.95029 580.426 12.5939C580.028 14.6168 580.028 16.7164 580.028 18.7547C580.028 23.1991 580.166 27.6587 580.426 32.1031C580.564 34.8463 581.285 38.3252 583.706 39.965C585.085 40.9458 586.388 41.5435 586.388 43.4286C586.388 44.6699 585.407 44.6698 584.488 44.6698C582.127 44.6698 579.844 44.2102 577.545 44.2102C574.986 44.2102 572.442 44.9304 569.882 44.9304C568.902 44.9304 566.94 44.869 566.94 43.4897C566.94 39.168 573.744 41.3903 573.744 31.1836C573.744 25.881 574.066 20.5783 574.066 15.1378C574.066 13.6359 574.066 11.2146 573.484 9.8966C572.304 7.53649 569.101 6.95405 566.741 6.95405C565.959 6.95405 565.162 7.01536 564.442 7.15329C561.699 7.73566 561.04 8.91581 559.86 11.2759C559.277 12.456 557.898 17.0995 556.319 17.0995C554.879 17.0995 554.68 11.475 554.68 10.3562C554.68 9.05359 554.818 7.73576 555.002 6.4944C555.461 4.01169 555.4 1.71289 558.603 1.71289C561.806 1.71289 564.825 2.57102 567.967 2.57102C570.587 2.57102 573.208 2.05 575.89 2.05C578.311 2.05 580.733 2.77025 583.154 2.77025C585.714 2.77025 588.258 2.44841 590.817 2.18788C592.457 1.92735 594.097 1.72804 595.798 1.72804C599.077 1.72804 599.338 3.82766 599.338 6.17244V7.81237C599.338 8.85449 599.399 9.91196 599.399 10.8928C599.399 11.8736 599.261 15.8735 597.959 15.8735L597.974 15.8889Z" fill="white"/>
<path d="M651.491 12.2859C651.093 12.2859 650.771 12.0868 650.372 11.9642C645.468 9.34352 648.074 5.35901 639.629 5.35901C634.327 5.35901 633.285 10.5236 633.285 14.8453C633.285 17.2054 633.606 21.1901 636.687 21.1901H636.947C640.288 21.1901 641.269 20.4084 642.449 17.2667C642.771 16.4851 643.307 15.1671 644.349 15.1671C645.79 15.1671 645.989 17.6499 645.989 19.489V21.2514C645.989 23.7341 646.449 26.2322 646.449 28.7149C646.449 29.3739 646.449 31.7953 645.468 31.7953C644.947 31.7953 644.426 31.2741 644.089 30.8756C642.066 28.5768 642.71 24.914 638.648 24.914C635.108 24.914 633.484 26.3547 633.484 29.9562C633.484 31.3354 633.346 32.6381 633.346 33.9561C633.346 36.8372 633.545 39.7184 636.488 41.021C637.606 41.5421 639.307 42.1398 639.307 43.703C639.307 44.5612 638.526 45.0058 637.729 45.0058C636.227 45.0058 634.71 44.546 633.208 44.546C631.507 44.546 629.806 44.9444 628.105 44.9444C626.725 44.9444 625.285 44.8831 623.921 44.8831C622.879 44.8831 621.361 43.9635 621.361 42.7835C621.361 42.0019 622.22 41.7414 622.863 41.4809C626.066 40.1782 627.507 37.297 627.507 33.9561C627.507 28.7148 626.986 23.5502 626.986 18.3703C626.986 17.3894 627.047 16.4699 627.047 15.4891C627.047 13.5274 626.848 7.70368 625.407 6.38569C624.227 5.20564 620.564 5.52741 620.564 4.02552C620.564 3.70369 620.825 3.36663 621.024 3.1674C622.327 1.52758 625.346 1.14453 627.308 1.14453C628.488 1.14453 629.606 1.2824 630.771 1.4663C633.652 1.86476 636.595 2.12519 639.476 2.12519C641.775 2.12519 643.92 1.98732 646.219 1.98732C651.46 1.98732 652.702 5.26702 652.702 9.91061C652.702 10.6922 652.641 12.2706 651.46 12.2706L651.491 12.2859Z" fill="white"/>
<path d="M689.221 44.4247C687.321 44.4247 685.559 43.3825 683.658 43.3825C682.938 43.3825 682.156 43.4439 681.359 43.4439C679.919 43.4439 678.279 42.5243 678.279 40.8845C678.279 38.9841 680.302 38.8615 681.681 38.4018C682.723 38.0033 682.984 37.6815 682.984 36.5628C682.984 34.7237 682.064 32.3023 681.283 30.6012C680.563 28.9614 678.662 28.5016 676.961 28.5016C676.103 28.5016 675.199 28.7009 674.279 28.7009C673.421 28.7009 672.578 28.6395 671.72 28.6395C670.601 28.6395 669.957 28.7775 669.038 29.4978C667.536 30.6779 665.176 33.4976 665.176 35.4592C665.176 37.8806 668.977 40.2407 668.977 42.3403C668.977 44.1794 662.233 44.3634 660.854 44.3634C659.092 44.3634 653.59 44.2254 653.59 41.6814C653.59 38.1413 659.291 38.6011 661.375 34.0801C663.015 30.5399 663.337 26.4174 664.716 22.7546C665.498 20.5324 666.356 18.3103 667.076 16.0728C668.118 13.069 670.279 5.14576 672.517 3.24541C673.635 2.26458 675.398 1.40625 676.9 1.40625C678.662 1.40625 679.459 2.38707 680.103 3.88896C681.145 6.37167 681.743 9.05373 682.524 11.6744C683.827 16.0574 685.206 20.3792 686.447 24.701C687.827 29.4825 688.547 34.9076 692.67 38.1872C693.589 38.9075 696.21 40.5473 696.21 41.7886C696.21 43.3671 690.447 44.4094 689.206 44.4094L689.221 44.4247ZM673.513 15.0305C672.011 15.0305 669.513 19.5516 669.513 20.9921C669.513 23.0151 671.812 25.2526 673.896 25.2526C675.858 25.2526 677.758 24.0725 677.758 21.9116C677.758 20.0113 675.796 15.0305 673.498 15.0305H673.513Z" fill="white"/>
<path d="M738.095 44.8216C737.834 44.8216 737.635 44.8215 737.436 44.7602C732.072 44.4384 730.034 42.9977 726.969 38.7373C725.268 36.4385 720.226 28.5307 717.942 27.7337C717.421 27.5345 716.9 27.4118 716.302 27.4118C713.559 27.4118 713.482 31.2739 713.482 33.2355V35.1972C713.482 37.5573 713.743 39.5803 716.563 40.3618C717.605 40.6224 719.444 40.9441 719.444 42.3847C719.444 43.9632 715.643 44.4843 714.463 44.4843C713.283 44.4843 712.164 44.3464 711 44.3464C709.299 44.3464 707.536 44.4843 705.758 44.4843C704.318 44.4843 700.594 44.4844 700.594 42.4614C700.594 40.1626 705.958 42.1395 707.076 35.519C707.536 32.8983 707.797 30.155 707.797 27.3964C707.797 25.8946 707.735 24.3927 707.659 22.8755C707.597 20.7759 707.597 18.6917 707.597 16.5922V14.232C707.597 11.55 707.536 7.74946 704.977 6.10964C704.119 5.58858 701.575 4.54645 701.575 3.4277C701.575 1.40474 708.119 1.32812 710.157 1.32812H712.517C720.9 1.32812 733.528 1.72647 733.528 12.5155C733.528 16.6994 731.168 20.2395 727.643 22.4617C726.724 22.9828 725.743 23.3812 724.9 23.9636C724.501 24.2241 724.241 24.4234 724.241 24.9444C724.241 26.7068 727.444 29.8486 728.624 31.1053C731.505 33.9864 734.126 37.0668 737.528 39.3503C738.769 40.1319 741.068 41.7104 741.068 43.3502C741.068 44.6529 739.045 44.7909 738.126 44.7909L738.095 44.8216ZM717.344 5.94089H717.023C713.36 5.94089 712.961 13.6036 712.961 16.1477C712.961 18.8296 713.023 23.0901 716.701 23.0901C717.559 23.0901 718.402 22.8909 719.26 22.6916C724.425 21.3123 724.885 18.6917 724.885 13.8488C724.885 9.00602 721.743 6.64603 717.36 5.92574L717.344 5.94089Z" fill="white"/>
<path d="M796.117 5.46697H795.795C793.573 5.46697 793.496 17.3748 793.496 20.9763V24.3784C793.496 29.4818 793.634 38.2634 795.519 39.6273C796.5 40.3476 797.741 40.8686 797.741 42.2479C797.741 44.5467 791.458 43.9491 789.956 44.2096C788.837 44.4088 787.734 44.7306 786.615 44.7306C784.975 44.7306 783.795 44.0103 782.753 42.8303C782.554 42.5697 782.293 42.3092 782.293 41.9108C782.293 41.3897 783.872 40.608 784.255 40.2709C784.654 40.0103 784.975 39.612 785.297 39.2288C786.799 37.4664 787.06 35.0449 787.136 32.8074C787.274 29.8649 787.397 26.9224 787.596 23.9646C787.795 21.4819 788.056 18.9839 788.056 16.5012C788.056 15.7809 787.994 15.122 787.734 14.4783C787.535 13.8959 786.692 12.1181 785.972 12.1181C785.052 12.1181 784.27 14.3404 783.949 15.0607C781.849 20.6851 780.347 26.5853 777.788 32.0105C777.129 33.3897 776.608 34.8304 776.209 36.3323C775.55 39.0756 775.489 43.7958 771.627 43.7958H771.366C767.627 43.7345 767.244 41.6349 766.723 38.4319C766.462 37.1292 766.324 35.75 766.003 34.432C764.7 28.9915 762.6 23.7654 760.639 18.5854C760.317 17.7272 759.075 13.7427 758.079 13.7427C757.221 13.7427 757.037 16.6239 757.037 17.2063C756.838 19.5664 756.577 21.8498 756.577 24.2099C756.577 27.0298 756.976 29.8343 757.436 32.5928C757.834 35.2748 757.957 38.0335 759.397 40.3782C759.796 41.0372 760.317 41.6809 760.317 42.4778C760.317 44.4395 755.934 44.5007 754.156 44.5007C752.578 44.5007 745.451 44.1789 745.451 42.018C745.451 39.4586 751.152 40.1789 751.796 32.3936C751.934 31.1522 751.934 29.9109 751.934 28.5929V24.7309C751.934 21.8497 752.072 18.9074 752.332 16.0262C752.532 14.3251 752.792 12.624 752.792 10.8615C752.792 8.56272 752.271 7.98039 750.233 7.06087C748.853 6.40187 747.03 5.42091 747.03 3.65849C747.03 2.1566 748.669 1.81952 749.85 1.63562C751.811 1.37509 753.773 1.17578 755.735 1.17578C757.696 1.17578 759.734 1.57422 761.236 2.87688C762.815 4.17954 763.596 7.98028 764.179 10.0186C764.639 11.6584 765.16 13.2216 765.681 14.8614C766.539 17.2828 770.784 29.9109 773.205 29.9109C774.508 29.9109 775.627 25.8497 775.949 24.8076C777.389 20.8077 778.508 16.6851 779.872 12.7005C781.573 7.79638 784.056 1.31384 790.217 1.31384C791.795 1.31384 793.297 1.71232 794.86 1.71232C796.102 1.71232 797.282 1.45172 798.523 1.45172C799.642 1.45172 800.285 2.49376 800.285 3.47459C800.285 5.37494 797.604 5.43628 796.102 5.43628L796.117 5.46697Z" fill="white"/>
</svg>
