<?xml version="1.0" encoding="utf-8"?>
<!-- Generator: Adobe Illustrator 26.3.1, SVG Export Plug-In . SVG Version: 6.00 Build 0)  -->
<svg version="1.1" id="Layer_1" xmlns="http://www.w3.org/2000/svg" xmlns:xlink="http://www.w3.org/1999/xlink" x="0px" y="0px"
	 viewBox="0 0 1008 72" style="enable-background:new 0 0 1008 72;" xml:space="preserve">
<style type="text/css">
	.st0{fill:#231F20;}
</style>
<g>
	
		<image style="overflow:visible;" width="1008" height="78" xlink:href="C7C72C3F.png"  transform="matrix(1 0 0 1 0.2734 -2.4284)">
	</image>
	<g>
		<g>
			<path class="st0" d="M49.4,22.9c-0.5,0-0.9-0.2-1.4-0.4c-6.1-3.2-2.8-8.1-13.2-8.1c-6.5,0-7.8,6.4-7.8,11.7
				c0,2.9,0.4,7.8,4.2,7.8h0.3c4.1,0,5.3-1,6.8-4.8c0.4-1,1-2.6,2.3-2.6c1.8,0,2,3.1,2,5.3v2.2c0,3.1,0.6,6.1,0.6,9.2
				c0,0.8,0,3.8-1.2,3.8c-0.7,0-1.3-0.7-1.7-1.1c-2.5-2.8-1.7-7.3-6.7-7.3c-4.4,0-6.4,1.8-6.4,6.2c0,1.7-0.2,3.3-0.2,4.9
				c0,3.5,0.2,7.1,3.9,8.7c1.4,0.7,3.5,1.4,3.5,3.3c0,1-1,1.6-1.9,1.6c-1.8,0-3.7-0.6-5.6-0.6c-2.1,0-4.2,0.5-6.3,0.5
				c-1.7,0-3.5-0.1-5.2-0.1c-1.3,0-3.2-1.1-3.2-2.6c0-1,1-1.3,1.9-1.6c4-1.6,5.7-5.2,5.7-9.3c0-6.4-0.7-12.8-0.7-19.2
				c0-1.2,0.1-2.3,0.1-3.5c0-2.4-0.2-9.6-2-11.2c-1.5-1.5-6-1-6-2.9c0-0.4,0.3-0.8,0.6-1c1.6-2,5.3-2.5,7.7-2.5
				c1.5,0,2.8,0.2,4.3,0.4c3.5,0.5,7.2,0.8,10.7,0.8c2.8,0,5.5-0.2,8.3-0.2c6.4,0,8,4,8,9.8C50.9,20.9,50.8,22.9,49.4,22.9
				L49.4,22.9z"/>
			<path class="st0" d="M95.1,62c-2.4,0-4.8-0.3-7.1-0.3c-3.9,0-7.7,0.2-11.4,0.6c-5.2,0.4-10.3,0.4-15.5,0.4h-1
				c-1.4,0-6.5,0-6.5-1.5c0-0.7,0.4-1.2,0.7-1.7c2.2-2.9,6.8,1.3,7.6-6.5c0.4-4.4,0.5-8.9,0.5-13.5c0-4-0.2-7.8-0.3-11.8
				C62,25,62,16.8,59.6,15.3c-1.8-1-4.3-0.9-4.3-3.7c0-1.6,0.6-2.4,2.3-2.4c1,0,1.9,0.2,2.9,0.2c1.6,0,3.2-0.6,4.8-0.6
				c2.2,0,4.4,0.8,6.5,0.8c0.8,0,1.6-0.2,2.3-0.2c1.4,0,4.3,0.2,4.3,2.1c0,2.2-6.4,3.1-7.2,9.8c-0.6,4.3-0.6,8.6-0.6,12.9v3.5
				c0,3.2,0.1,6.3,0.3,9.4c0.7,8.9,0.7,10.6,10.3,10.6c4.5,0,9-0.4,11.2-5c0.7-1.5,1.8-5.8,3.7-5.8c1.9,0,2.5,7.2,2.5,8.7
				C98.5,57.7,98.1,62,95.1,62L95.1,62z"/>
			<path class="st0" d="M137.5,16.5c-1.1,0.8-2,1.8-2.8,2.9c-3.1,4.7-4.8,10.2-8.5,14.4c-3.2,3.7-5.1,7.4-5.1,12.4s1.9,9,5.7,12.5
				c0.3,0.2,0.8,0.6,0.8,1.1c0,2.3-8.1,3.5-9.9,3.5c-2.1,0-10.6-0.4-10.6-3.4c0-2.1,5.8-5.4,5.8-12.3s-3.5-12.3-6.2-18.2
				c-2.1-4.5-2.7-8.3-7.2-11.3c-2.3-1.5-6.4-3.4-6.4-6.6c0-1.9,2.9-1.9,4.2-1.9c2.8,0,5.6,0.3,8.4,0.3c0.7,0,1.4-0.1,2-0.1
				c1.6,0,5.7,0.5,5.7,2.7c0,1.4-2.7,4.9-2.7,8.3c0,3.4,3.4,12,7.2,12c1.6,0,2.8-1.2,3.8-2.3c2.3-2.6,6.6-8.1,6.6-11.7
				c0-3.2-4.8-5.1-4.8-7.1c0-2.2,4.2-2.3,5.7-2.3c1.4,0,2.7,0.2,4.1,0.2c0.8,0.1,1.7,0.1,2.5,0.1h2.1c1.6,0,4.8,0,4.8,2.3
				C142.9,14.6,139.2,15.4,137.5,16.5L137.5,16.5z"/>
			<path class="st0" d="M168.9,62.4c-3.1,0-6.1-1.2-9.1-1.2c-0.9,0-1.7,0.2-2.7,0.5c-2,0.7-3.6,1.1-5.9,1.1c-1.8,0-5.1-0.3-5.1-2.8
				c0-3.5,8.6-0.7,9.8-9.8c0.2-1.2,0.2-2.5,0.2-4.1c0-2.8-0.2-5.6-0.2-8.5c0-5.1,0.5-10.3,0.5-15.6c0-2.3,0-5.7-2.7-6.5
				c-1.4-0.4-5.2-0.7-5.2-2.7c0-2.7,7.5-3.3,9.5-3.3c1.5,0,3.1,0.3,4.6,0.3c1.8,0,3.6-0.2,5.5-0.2c1.9,0,4.6,0.2,4.6,2.8
				c0,3.6-4.8,1.2-6.9,4c-1.5,2.3-1.6,6-1.6,8.6c0,5.4,0.4,10.8,0.4,17.1c0,3.4,0.1,10.8,1.5,12.7c0.7,1,2.8,3.4,4.1,3.4
				c0.4,0,0.7-0.2,1.1-0.2c0.9,0,1.4,1.1,1.4,1.9C172.8,61.9,170.4,62.4,168.9,62.4L168.9,62.4z"/>
			<path class="st0" d="M227.6,20.2c0,8.4,0.2,16.8,0.2,25.2c0,3,0,17.6-4,17.6c-0.2,0-0.5-0.1-0.7-0.2c-2.4-1-9.8-12.9-11.7-15.8
				c-2.7-4-5.8-7.6-8.6-11.5c-1.3-1.9-5.3-8.7-7.7-8.7c-2.5,0-3.1,2.4-3.1,4.6c0,3.6,0,20.1,0.9,22c2.1,4.3,6.9,4,6.9,6.4
				c0,2.9-6.1,2.9-8,2.9c-1.3,0-2.5-0.1-3.8-0.2c-2.3-0.1-8.2,0.1-8.2-3.3c0-3.6,6.5-0.9,6.5-5.9l0.1-16.6c0-4.7,0.3-9.3,0.3-14
				c0-1.7,0-5.4-1-6.6c-1.6-1.8-6.9-1.4-6.9-3.5c0-2.7,4.8-2.8,6.6-2.8c1.5,0,3,0.1,4.4,0.3c5.9,0.8,8,3.8,11.2,8.3
				c2.8,3.9,14.1,22.1,18.3,22.1c2.2,0,2.3-5.1,2.3-7.7v-1.2c0-2.2,0.2-4.4,0.2-6.7c0-3.3-0.7-7.6-3.7-9.5c-1.2-0.7-3.5-1-3.5-2.8
				c0-3.3,6.9-3.9,9.3-3.9s10.7,0.9,10.7,4.2C234.7,15.1,227.6,14.4,227.6,20.2L227.6,20.2z"/>
			<path class="st0" d="M284.3,47.5c0,2.5,0.7,4.9,0.7,7.4c0,2.2-0.2,3.2-2.1,4.6c-2.9,2.1-13.6,3.4-17.4,3.4c-4,0-8.1-0.6-11.9-2.2
				c-13.4-5.9-18.8-12.7-18.8-27.7c0-11.7,10.4-21.2,21.4-23.1c3.7-0.7,7.5-0.9,11.2-0.9c8.1,0,18.7,2.3,18.7,12.4
				c0,1.5-0.1,6-2.2,6c-3.7,0-5-12.6-18.8-12.6c-9.7,0-17.7,7-19,16.7c-0.3,2.5-0.4,5.2-0.4,7.7c0,4.4,0.6,6.6,3.5,10
				c1.2,1.4,2.3,2.8,3.5,4.1c2.9,2.8,6.9,3.5,10.8,4c0.9,0.1,1.9,0.2,2.7,0.2c5.2,0,8.3-2.8,8.3-8.1c0-8.9-7.6-5.6-7.6-10
				c0-2.8,4-2.8,6-2.8c2.8,0,5.6,0.4,8.5,0.4c2.3,0,4.8,0,5.8,2.3c0.1,0.2,0.1,0.4,0.1,0.6C287.4,44,284.3,44.4,284.3,47.5
				L284.3,47.5z"/>
			<path class="st0" d="M349,60.2c-2.2,1.5-4.5,1.7-7.1,1.7c-2.1,0-4.3-0.2-6.4-0.2c-4.9,0-9.8,1-14.7,1c-2.8,0-7.2-0.2-9.7-1.8
				c-0.3-0.3-0.8-0.7-0.8-1.1c0-1.4,6.1-3.2,7.2-3.9c3.2-2.1,3.4-11.6,3.4-17.1v-2.4c0-2.5,0.1-5.1,0.1-7.7c0-3.8,0-10.9-3.8-13.1
				c-1.2-0.7-6-2-6-3.6c0-2.4,6.3-2.8,8-2.8s2.9,0.2,4.4,0.8c0.9,0.3,1.2,0.5,2.2,0.5c1.4,0,2.8-0.3,4.2-0.5c2-0.2,4-0.4,6-0.4
				c11.8,0,23.9,7.7,25.8,19.9c0.3,2.3,0.4,4.6,0.4,6.9C362.4,46.5,357.2,54.7,349,60.2L349,60.2z M333.9,15.9c-4.5,0-5,2.3-5,6.2
				v5.7c0,5.6-0.9,11.2-0.9,16.8c0,4.4,0.2,12.2,6.4,12.2c1.2,0,2.4-0.2,3.6-0.6c2.6-0.6,5.2-1.3,7.5-2.7c6.1-3.8,6.5-11.7,6.5-18.1
				C352.1,24.2,345.8,15.9,333.9,15.9L333.9,15.9z"/>
			<path class="st0" d="M417.4,48.9c-3.1,6.7-9.3,10.5-16,12.7c-2.5,0.8-5.2,1.5-7.8,1.5c-7.4,0-14.8-3.8-19.7-9.3
				c-4-4.6-6.3-9.7-6.3-15.9c0-11.2,3.7-21,14.8-25.2c4.1-1.5,8.5-3.2,12.9-3.2c8.9,0,14.2,4,19.6,10.8c3.5,4.5,5.3,9.8,5.3,15.6
				C420.3,40.3,419.2,45,417.4,48.9L417.4,48.9z M394.5,16.8c-11.1,0-16.1,7.2-16.1,17.7c0,10.5,3.8,21.5,16,21.5
				c11.1,0,16-7.2,16-17.7C410.5,28.3,406.2,16.8,394.5,16.8L394.5,16.8z"/>
			<path class="st0" d="M475.2,47.3c0,2.5,0.7,4.9,0.7,7.4c0,2.2-0.2,3.2-2.1,4.6c-2.9,2.1-13.6,3.4-17.4,3.4c-4,0-8.1-0.6-11.9-2.2
				c-13.4-5.9-18.8-12.7-18.8-27.7c0-11.7,10.4-21.2,21.4-23.1c3.7-0.7,7.5-0.9,11.2-0.9c8.1,0,18.7,2.3,18.7,12.4
				c0,1.5-0.1,6-2.2,6c-3.7,0-5-12.6-18.8-12.6c-9.7,0-17.7,7-19,16.7c-0.3,2.5-0.4,5.2-0.4,7.7c0,4.4,0.6,6.6,3.5,10
				c1.2,1.4,2.3,2.8,3.5,4.1c2.9,2.8,6.9,3.5,10.8,4c0.9,0.1,1.9,0.2,2.7,0.2c5.2,0,8.3-2.8,8.3-8.1c0-8.9-7.6-5.6-7.6-10
				c0-2.8,4-2.8,6-2.8c2.8,0,5.6,0.4,8.5,0.4c2.3,0,4.8,0,5.8,2.3c0.1,0.2,0.1,0.4,0.1,0.6C478.3,43.7,475.2,44.2,475.2,47.3
				L475.2,47.3z"/>
			<path class="st0" d="M531.7,17.4c-2.2,2.3-2.3,6.9-2.3,9.9c0,3.4,0.4,6.8,0.4,10.2c0,2.7-0.1,5.6-0.1,8.6c0,2.6,0,7.8,2.2,9.4
				c1.7,1.3,5.1,2.3,5.1,4.8c0,1.5-4,1.6-6.9,1.6h-2.6c-2.2,0-4.4,0.3-6.5,0.3c-1.8,0-4.5-0.2-4.5-2.5c0-3.6,6.3-2.6,6.3-9.1
				c0-2-0.2-4-0.3-6c-0.3-3-0.6-6.1-4.1-6.8c-1.2-0.2-2.5-0.2-3.7-0.2h-2.1c-3,0-12.3,0.1-13.8,1.3c-1.7,1.5-2.1,2.7-2.1,4.8
				c0,1.6-0.4,3.2-0.4,4.8c0,8.7,9,7.3,9,10.6v0.3c-0.3,1.9-2.6,1.9-4.2,1.9c-1.8,0-3.5-0.1-5.2-0.1h-1.8c-2.7,0-5.3,1.2-8.1,1.2
				c-1.6,0-4.4-1.3-4.4-3.2c0-2.6,6.4-3.3,7.2-7.7c0.3-1.8,0.4-3.5,0.4-5.3v-0.5c0-2.4-0.2-4.9-0.2-7.4c0-4.6,0.2-9.1,0.2-13.9
				c0-2-0.1-8.1-2.1-8.7c-1.5-0.5-4.4-0.6-4.4-2.8s3.6-3.7,5.6-3.7c2.1,0,4,1,6.1,1c1.9,0,3.8-0.3,5.7-0.3c1.5,0,4,0.4,4,2.3
				c0,4.4-7.7,1.4-7.7,9.5c0,11.6,3.8,11.9,14.1,11.9c5.1,0,12-0.1,12.1-6.9v-1.9c0-10.6-7.2-9.2-7.2-12.7c0-2.2,5.8-2.2,7.3-2.2
				c1.4,0,2.7,0.1,4.1,0.2c1.9,0.1,3.8,0.1,5.7,0.1h2.1c1.1,0,3.5,0.1,3.5,1.7C538.1,13.9,533.1,16.1,531.7,17.4L531.7,17.4z"/>
			<path class="st0" d="M581.4,61.2c-2.7,0.6-5.5,0.6-8.4,0.6c-4.2,0-8.4-0.1-12.6-0.1c-1.6,0-3.3,0-4.9,0.2
				c-1.9,0.2-3.9,0.6-5.9,0.6c-2.8,0-5.6-0.5-7.1-3.3c-0.2-0.2-0.2-0.5-0.2-0.8c0-0.8,3.2-1.5,3.9-1.9c0.8-0.5,1.5-1.1,2.2-1.9
				c2.9-3.6,3.1-10.5,3.1-15v-2.6c0-6.1-0.1-18.5-0.8-19.9c-0.4-0.8-0.7-1-1.5-1.5c-1.5-0.7-5.6-1.8-5.6-3.8c0-0.2,0.1-0.6,0.2-0.8
				c1-1.9,10-1.9,12.2-1.9c3,0,5.9,0.2,8.9,0.4c2.2,0.2,4.4,0.3,6.5,0.3c6.9,0,12.9,0.1,12.9,8.7c0,1.5-0.4,4.4-2.3,4.4
				c-0.7,0-1.5-0.5-1.9-1c-4.6-4-3.8-7.4-11.1-8.1c-0.8-0.1-1.6-0.1-2.5-0.1c-4.4,0-6.1,0.9-6.5,5.5c-0.2,1.7-0.2,3.5-0.2,5.2
				c0,3.1,0.2,9.5,4.5,9.5c0.2,0,0.4,0,0.7-0.1c3.3-0.5,5.5-2.2,6.4-5.5c0.2-0.7,0.3-1.5,0.7-2.3c0.2-0.5,0.5-1.1,1.1-1.1
				c1.5,0,1.8,3.7,2,4.8c0.4,3.7,1.4,7.3,1.4,11.1c0,1.3-0.5,4.8-2.3,4.8c-1.5,0-3.6-5.6-5-6.8c-1.1-1-2.8-1.3-4.4-1.3
				c-2.8,0-4.4,1.1-4.9,4c-0.4,2.7-0.9,5.6-0.9,8.4c0,3.8,1.2,6.1,5.1,7c2.8,0.7,5.8,1.1,8.8,1.1c3.6,0,6.5-0.7,7.8-4.5
				c0.7-1.9,2.1-6.9,4.6-6.9c1.4,0,1.4,5.6,1.4,6.5C586.6,57.3,585.6,60.4,581.4,61.2L581.4,61.2z"/>
			<path class="st0" d="M635.2,62.3c-2.3,0-4.5-1.3-6.9-1.3c-0.9,0-1.9,0.1-2.8,0.1c-1.8,0-3.8-1.1-3.8-3.2c0-2.3,2.5-2.5,4.2-3.1
				c1.3-0.5,1.6-0.9,1.6-2.3c0-2.3-1.1-5.2-2.1-7.3c-0.9-2-3.2-2.6-5.3-2.6c-1,0-2.2,0.2-3.3,0.2c-1,0-2.1-0.1-3.2-0.1
				c-1.4,0-2.2,0.2-3.3,1c-1.8,1.5-4.8,4.9-4.8,7.3c0,3,4.7,5.9,4.7,8.5c0,2.3-8.3,2.5-10,2.5c-2.2,0-8.9-0.2-8.9-3.3
				c0-4.4,7-3.8,9.6-9.4c2-4.4,2.4-9.4,4.1-14c1-2.7,2-5.5,2.9-8.2c1.3-3.7,4-13.5,6.7-15.8c1.4-1.2,3.5-2.3,5.4-2.3
				c2.2,0,3.2,1.2,4,3.1c1.3,3.1,2,6.4,3,9.6c1.6,5.4,3.3,10.7,4.8,16c1.7,5.9,2.6,12.6,7.7,16.6c1.1,0.9,4.4,2.9,4.4,4.4
				C643.8,61,636.7,62.3,635.2,62.3L635.2,62.3z M615.8,26.1c-1.9,0-4.9,5.6-4.9,7.3c0,2.5,2.8,5.2,5.4,5.2c2.4,0,4.8-1.5,4.8-4.1
				C621.1,32.2,618.7,26.1,615.8,26.1L615.8,26.1z"/>
			<path class="st0" d="M695.4,62.8c-0.3,0-0.6,0-0.8-0.1c-6.6-0.4-9.1-2.2-12.9-7.4c-2.1-2.8-8.3-12.6-11.1-13.6
				c-0.7-0.2-1.3-0.4-2-0.4c-3.4,0-3.5,4.8-3.5,7.2v2.4c0,2.9,0.3,5.4,3.8,6.4c1.3,0.3,3.5,0.7,3.5,2.5c0,1.9-4.7,2.6-6.1,2.6
				c-1.5,0-2.8-0.2-4.3-0.2c-2.1,0-4.3,0.2-6.4,0.2c-1.8,0-6.4,0-6.4-2.5c0-2.8,6.6-0.4,8-8.6c0.6-3.2,0.9-6.6,0.9-10
				c0-1.9-0.1-3.7-0.2-5.6c-0.1-2.6-0.1-5.2-0.1-7.7v-2.9c0-3.3-0.1-8-3.2-10c-1-0.7-4.2-1.9-4.2-3.3c0-2.5,8.1-2.6,10.6-2.6h2.9
				c10.3,0,25.9,0.5,25.9,13.8c0,5.2-2.9,9.5-7.2,12.3c-1.1,0.7-2.3,1.1-3.4,1.8c-0.5,0.3-0.8,0.6-0.8,1.2c0,2.2,4,6.1,5.4,7.6
				c3.5,3.5,6.8,7.3,11,10.2c1.5,1,4.4,2.9,4.4,4.9C699,62.6,696.5,62.8,695.4,62.8L695.4,62.8z M669.8,14.9h-0.4
				c-4.5,0-5,9.4-5,12.6c0,3.3,0.1,8.6,4.6,8.6c1,0,2.1-0.2,3.2-0.5c6.4-1.7,6.9-4.9,6.9-10.9C679.1,18.7,675.2,15.8,669.8,14.9
				L669.8,14.9z"/>
			<path class="st0" d="M747.6,27.1c-1.5,0-4.6-4.3-5.2-5.6c-0.4-0.7-0.7-1.3-0.8-2c-0.7-2.3-1.2-3.5-4-3.5c-0.5,0-1,0-1.5,0.1
				c-5.1,0.6-9,1.2-10.2,6.9c-0.5,2.5-0.5,5.1-0.5,7.6c0,5.5,0.2,11,0.5,16.5c0.2,3.4,1,7.7,4,9.7c1.7,1.2,3.3,1.9,3.3,4.3
				c0,1.5-1.2,1.5-2.3,1.5c-2.9,0-5.7-0.6-8.6-0.6c-3.2,0-6.3,0.9-9.4,0.9c-1.2,0-3.6-0.1-3.6-1.8c0-5.3,8.4-2.6,8.4-15.2
				c0-6.5,0.4-13.1,0.4-19.8c0-1.9,0-4.8-0.7-6.4c-1.5-2.9-5.4-3.6-8.3-3.6c-1,0-1.9,0.1-2.8,0.2c-3.4,0.7-4.2,2.2-5.6,5.1
				c-0.7,1.5-2.4,7.2-4.4,7.2c-1.8,0-2-6.9-2-8.3c0-1.6,0.2-3.2,0.4-4.8c0.6-3.1,0.5-5.9,4.4-5.9s7.7,1,11.5,1
				c3.2,0,6.4-0.7,9.8-0.7c3,0,6,0.9,8.9,0.9c3.2,0,6.3-0.4,9.4-0.7c2-0.3,4-0.6,6.1-0.6c4,0,4.4,2.6,4.4,5.5v2
				c0,1.3,0.1,2.6,0.1,3.8C749.4,22.2,749.2,27.1,747.6,27.1L747.6,27.1z"/>
			<path class="st0" d="M813.5,22.7c-0.5,0-0.9-0.2-1.4-0.4c-6.1-3.2-2.8-8.1-13.2-8.1c-6.5,0-7.8,6.4-7.8,11.7
				c0,2.9,0.4,7.8,4.2,7.8h0.3c4.1,0,5.3-1,6.8-4.8c0.4-1,1-2.6,2.3-2.6c1.8,0,2,3.1,2,5.3v2.2c0,3.1,0.6,6.1,0.6,9.2
				c0,0.8,0,3.8-1.2,3.8c-0.7,0-1.3-0.7-1.7-1.1c-2.5-2.8-1.7-7.3-6.7-7.3c-4.4,0-6.4,1.8-6.4,6.2c0,1.7-0.2,3.3-0.2,4.9
				c0,3.5,0.2,7.1,3.9,8.7c1.4,0.7,3.5,1.4,3.5,3.3c0,1-1,1.6-1.9,1.6c-1.9,0-3.7-0.6-5.6-0.6c-2.1,0-4.2,0.5-6.3,0.5
				c-1.7,0-3.5-0.1-5.2-0.1c-1.3,0-3.2-1.1-3.2-2.6c0-1,1-1.3,1.8-1.6c4-1.6,5.7-5.2,5.7-9.3c0-6.4-0.7-12.8-0.7-19.2
				c0-1.2,0.1-2.3,0.1-3.5c0-2.4-0.2-9.6-2-11.2c-1.5-1.5-6-1-6-2.9c0-0.4,0.3-0.8,0.6-1c1.6-2,5.3-2.5,7.7-2.5
				c1.5,0,2.8,0.2,4.3,0.4c3.5,0.5,7.2,0.8,10.7,0.8c2.8,0,5.5-0.2,8.3-0.2c6.4,0,8,4,8,9.8C815,20.7,814.9,22.7,813.5,22.7
				L813.5,22.7z"/>
			<path class="st0" d="M860,62.3c-2.3,0-4.5-1.3-6.9-1.3c-0.9,0-1.9,0.1-2.8,0.1c-1.8,0-3.8-1.1-3.8-3.2c0-2.3,2.5-2.5,4.2-3.1
				c1.3-0.5,1.6-0.9,1.6-2.3c0-2.3-1.1-5.2-2.1-7.3c-0.9-2-3.2-2.6-5.3-2.6c-1,0-2.2,0.2-3.3,0.2c-1,0-2.1-0.1-3.2-0.1
				c-1.4,0-2.2,0.2-3.3,1c-1.9,1.5-4.8,4.9-4.8,7.3c0,3,4.7,5.9,4.7,8.5c0,2.3-8.3,2.5-10,2.5c-2.2,0-8.9-0.2-8.9-3.3
				c0-4.4,7-3.8,9.6-9.4c2-4.4,2.4-9.4,4.1-14c1-2.7,2-5.5,2.9-8.2c1.3-3.7,4-13.5,6.7-15.8c1.4-1.2,3.5-2.3,5.4-2.3
				c2.2,0,3.2,1.2,4,3.1c1.3,3.1,2,6.4,3,9.6c1.6,5.4,3.3,10.7,4.8,16c1.7,5.9,2.6,12.6,7.7,16.6c1.1,0.9,4.4,2.9,4.4,4.4
				C868.6,61,861.5,62.3,860,62.3L860,62.3z M840.7,26.1c-1.8,0-4.9,5.6-4.9,7.3c0,2.5,2.8,5.2,5.4,5.2c2.4,0,4.8-1.5,4.8-4.1
				C845.9,32.2,843.5,26.1,840.7,26.1L840.7,26.1z"/>
			<path class="st0" d="M920.2,62.8c-0.3,0-0.6,0-0.8-0.1c-6.6-0.4-9.1-2.2-12.9-7.4c-2.1-2.8-8.3-12.6-11.1-13.6
				c-0.7-0.2-1.3-0.4-2-0.4c-3.4,0-3.5,4.8-3.5,7.2v2.4c0,2.9,0.3,5.4,3.8,6.4c1.3,0.3,3.5,0.7,3.5,2.5c0,1.9-4.7,2.6-6.1,2.6
				s-2.8-0.2-4.3-0.2c-2.1,0-4.3,0.2-6.4,0.2c-1.8,0-6.4,0-6.4-2.5c0-2.8,6.6-0.4,8-8.6c0.6-3.2,0.9-6.6,0.9-10
				c0-1.8-0.1-3.7-0.2-5.6c-0.1-2.6-0.1-5.2-0.1-7.7v-2.9c0-3.3-0.1-8-3.2-10c-1-0.7-4.2-1.9-4.2-3.3c0-2.5,8.1-2.6,10.6-2.6h2.9
				c10.3,0,25.9,0.5,25.9,13.8c0,5.2-2.9,9.5-7.2,12.3c-1.1,0.7-2.3,1.1-3.4,1.9c-0.5,0.3-0.8,0.6-0.8,1.2c0,2.2,4,6.1,5.4,7.6
				c3.5,3.5,6.8,7.3,11,10.2c1.5,1,4.4,2.9,4.4,4.9C923.8,62.6,921.3,62.8,920.2,62.8L920.2,62.8z M894.6,14.9h-0.4
				c-4.5,0-5,9.4-5,12.6c0,3.3,0.1,8.6,4.6,8.6c1,0,2.1-0.2,3.2-0.5c6.4-1.7,6.9-4.9,6.9-10.9C903.9,18.7,900,15.8,894.6,14.9
				L894.6,14.9z"/>
			<path class="st0" d="M991.7,14.3h-0.4c-2.7,0-2.8,14.7-2.8,19.1v4.2c0,6.3,0.2,17.1,2.5,18.8c1.2,0.9,2.7,1.5,2.7,3.2
				c0,2.8-7.7,2.1-9.6,2.4c-1.4,0.2-2.7,0.7-4.1,0.7c-2,0-3.5-0.9-4.8-2.3c-0.2-0.3-0.6-0.7-0.6-1.1c0-0.7,1.9-1.6,2.4-2
				c0.5-0.3,0.9-0.8,1.3-1.3c1.9-2.2,2.2-5.2,2.3-7.9c0.2-3.6,0.3-7.2,0.6-10.9c0.2-3.1,0.6-6.1,0.6-9.2c0-0.9-0.1-1.7-0.4-2.5
				c-0.2-0.7-1.3-2.9-2.2-2.9c-1.1,0-2.1,2.7-2.5,3.6c-2.6,6.9-4.4,14.2-7.6,20.9c-0.8,1.7-1.5,3.5-1.9,5.3
				c-0.8,3.4-0.9,9.2-5.6,9.2h-0.3c-4.6-0.1-5.1-2.7-5.7-6.6c-0.3-1.6-0.5-3.3-0.9-4.9c-1.6-6.7-4.2-13.1-6.6-19.5
				c-0.4-1-1.9-6-3.1-6c-1,0-1.3,3.5-1.3,4.3c-0.2,2.9-0.6,5.7-0.6,8.6c0,3.5,0.5,6.9,1,10.3c0.5,3.3,0.7,6.7,2.4,9.6
				c0.5,0.8,1.1,1.6,1.1,2.6c0,2.4-5.4,2.5-7.6,2.5c-1.9,0-10.7-0.4-10.7-3.1c0-3.2,7-2.3,7.8-11.9c0.2-1.5,0.2-3.1,0.2-4.7v-4.8
				c0-3.5,0.2-7.2,0.5-10.7c0.2-2.1,0.6-4.2,0.6-6.4c0-2.8-0.7-3.5-3.2-4.7c-1.7-0.8-4-2-4-4.2c0-1.9,2-2.3,3.5-2.5
				c2.4-0.3,4.8-0.6,7.2-0.6c2.4,0,4.9,0.5,6.8,2.1c1.9,1.6,2.9,6.3,3.6,8.8c0.6,2,1.2,4,1.8,6c1,3,6.3,18.5,9.3,18.5
				c1.6,0,3-5,3.4-6.3c1.8-4.9,3.2-10,4.8-14.9c2.1-6.1,5.2-14,12.7-14c1.9,0,3.8,0.5,5.7,0.5c1.5,0,3-0.3,4.5-0.3
				c1.4,0,2.2,1.3,2.2,2.5c0,2.3-3.3,2.4-5.2,2.4L991.7,14.3z"/>
		</g>
	</g>
</g>
</svg>
