<svg width="986" height="56" viewBox="0 0 986 56" fill="none" xmlns="http://www.w3.org/2000/svg">
<path d="M38.5282 14.6655C38.0493 14.6655 37.6358 14.4261 37.157 14.252C31.1064 11.0308 34.3276 6.11198 23.924 6.11198C17.3945 6.11198 16.1104 12.4891 16.1104 17.7997C16.1104 20.6944 16.5239 25.6132 20.311 25.6132H20.6375C24.751 25.6132 25.9699 24.6556 27.4063 20.7814C27.8199 19.8238 28.4511 18.1914 29.7352 18.1914C31.5199 18.1914 31.7593 21.2603 31.7593 23.5238V25.7003C31.7593 28.7692 32.3252 31.838 32.3252 34.8851C32.3252 35.6904 32.3252 38.6721 31.1064 38.6721C30.4534 38.6721 29.8222 38.0192 29.4087 37.5404C26.9058 34.711 27.7111 30.2056 22.7051 30.2056C18.3522 30.2056 16.3281 31.9685 16.3281 36.4086C16.3281 38.1062 16.1757 39.7168 16.1757 41.3274C16.1757 44.8751 16.4151 48.4228 20.0498 50.0334C21.421 50.6863 23.5104 51.4046 23.5104 53.3417C23.5104 54.3864 22.5528 54.9522 21.5734 54.9522C19.7234 54.9522 17.8734 54.3863 16.0016 54.3863C13.9122 54.3863 11.801 54.8652 9.71155 54.8652C8.01389 54.8652 6.25094 54.7781 4.55329 54.7781C3.26916 54.7781 1.39739 53.6463 1.39739 52.1881C1.39739 51.2304 2.4421 50.904 3.2474 50.5775C7.2086 48.9669 8.97154 45.4192 8.97154 41.3057C8.97154 34.8633 8.3186 28.4862 8.3186 22.1091C8.3186 20.8903 8.40566 19.7803 8.40566 18.5615C8.40566 16.1456 8.16625 8.96319 6.38153 7.35259C4.92329 5.89435 0.417969 6.30784 0.417969 4.45783C0.417969 4.0443 0.744446 3.65258 0.983859 3.41316C2.59446 1.38904 6.31623 0.910156 8.73213 0.910156C10.1904 0.910156 11.5616 1.06252 12.998 1.32369C16.5457 1.80252 20.1804 2.12898 23.7281 2.12898C26.5575 2.12898 29.2128 1.97668 32.0423 1.97668C38.4846 1.97668 40.0299 6.00313 40.0299 11.7273C40.0299 12.6849 39.9429 14.622 38.5064 14.622L38.5282 14.6655Z" fill="#231F20"/>
<path d="M84.2555 53.799C81.8396 53.799 79.489 53.4725 77.1602 53.4725C73.286 53.4725 69.499 53.7119 65.7119 54.0384C60.5536 54.4519 55.3954 54.4519 50.2371 54.4519H49.2794C47.9083 54.4519 42.75 54.452 42.75 52.9937C42.75 52.3408 43.1635 51.7749 43.4682 51.2961C45.6447 48.4013 50.2371 52.5802 51.0424 44.7666C51.4559 40.3266 51.5212 35.8213 51.5212 31.2942C51.5212 27.333 51.3689 23.4806 51.1948 19.5194C51.1077 16.777 51.1077 8.54989 48.6918 7.02635C46.9071 5.98164 44.4259 6.13403 44.4259 3.32637C44.4259 1.71578 44.9918 0.910443 46.6894 0.910443C47.6471 0.910443 48.6265 1.14989 49.5842 1.14989C51.1947 1.14989 52.7401 0.583984 54.3507 0.583984C56.5271 0.583984 58.7036 1.38927 60.8801 1.38927C61.6854 1.38927 62.4907 1.23697 63.2089 1.23697C64.5801 1.23697 67.4748 1.47636 67.4748 3.32637C67.4748 5.50285 61.0325 6.39524 60.2272 13.077C59.6613 17.3429 59.6613 21.6959 59.6613 25.9836V29.4442C59.6613 32.6001 59.7483 35.7342 59.9877 38.803C60.706 47.683 60.6407 49.359 70.239 49.359C74.7443 49.359 79.2714 48.9454 81.4479 44.3531C82.1008 42.8948 83.2326 38.5418 85.1479 38.5418C87.0632 38.5418 87.6508 45.7895 87.6508 47.2478C87.6508 49.5113 87.2373 53.7772 84.2555 53.7772V53.799Z" fill="#231F20"/>
<path d="M126.677 8.22309C125.545 9.02839 124.653 10.0078 123.848 11.1178C120.779 15.7972 119.081 21.282 115.381 25.5479C112.16 29.2479 110.31 32.9697 110.31 37.9756C110.31 42.9815 112.16 47.008 116.034 50.4686C116.36 50.708 116.839 51.0345 116.839 51.6004C116.839 53.9292 108.765 55.148 106.915 55.148C104.825 55.148 96.2716 54.7345 96.2716 51.7527C96.2716 49.6633 102.083 46.355 102.083 39.4991C102.083 32.6432 98.6222 27.2455 95.8798 21.282C93.7904 16.7767 93.2245 12.9678 88.6974 9.98604C86.4338 8.4625 82.3203 6.59071 82.3203 3.36951C82.3203 1.5195 85.215 1.51949 86.5209 1.51949C89.3503 1.51949 92.0927 1.84602 94.9004 1.84602C95.6186 1.84602 96.2716 1.75894 96.9245 1.75894C98.5351 1.75894 102.649 2.23777 102.649 4.41425C102.649 5.78543 99.9933 9.33311 99.9933 12.7284C99.9933 16.1237 103.389 24.7426 107.241 24.7426C108.852 24.7426 110.07 23.5237 111.028 22.4137C113.357 19.8237 117.645 14.339 117.645 10.726C117.645 7.50484 112.878 5.65481 112.878 3.63068C112.878 1.4542 117.079 1.36719 118.602 1.36719C119.973 1.36719 121.345 1.51951 122.716 1.60657C123.521 1.69363 124.413 1.69365 125.219 1.69365H127.308C128.919 1.69365 132.075 1.69367 132.075 3.95721C132.075 6.3731 128.288 7.17838 126.677 8.22309V8.22309Z" fill="#231F20"/>
<path d="M158.015 54.1903C154.947 54.1903 151.965 52.9715 148.896 52.9715C148.004 52.9715 147.198 53.1238 146.241 53.4503C144.217 54.1032 142.606 54.5821 140.364 54.5821C138.514 54.5821 135.293 54.2556 135.293 51.7527C135.293 48.205 143.847 51.0344 145.044 42.002C145.196 40.7832 145.196 39.4991 145.196 37.8885C145.196 35.059 145.044 32.2514 145.044 29.4219C145.044 24.3507 145.522 19.1707 145.522 13.8601C145.522 11.5313 145.522 8.13594 142.867 7.33065C141.496 6.91711 137.709 6.61239 137.709 4.58826C137.709 1.93295 145.218 1.28003 147.22 1.28003C148.744 1.28003 150.289 1.60649 151.812 1.60649C153.575 1.60649 155.447 1.36711 157.297 1.36711C159.147 1.36711 161.89 1.60649 161.89 4.19651C161.89 7.83123 157.058 5.41535 155.034 8.22301C153.51 10.4866 153.423 14.1866 153.423 16.7766C153.423 22.1742 153.837 27.5937 153.837 33.8838C153.837 37.2791 153.924 44.7008 155.36 46.6161C156.078 47.6608 158.19 50.0114 159.474 50.0114C159.887 50.0114 160.192 49.772 160.605 49.772C161.498 49.772 161.977 50.9038 161.977 51.6221C161.977 53.6462 159.561 54.2121 158.015 54.2121V54.1903Z" fill="#231F20"/>
<path d="M216.693 11.9233C216.693 20.3027 216.845 28.704 216.845 37.1705C216.845 40.1523 216.845 54.7565 212.884 54.7565C212.645 54.7565 212.405 54.6694 212.166 54.6041C209.75 53.6465 202.415 41.6976 200.478 38.8028C197.736 34.8416 194.667 31.2287 191.859 27.2675C190.575 25.3304 186.527 18.5616 184.198 18.5616C181.695 18.5616 181.129 20.9774 181.129 23.1539C181.129 26.7886 181.129 43.2429 182.022 45.18C184.111 49.4459 188.878 49.2064 188.878 51.6223C188.878 54.5171 182.827 54.517 180.89 54.517C179.606 54.517 178.387 54.43 177.103 54.3647C174.839 54.2776 168.876 54.4517 168.876 51.0564C168.876 47.4217 175.405 50.1641 175.405 45.18L175.492 28.5734C175.492 23.894 175.819 19.3016 175.819 14.5351C175.819 12.8374 175.819 9.13738 174.774 7.91855C173.163 6.1556 167.918 6.54742 167.918 4.37094C167.918 1.71563 172.684 1.54147 174.534 1.54147C175.993 1.54147 177.516 1.62852 178.975 1.86793C184.851 2.67323 186.962 5.65503 190.183 10.1821C193.013 14.0562 204.287 32.2734 208.488 32.2734C210.664 32.2734 210.816 27.2022 210.816 24.5251V23.3063C210.816 21.1298 211.056 18.8663 211.056 16.6028C211.056 13.2945 210.403 9.02861 207.356 7.09154C206.137 6.3733 203.808 6.04679 203.808 4.26207C203.808 0.953822 210.664 0.387939 213.08 0.387939C215.496 0.387939 223.81 1.28028 223.81 4.58853C223.81 6.85207 216.715 6.19912 216.715 11.9233H216.693Z" fill="#231F20"/>
<path d="M273.416 39.2815C273.416 41.7845 274.134 44.2004 274.134 46.7033C274.134 48.8798 273.895 49.9246 272.045 51.2957C269.15 53.3852 258.42 54.6911 254.633 54.6911C250.607 54.6911 246.493 54.1252 242.771 52.5146C229.386 46.6381 223.988 39.7821 223.988 24.8514C223.988 13.1637 234.392 3.65257 245.361 1.78079C249.061 1.12785 252.87 0.888428 256.57 0.888428C264.71 0.888428 275.288 3.21724 275.288 13.3161C275.288 14.7744 275.201 19.2797 273.111 19.2797C269.411 19.2797 268.106 6.6996 254.328 6.6996C244.643 6.6996 236.59 13.7079 235.306 23.3932C234.98 25.8962 234.892 28.5515 234.892 31.1415C234.892 35.4945 235.458 37.758 238.353 41.1315C239.572 42.5027 240.617 43.961 241.901 45.2451C244.795 48.0746 248.844 48.7057 252.718 49.2063C253.61 49.2933 254.568 49.4457 255.46 49.4457C260.618 49.4457 263.774 46.6163 263.774 41.371C263.774 32.4257 256.2 35.7339 256.2 31.3809C256.2 28.5515 260.161 28.5515 262.164 28.5515C264.993 28.5515 267.801 28.965 270.63 28.965C272.894 28.965 275.397 28.965 276.442 31.2939C276.529 31.4462 276.529 31.7074 276.529 31.8597C276.529 35.7339 273.46 36.2127 273.46 39.2815H273.416Z" fill="#231F20"/>
<path d="M338.14 51.9699C335.964 53.4281 333.613 53.6676 331.045 53.6676C328.956 53.6676 326.779 53.5152 324.668 53.5152C319.749 53.5152 314.917 54.5599 309.998 54.5599C307.169 54.5599 302.751 54.4076 300.313 52.797C299.987 52.4705 299.508 52.144 299.508 51.6652C299.508 50.294 305.558 48.5093 306.756 47.791C309.911 45.7016 310.151 36.1686 310.151 30.6839V28.268C310.151 25.765 310.238 23.1968 310.238 20.6068C310.238 16.8197 310.238 9.72438 306.451 7.5479C305.232 6.89495 300.487 5.52374 300.487 3.91314C300.487 1.49725 306.777 1.08374 308.475 1.08374C310.173 1.08374 311.37 1.32314 312.915 1.88903C313.807 2.2155 314.134 2.36786 315.091 2.36786C316.463 2.36786 317.921 2.04138 319.292 1.88903C321.316 1.64961 323.253 1.47549 325.256 1.47549C337.03 1.47549 349.197 9.13669 351.069 21.3903C351.395 23.6538 351.482 25.9827 351.482 28.2462C351.482 38.2362 346.324 46.4634 338.184 51.9481L338.14 51.9699ZM323.057 7.70026C318.53 7.70026 318.051 9.96375 318.051 13.9032V19.6273C318.051 25.2644 317.159 30.8362 317.159 36.408C317.159 40.848 317.399 48.5746 323.536 48.5746C324.755 48.5746 325.952 48.3352 327.171 48.0087C329.761 47.4428 332.416 46.7246 334.68 45.3534C340.73 41.5663 341.209 33.6657 341.209 27.2886C341.209 15.9927 334.919 7.70026 323.057 7.70026V7.70026Z" fill="#231F20"/>
<path d="M406.504 40.6743C403.436 47.3779 397.233 51.165 390.529 53.4067C388.026 54.212 385.371 54.865 382.715 54.865C375.294 54.865 367.959 51.0779 363.04 45.5931C359.014 41.0007 356.75 35.9078 356.75 29.7048C356.75 18.4959 360.45 8.74531 371.594 4.5447C375.707 3.02117 380.06 1.32349 384.5 1.32349C393.445 1.32349 398.691 5.34998 404.088 12.1406C407.636 16.6459 409.421 21.8912 409.421 27.7024C409.421 32.0554 408.376 36.7348 406.526 40.696L406.504 40.6743ZM383.673 8.57121C372.551 8.57121 367.545 15.7536 367.545 26.2224C367.545 36.6913 371.332 47.7479 383.586 47.7479C394.643 47.7479 399.627 40.5002 399.627 30.0096C399.627 20.0848 395.361 8.54942 383.651 8.54942L383.673 8.57121Z" fill="#231F20"/>
<path d="M464.334 39.0635C464.334 41.5665 465.052 43.9824 465.052 46.4853C465.052 48.6618 464.813 49.7065 462.963 51.0777C460.068 53.1672 449.338 54.473 445.551 54.473C441.525 54.473 437.411 53.9071 433.689 52.2966C420.304 46.4201 414.906 39.5642 414.906 24.6335C414.906 12.9458 425.31 3.43455 436.279 1.56278C439.979 0.909831 443.788 0.67041 447.488 0.67041C455.628 0.67041 466.206 2.99923 466.206 13.0981C466.206 14.5563 466.119 19.0617 464.029 19.0617C460.329 19.0617 459.024 6.48158 445.246 6.48158C435.561 6.48158 427.508 13.4899 426.224 23.1752C425.897 25.6782 425.81 28.3335 425.81 30.9235C425.81 35.2765 426.376 37.54 429.271 40.9135C430.49 42.2847 431.535 43.743 432.819 45.0271C435.713 47.8565 439.762 48.4877 443.636 48.9883C444.528 49.0754 445.486 49.2277 446.378 49.2277C451.536 49.2277 454.692 46.3983 454.692 41.153C454.692 32.2076 447.118 35.5159 447.118 31.1629C447.118 28.3335 451.079 28.3335 453.082 28.3335C455.911 28.3335 458.719 28.747 461.548 28.747C463.812 28.747 466.315 28.747 467.359 31.0759C467.447 31.2282 467.447 31.4894 467.447 31.6418C467.447 35.5159 464.378 35.9947 464.378 39.0635H464.334Z" fill="#231F20"/>
<path d="M520.791 9.15903C518.615 11.4226 518.462 16.102 518.462 19.0838C518.462 22.4791 518.876 25.8527 518.876 29.248C518.876 31.9903 518.789 34.8198 518.789 37.8015C518.789 40.3916 518.789 45.6151 520.965 47.1604C522.663 48.4445 526.037 49.4239 526.037 51.9269C526.037 53.3851 522.01 53.5375 519.094 53.5375H516.504C514.327 53.5375 512.151 53.864 509.974 53.864C508.189 53.864 505.447 53.7116 505.447 51.361C505.447 47.7263 511.737 48.771 511.737 42.2416C511.737 40.2175 511.585 38.215 511.411 36.278C511.084 33.2962 510.845 30.1403 507.297 29.5091C506.078 29.3568 504.794 29.2697 503.597 29.2697H501.508C498.526 29.2697 489.254 29.3568 487.709 30.5539C486.011 32.0121 485.619 33.2092 485.619 35.3857C485.619 36.9963 485.206 38.5415 485.206 40.1521C485.206 48.858 494.238 47.4869 494.238 50.7081V51.0345C493.912 52.9716 491.648 52.9716 490.038 52.9716C488.275 52.9716 486.49 52.8845 484.792 52.8845H483.029C480.287 52.8845 477.697 54.1034 474.955 54.1034C473.344 54.1034 470.602 52.8193 470.602 50.8822C470.602 48.2922 476.979 47.5739 477.784 43.221C478.11 41.4362 478.197 39.6733 478.197 37.8886V37.4098C478.197 34.9939 478.045 32.4909 478.045 29.988C478.045 25.3956 478.197 20.8685 478.197 16.1238C478.197 14.0997 478.11 8.04905 476.108 7.41787C474.585 6.93905 471.755 6.85195 471.755 4.58841C471.755 2.32487 475.39 0.888428 477.327 0.888428C479.416 0.888428 481.353 1.9331 483.465 1.9331C485.315 1.9331 487.252 1.60664 489.189 1.60664C490.647 1.60664 493.15 2.02018 493.15 3.93549C493.15 8.37551 485.489 5.30666 485.489 13.4467C485.489 25.0691 489.276 25.3086 499.592 25.3086C504.664 25.3086 511.606 25.2214 511.694 18.4526V16.6026C511.694 5.95963 504.446 7.41786 504.446 3.8702C504.446 1.69372 510.257 1.69372 511.781 1.69372C513.152 1.69372 514.523 1.78074 515.894 1.9331C517.831 2.02016 519.681 2.02017 521.618 2.02017H523.708C524.839 2.02017 527.255 2.10723 527.255 3.71783C527.255 5.6549 522.184 7.83135 520.813 9.20254L520.791 9.15903Z" fill="#231F20"/>
<path d="M570.5 53.0145C567.844 53.5804 565.015 53.5804 562.12 53.5804C557.92 53.5804 553.741 53.4933 549.54 53.4933C547.93 53.4933 546.232 53.4934 544.621 53.7328C542.684 53.9722 540.747 54.2986 538.745 54.2986C535.915 54.2986 533.108 53.8198 531.65 50.9904C531.497 50.751 531.41 50.5116 531.41 50.1851C531.41 49.3798 534.566 48.6615 535.284 48.3351C536.09 47.8562 536.808 47.2033 537.461 46.485C540.355 42.8503 540.53 35.9944 540.53 31.4891V28.8991C540.53 22.8485 540.443 10.4208 539.724 8.9843C539.311 8.179 539.071 7.93956 538.266 7.52603C536.808 6.80779 532.629 5.7631 532.629 3.73897C532.629 3.49956 532.716 3.1731 532.868 2.93368C533.913 0.996614 542.858 0.996582 545.057 0.996582C548.038 0.996582 550.933 1.14894 553.937 1.41012C556.113 1.64953 558.29 1.73658 560.466 1.73658C567.322 1.73658 573.373 1.82364 573.373 10.4425C573.373 11.9007 572.959 14.8825 571.044 14.8825C570.326 14.8825 569.586 14.4037 569.107 13.9249C564.514 9.8984 565.32 6.50311 558.05 5.85016C557.245 5.7631 556.44 5.76308 555.547 5.76308C551.194 5.76308 549.41 6.65542 549.018 11.2478C548.866 12.9454 548.779 14.7085 548.779 16.4061C548.779 19.475 549.018 25.9173 553.284 25.9173C553.523 25.9173 553.697 25.9173 553.937 25.8302C557.245 25.3514 559.421 23.6538 560.379 20.3455C560.619 19.6273 560.706 18.822 561.032 18.0167C561.184 17.5379 561.511 16.8849 562.164 16.8849C563.687 16.8849 564.014 20.5849 564.188 21.7167C564.601 25.4167 565.559 29.0514 565.559 32.7732C565.559 34.0574 565.08 37.5397 563.296 37.5397C561.772 37.5397 559.661 31.9026 558.29 30.7708C557.158 29.8132 555.46 29.4867 553.937 29.4867C551.107 29.4867 549.497 30.6185 549.018 33.4479C548.604 36.1903 548.126 39.085 548.126 41.8274C548.126 45.6145 549.344 47.878 553.197 48.8357C556.026 49.5539 559.008 49.9674 561.99 49.9674C565.624 49.9674 568.519 49.3145 569.803 45.4621C570.456 43.525 571.893 38.6062 574.396 38.6062C575.767 38.6062 575.767 44.178 575.767 45.1356C575.767 49.0968 574.722 52.1439 570.522 53.0363L570.5 53.0145Z" fill="#231F20"/>
<path d="M624.327 54.0811C621.998 54.0811 619.822 52.797 617.471 52.797C616.579 52.797 615.621 52.884 614.642 52.884C612.857 52.884 610.855 51.7523 610.855 49.7282C610.855 47.3993 613.358 47.2252 615.055 46.6593C616.339 46.1805 616.666 45.767 616.666 44.3958C616.666 42.1322 615.534 39.1505 614.576 37.061C613.684 35.0369 611.355 34.471 609.244 34.471C608.199 34.471 607.068 34.7104 605.936 34.7104C604.891 34.7104 603.846 34.6234 602.78 34.6234C601.409 34.6234 600.603 34.7757 599.472 35.6681C597.622 37.1263 594.705 40.587 594.705 43.0029C594.705 45.9846 599.385 48.8793 599.385 51.4693C599.385 53.7329 591.07 53.9723 589.395 53.9723C587.218 53.9723 580.449 53.8199 580.449 50.664C580.449 46.3111 587.457 46.8769 590.048 41.3051C592.072 36.9522 592.463 31.8593 594.161 27.3539C595.119 24.6116 596.185 21.8692 597.056 19.1268C598.34 15.4268 601.017 5.65441 603.759 3.32557C605.131 2.10674 607.307 1.06201 609.157 1.06201C611.334 1.06201 612.313 2.28085 613.118 4.13086C614.402 7.1997 615.142 10.508 616.1 13.7292C617.711 19.1268 619.408 24.4592 620.932 29.7698C622.629 35.6463 623.522 42.3499 628.593 46.3764C629.725 47.2687 632.946 49.2711 632.946 50.8164C632.946 52.7535 625.851 54.0376 624.327 54.0376V54.0811ZM604.978 17.8645C603.128 17.8645 600.059 23.4362 600.059 25.1992C600.059 27.7021 602.889 30.4445 605.457 30.4445C607.873 30.4445 610.223 28.9863 610.223 26.331C610.223 24.0022 607.808 17.8645 604.978 17.8645V17.8645Z" fill="#231F20"/>
<path d="M684.527 54.5598C684.201 54.5598 683.961 54.5598 683.722 54.4728C677.105 54.0592 674.602 52.2963 670.815 47.0509C668.726 44.2215 662.501 34.4709 659.693 33.4914C659.04 33.252 658.409 33.0779 657.669 33.0779C654.274 33.0779 654.209 37.8444 654.209 40.2603V42.6762C654.209 45.5709 654.535 48.0739 657.996 49.0533C659.28 49.3798 661.543 49.7716 661.543 51.5563C661.543 53.4933 656.864 54.1463 655.406 54.1463C653.947 54.1463 652.576 53.9939 651.14 53.9939C649.05 53.9939 646.874 54.1463 644.697 54.1463C642.934 54.1463 638.32 54.1462 638.32 51.6433C638.32 48.8139 644.937 51.2298 646.308 43.0897C646.874 39.8685 647.2 36.4732 647.2 33.0997C647.2 31.2497 647.113 29.3997 647.048 27.5279C646.961 24.9379 646.961 22.3696 646.961 19.7796V16.8849C646.961 13.5767 646.874 8.89719 643.74 6.89483C642.695 6.24188 639.539 4.95778 639.539 3.5866C639.539 1.08365 647.614 0.996582 650.095 0.996582H652.99C663.306 0.996582 678.868 1.4754 678.868 14.7955C678.868 19.9537 675.973 24.3067 671.621 27.0491C670.489 27.702 669.292 28.1809 668.225 28.8991C667.746 29.2256 667.42 29.465 667.42 30.1179C667.42 32.2944 671.381 36.1686 672.818 37.6921C676.365 41.2398 679.586 45.0268 683.787 47.8562C685.311 48.8139 688.14 50.751 688.14 52.7751C688.14 54.3857 685.637 54.538 684.505 54.538L684.527 54.5598ZM658.953 6.65545H658.54C654.035 6.65545 653.534 16.1014 653.534 19.2355C653.534 22.5438 653.621 27.7891 658.126 27.7891C659.171 27.7891 660.216 27.5497 661.282 27.3102C667.659 25.6126 668.225 22.3914 668.225 16.4278C668.225 10.4643 664.351 7.54783 658.953 6.67723V6.65545Z" fill="#231F20"/>
<path d="M736.718 18.9093C735.26 18.9093 732.126 14.6434 731.473 13.3375C731.06 12.6846 730.82 12.0533 730.668 11.3133C729.949 8.98448 729.449 7.85272 726.707 7.85272C726.228 7.85272 725.749 7.85274 725.248 7.9398C720.177 8.50568 716.216 9.15863 715.084 14.8828C714.605 17.3857 714.605 19.954 714.605 22.457C714.605 27.9417 714.758 33.4264 715.084 38.9112C715.237 42.3065 716.129 46.5723 719.111 48.5965C720.808 49.8153 722.419 50.5336 722.419 52.8624C722.419 54.386 721.2 54.3859 720.09 54.3859C717.195 54.3859 714.366 53.82 711.536 53.82C708.381 53.82 705.246 54.7124 702.112 54.7124C700.893 54.7124 698.478 54.6254 698.478 52.9277C698.478 47.5953 706.857 50.3377 706.857 37.7576C706.857 31.2282 707.271 24.6987 707.271 17.9951C707.271 16.1451 707.271 13.1634 706.552 11.5528C705.094 8.65804 701.155 7.91801 698.238 7.91801C697.281 7.91801 696.301 8.00511 695.409 8.15746C692.013 8.8757 691.208 10.3339 689.772 13.2286C689.053 14.6869 687.356 20.4111 685.419 20.4111C683.656 20.4111 683.395 13.4681 683.395 12.0969C683.395 10.4863 683.547 8.87569 683.808 7.33039C684.374 4.26155 684.287 1.45386 688.248 1.45386C692.209 1.45386 695.909 2.49859 699.783 2.49859C703.005 2.49859 706.226 1.84567 709.534 1.84567C712.516 1.84567 715.498 2.73804 718.479 2.73804C721.635 2.73804 724.769 2.32447 727.925 2.01976C729.95 1.69329 731.952 1.45386 734.063 1.45386C738.09 1.45386 738.416 4.04391 738.416 6.93863V8.96275C738.416 10.2469 738.503 11.5527 738.503 12.7498C738.503 13.9469 738.351 18.8875 736.74 18.8875L736.718 18.9093Z" fill="#231F20"/>
<path d="M802.626 14.4695C802.147 14.4695 801.733 14.2301 801.255 14.056C795.204 10.8348 798.425 5.91593 788.022 5.91593C781.492 5.91593 780.208 12.293 780.208 17.6036C780.208 20.4984 780.622 25.4172 784.409 25.4172H784.735C788.849 25.4172 790.068 24.4595 791.504 20.5854C791.918 19.6277 792.549 17.9954 793.833 17.9954C795.618 17.9954 795.857 21.0642 795.857 23.3278V25.5043C795.857 28.5731 796.423 31.642 796.423 34.689C796.423 35.4943 796.423 38.4761 795.204 38.4761C794.551 38.4761 793.92 37.8232 793.506 37.3443C791.003 34.5149 791.809 30.0096 786.803 30.0096C782.45 30.0096 780.426 31.7725 780.426 36.2125C780.426 37.9102 780.273 39.5208 780.273 41.1314C780.273 44.6791 780.513 48.2267 784.147 49.8373C785.519 50.4903 787.608 51.2085 787.608 53.1455C787.608 54.1903 786.65 54.7562 785.671 54.7562C783.821 54.7562 781.971 54.1903 780.099 54.1903C778.01 54.1903 775.899 54.6691 773.809 54.6691C772.112 54.6691 770.349 54.582 768.651 54.582C767.367 54.582 765.495 53.4503 765.495 51.992C765.495 51.0344 766.54 50.7079 767.345 50.3814C771.306 48.7708 773.069 45.2232 773.069 41.1096C773.069 34.6672 772.416 28.2902 772.416 21.9131C772.416 20.6943 772.503 19.5842 772.503 18.3654C772.503 15.9495 772.264 8.76714 770.479 7.15655C769.021 5.6983 764.516 6.1118 764.516 4.26179C764.516 3.84826 764.842 3.45647 765.081 3.21705C766.692 1.19292 770.414 0.714111 772.83 0.714111C774.288 0.714111 775.659 0.86647 777.096 1.12765C780.643 1.60647 784.278 1.93294 787.826 1.93294C790.655 1.93294 793.31 1.78063 796.14 1.78063C802.582 1.78063 804.128 5.80708 804.128 11.5312C804.128 12.4889 804.041 14.426 802.604 14.426L802.626 14.4695Z" fill="#231F20"/>
<path d="M849.136 54.0814C846.807 54.0814 844.63 52.7973 842.28 52.7973C841.387 52.7973 840.43 52.8843 839.45 52.8843C837.666 52.8843 835.663 51.7525 835.663 49.7284C835.663 47.3996 838.166 47.2255 839.864 46.6596C841.148 46.1807 841.474 45.7672 841.474 44.396C841.474 42.1325 840.343 39.1507 839.385 37.0613C838.493 35.0372 836.164 34.4713 834.053 34.4713C833.008 34.4713 831.876 34.7106 830.744 34.7106C829.7 34.7106 828.655 34.6236 827.588 34.6236C826.217 34.6236 825.412 34.7759 824.28 35.6683C822.43 37.1265 819.514 40.5872 819.514 43.0031C819.514 45.9849 824.193 48.8796 824.193 51.4696C824.193 53.7331 815.879 53.9725 814.203 53.9725C812.027 53.9725 805.258 53.8202 805.258 50.6643C805.258 46.3113 812.266 46.8772 814.856 41.3054C816.88 36.9524 817.272 31.8595 818.97 27.3542C819.927 24.6118 820.994 21.8695 821.864 19.1271C823.149 15.4271 825.826 5.65465 828.568 3.32582C829.939 2.10699 832.116 1.06226 833.966 1.06226C836.142 1.06226 837.121 2.28109 837.927 4.1311C839.211 7.19994 839.951 10.5082 840.909 13.7294C842.519 19.1271 844.217 24.4594 845.74 29.7701C847.438 35.6466 848.33 42.3501 853.402 46.3766C854.533 47.269 857.755 49.2714 857.755 50.8167C857.755 52.7537 850.659 54.0378 849.136 54.0378V54.0814ZM829.787 17.8647C827.937 17.8647 824.868 23.4365 824.868 25.1994C824.868 27.7024 827.697 30.4448 830.266 30.4448C832.681 30.4448 835.032 28.9866 835.032 26.3312C835.032 24.0024 832.616 17.8647 829.787 17.8647V17.8647Z" fill="#231F20"/>
<path d="M909.316 54.5601C908.99 54.5601 908.75 54.5601 908.511 54.473C901.894 54.0595 899.391 52.2965 895.604 47.0512C893.515 44.2218 887.29 34.4711 884.482 33.4917C883.829 33.2523 883.198 33.0781 882.458 33.0781C879.063 33.0781 878.998 37.8447 878.998 40.2606V42.6764C878.998 45.5712 879.324 48.0742 882.785 49.0536C884.069 49.3801 886.332 49.7718 886.332 51.5565C886.332 53.4936 881.653 54.1465 880.195 54.1465C878.737 54.1465 877.365 53.9942 875.929 53.9942C873.839 53.9942 871.663 54.1465 869.486 54.1465C867.724 54.1465 863.109 54.1465 863.109 51.6435C863.109 48.8141 869.726 51.23 871.097 43.09C871.663 39.8688 871.989 36.4735 871.989 33.0999C871.989 31.2499 871.902 29.3999 871.837 27.5281C871.75 24.9381 871.75 22.3699 871.75 19.7799V16.8852C871.75 13.5769 871.663 8.89744 868.529 6.89507C867.484 6.24213 864.328 4.95803 864.328 3.58684C864.328 1.08389 872.403 0.996826 874.884 0.996826H877.779C888.095 0.996826 903.657 1.47564 903.657 14.7957C903.657 19.954 900.763 24.3069 896.41 27.0493C895.278 27.7023 894.081 28.1811 893.014 28.8993C892.535 29.2258 892.209 29.4652 892.209 30.1182C892.209 32.2946 896.17 36.1688 897.607 37.6923C901.154 41.24 904.376 45.027 908.576 47.8565C910.1 48.8141 912.929 50.7512 912.929 52.7753C912.929 54.3859 910.426 54.5383 909.294 54.5383L909.316 54.5601ZM883.742 6.65569H883.329C878.824 6.65569 878.323 16.1016 878.323 19.2358C878.323 22.544 878.41 27.7893 882.915 27.7893C883.96 27.7893 885.005 27.5499 886.071 27.3105C892.448 25.6128 893.014 22.3916 893.014 16.4281C893.014 10.4645 889.14 7.54807 883.742 6.67748V6.65569Z" fill="#231F20"/>
<path d="M980.791 6.09005H980.377C977.635 6.09005 977.548 20.7595 977.548 25.1996V29.4002C977.548 35.6902 977.7 46.5073 980.051 48.1832C981.27 49.0756 982.793 49.7068 982.793 51.4044C982.793 54.2338 975.045 53.4938 973.195 53.8203C971.824 54.0597 970.453 54.4733 969.081 54.4733C967.057 54.4733 965.621 53.5809 964.315 52.1444C964.076 51.8179 963.749 51.4915 963.749 51.0127C963.749 50.3597 965.686 49.4021 966.165 48.9886C966.644 48.6621 967.057 48.1832 967.449 47.7044C969.299 45.5279 969.626 42.5462 969.713 39.8038C969.865 36.1691 970.039 32.5561 970.279 28.9214C970.518 25.8525 970.844 22.7837 970.844 19.7366C970.844 18.8443 970.757 18.0389 970.431 17.2336C970.191 16.5154 969.147 14.3389 968.254 14.3389C967.123 14.3389 966.165 17.0813 965.751 17.9737C963.161 24.9167 961.311 32.1643 958.177 38.8679C957.372 40.5655 956.719 42.3285 956.24 44.2003C955.435 47.5956 955.348 53.385 950.603 53.385H950.277C945.684 53.298 945.205 50.7297 944.553 46.7685C944.226 45.1579 944.074 43.4602 943.66 41.8496C942.05 35.1461 939.46 28.7037 937.044 22.3267C936.63 21.2819 935.107 16.363 933.909 16.363C932.865 16.363 932.625 19.9107 932.625 20.6289C932.386 23.5237 932.059 26.3531 932.059 29.2478C932.059 32.7085 932.538 36.1908 933.104 39.5644C933.583 42.8726 933.757 46.2679 935.52 49.1626C935.999 49.9679 936.652 50.7732 936.652 51.7527C936.652 54.1686 931.254 54.2556 929.078 54.2556C927.141 54.2556 918.348 53.8421 918.348 51.1868C918.348 48.0309 925.356 48.9233 926.161 39.325C926.314 37.8014 926.314 36.2561 926.314 34.6455V29.879C926.314 26.3313 926.466 22.6966 926.792 19.1489C927.032 17.0595 927.358 14.9483 927.358 12.7719C927.358 9.94244 926.705 9.22421 924.202 8.09244C922.505 7.28714 920.241 6.06833 920.241 3.89185C920.241 2.04184 922.265 1.62825 923.702 1.38884C926.118 1.06237 928.534 0.822998 930.95 0.822998C933.365 0.822998 935.868 1.30181 937.718 2.9124C939.655 4.523 940.613 9.20245 941.353 11.7054C941.919 13.7295 942.572 15.6666 943.203 17.6689C944.248 20.6507 949.493 36.2125 952.475 36.2125C954.085 36.2125 955.457 31.2067 955.87 29.9226C957.633 25.0037 959.026 19.9325 960.702 14.9919C962.791 8.94123 965.86 0.953582 973.434 0.953582C975.371 0.953582 977.221 1.43241 979.159 1.43241C980.682 1.43241 982.14 1.10595 983.664 1.10595C985.035 1.10595 985.84 2.39006 985.84 3.60889C985.84 5.93773 982.532 6.02476 980.682 6.02476L980.791 6.09005Z" fill="#231F20"/>
</svg>
